<svg width="136" height="136" viewBox="0 0 136 136" fill="none" xmlns="http://www.w3.org/2000/svg">
<circle cx="68" cy="68" r="68" fill="#9984BC"/>
<path d="M79.3127 74.2502H76.6464L75.7014 73.3389C79.7514 68.6139 81.8439 62.1677 80.6964 55.3164C79.1102 45.9339 71.2802 38.4414 61.8302 37.2939C47.5539 35.5389 35.5389 47.5539 37.2939 61.8302C38.4414 71.2802 45.9339 79.1102 55.3164 80.6964C62.1677 81.8439 68.6139 79.7514 73.3389 75.7014L74.2502 76.6464V79.3127L88.5939 93.6564C89.9777 95.0402 92.2389 95.0402 93.6227 93.6564C95.0064 92.2727 95.0064 90.0114 93.6227 88.6277L79.3127 74.2502ZM59.0627 74.2502C50.6589 74.2502 43.8752 67.4664 43.8752 59.0627C43.8752 50.6589 50.6589 43.8752 59.0627 43.8752C67.4664 43.8752 74.2502 50.6589 74.2502 59.0627C74.2502 67.4664 67.4664 74.2502 59.0627 74.2502Z" fill="white"/>
</svg>
