<svg width="136" height="136" viewBox="0 0 136 136" fill="none" xmlns="http://www.w3.org/2000/svg">
<circle cx="68" cy="68" r="68" fill="#9984BC"/>
<path d="M69.8455 81.492C72.336 81.492 73.9964 79.3958 73.094 77.482L57.7538 44.6429C56.9959 43.0329 55.1911 42 53.1698 42C51.1485 42 49.3438 43.0329 48.5858 44.6429L33.2456 77.482C32.3433 79.3958 34.0397 81.492 36.4942 81.492C37.9379 81.492 39.2373 80.7325 39.7788 79.5781L42.9551 72.3784H63.3124L66.5609 79.6085C67.1023 80.7325 68.4017 81.492 69.8455 81.492ZM45.6983 66.3027L53.1698 49.5338L60.6414 66.3027H45.6983ZM97.891 70.2216L71.2171 92.6712L60.497 83.6488C59.0893 82.4641 56.8154 82.4641 55.4077 83.6488C54 84.8336 54 86.7474 55.4077 87.9322L68.6905 99.1114C70.0982 100.296 72.3721 100.296 73.7798 99.1114L102.944 74.5353C104.352 73.3505 104.352 71.4367 102.944 70.2519C101.573 69.0672 99.2626 69.0672 97.891 70.2216Z" fill="white"/>
</svg>
