<svg width="136" height="136" viewBox="0 0 136 136" fill="none" xmlns="http://www.w3.org/2000/svg">
<circle cx="68" cy="68" r="68" fill="#9984BC"/>
<path d="M94.5 44.875H40.5C36.7875 44.875 33.7837 47.9125 33.7837 51.625L33.75 85.375C33.75 89.0875 36.7875 92.125 40.5 92.125H94.5C98.2125 92.125 101.25 89.0875 101.25 85.375V51.625C101.25 47.9125 98.2125 44.875 94.5 44.875ZM64.125 55H70.875V61.75H64.125V55ZM64.125 65.125H70.875V71.875H64.125V65.125ZM54 55H60.75V61.75H54V55ZM54 65.125H60.75V71.875H54V65.125ZM50.625 71.875H43.875V65.125H50.625V71.875ZM50.625 61.75H43.875V55H50.625V61.75ZM77.625 85.375H57.375C55.5187 85.375 54 83.8563 54 82C54 80.1437 55.5187 78.625 57.375 78.625H77.625C79.4813 78.625 81 80.1437 81 82C81 83.8563 79.4813 85.375 77.625 85.375ZM81 71.875H74.25V65.125H81V71.875ZM81 61.75H74.25V55H81V61.75ZM91.125 71.875H84.375V65.125H91.125V71.875ZM91.125 61.75H84.375V55H91.125V61.75Z" fill="white"/>
</svg>
