<svg width="136" height="136" viewBox="0 0 136 136" fill="none" xmlns="http://www.w3.org/2000/svg">
<circle cx="68" cy="68" r="68" fill="#9984BC"/>
<path d="M81 70.875H70.875C69.0187 70.875 67.5 72.3937 67.5 74.25V84.375C67.5 86.2313 69.0187 87.75 70.875 87.75H81C82.8563 87.75 84.375 86.2313 84.375 84.375V74.25C84.375 72.3937 82.8563 70.875 81 70.875ZM81 37.125V40.5H54V37.125C54 35.2687 52.4812 33.75 50.625 33.75C48.7688 33.75 47.25 35.2687 47.25 37.125V40.5H43.875C40.1287 40.5 37.1587 43.5375 37.1587 47.25L37.125 94.5C37.125 98.2125 40.1287 101.25 43.875 101.25H91.125C94.8375 101.25 97.875 98.2125 97.875 94.5V47.25C97.875 43.5375 94.8375 40.5 91.125 40.5H87.75V37.125C87.75 35.2687 86.2313 33.75 84.375 33.75C82.5187 33.75 81 35.2687 81 37.125ZM87.75 94.5H47.25C45.3938 94.5 43.875 92.9813 43.875 91.125V57.375H91.125V91.125C91.125 92.9813 89.6063 94.5 87.75 94.5Z" fill="white"/>
</svg>
