<svg width="136" height="136" viewBox="0 0 136 136" fill="none" xmlns="http://www.w3.org/2000/svg">
<circle cx="68" cy="68" r="68" fill="#9984BC"/>
<path d="M58.375 83H80.3125C84.97 83 88.75 79.22 88.75 74.5625C88.75 69.905 84.97 66.125 80.3125 66.125H80.1437C79.3337 60.4212 74.44 56 68.5 56C63.775 56 59.725 58.8013 57.835 62.8175H57.295C52.1988 63.3575 48.25 67.6437 48.25 72.875C48.25 78.4775 52.7725 83 58.375 83ZM98.875 39.125H38.125C34.4125 39.125 31.375 42.1625 31.375 45.875V93.125C31.375 96.8375 34.4125 99.875 38.125 99.875H98.875C102.588 99.875 105.625 96.8375 105.625 93.125V45.875C105.625 42.1625 102.588 39.125 98.875 39.125ZM95.5 93.1588H41.5C39.6438 93.1588 38.125 91.64 38.125 89.7838V49.2162C38.125 47.36 39.6438 45.8412 41.5 45.8412H95.5C97.3562 45.8412 98.875 47.36 98.875 49.2162V89.7838C98.875 91.64 97.3562 93.1588 95.5 93.1588Z" fill="white"/>
</svg>
