<svg width="136" height="136" viewBox="0 0 136 136" fill="none" xmlns="http://www.w3.org/2000/svg">
<circle cx="68" cy="68" r="68" fill="#9984BC"/>
<path d="M94.5 40.5H40.5C36.7875 40.5 33.7837 43.5375 33.7837 47.25L33.75 87.75C33.75 91.4625 36.7875 94.5 40.5 94.5H94.5C98.2125 94.5 101.25 91.4625 101.25 87.75V47.25C101.25 43.5375 98.2125 40.5 94.5 40.5ZM93.15 54.8438L69.2887 69.7612C68.2087 70.4363 66.7913 70.4363 65.7113 69.7612L41.85 54.8438C41.0063 54.3038 40.5 53.3925 40.5 52.4138C40.5 50.1525 42.9638 48.8025 44.8875 49.9837L67.5 64.125L90.1125 49.9837C92.0363 48.8025 94.5 50.1525 94.5 52.4138C94.5 53.3925 93.9938 54.3038 93.15 54.8438Z" fill="white"/>
</svg>
