<svg width="136" height="136" viewBox="0 0 136 136" fill="none" xmlns="http://www.w3.org/2000/svg">
<circle cx="68" cy="68" r="68" fill="#9984BC"/>
<path d="M67.5 68.3438C71.685 68.3438 75.0938 64.935 75.0938 60.75C75.0938 56.565 71.685 53.1562 67.5 53.1562C63.315 53.1562 59.9062 56.565 59.9062 60.75C59.9062 64.935 63.315 68.3438 67.5 68.3438ZM82.6875 81.8438C82.6875 76.7812 72.5625 74.25 67.5 74.25C62.4375 74.25 52.3125 76.7812 52.3125 81.8438V84.375H82.6875V81.8438ZM91.125 37.125H43.875C40.1625 37.125 37.125 40.1625 37.125 43.875V91.125C37.125 94.8375 40.1625 97.875 43.875 97.875H91.125C94.8375 97.875 97.875 94.8375 97.875 91.125V43.875C97.875 40.1625 94.8375 37.125 91.125 37.125ZM87.75 91.125H47.25C45.3938 91.125 43.875 89.6063 43.875 87.75V47.25C43.875 45.3938 45.3938 43.875 47.25 43.875H87.75C89.6063 43.875 91.125 45.3938 91.125 47.25V87.75C91.125 89.6063 89.6063 91.125 87.75 91.125Z" fill="white"/>
</svg>
