<svg width="136" height="136" viewBox="0 0 136 136" fill="none" xmlns="http://www.w3.org/2000/svg">
<circle cx="68" cy="68" r="68" fill="#9984BC"/>
<path d="M91.9013 78.5024L83.3288 77.5237C81.27 77.2874 79.245 77.9962 77.7938 79.4474L71.5838 85.6574C62.0325 80.7974 54.2025 73.0012 49.3425 63.4162L55.5863 57.1724C57.0375 55.7212 57.7463 53.6962 57.51 51.6374L56.5313 43.1324C56.1263 39.7237 53.2575 37.1587 49.815 37.1587H43.9763C40.1625 37.1587 36.99 40.3312 37.2263 44.1449C39.015 72.9674 62.0663 95.9849 90.855 97.7737C94.6688 98.0099 97.8413 94.8374 97.8413 91.0237V85.1849C97.875 81.7762 95.31 78.9074 91.9013 78.5024Z" fill="white"/>
</svg>
