<svg width="136" height="136" viewBox="0 0 136 136" fill="none" xmlns="http://www.w3.org/2000/svg">
<circle cx="68" cy="68" r="68" fill="#9984BC"/>
<path d="M91.5 40.5H37.5C33.7875 40.5 30.7837 43.5375 30.7837 47.25L30.75 87.75C30.75 91.4625 33.7875 94.5 37.5 94.5H91.5C95.2125 94.5 98.25 91.4625 98.25 87.75V47.25C98.25 43.5375 95.2125 40.5 91.5 40.5ZM37.5 57.375H72.9375V69.1875H37.5V57.375ZM37.5 75.9375H72.9375V87.75H40.875C39.0188 87.75 37.5 86.2313 37.5 84.375V75.9375ZM88.125 87.75H79.6875V57.375H91.5V84.375C91.5 86.2313 89.9813 87.75 88.125 87.75Z" fill="white"/>
</svg>
