<svg width="136" height="136" viewBox="0 0 136 136" fill="none" xmlns="http://www.w3.org/2000/svg">
<circle cx="68" cy="68" r="68" fill="#9984BC"/>
<path d="M37.125 47.25C35.2687 47.25 33.75 48.7688 33.75 50.625V94.5C33.75 98.2125 36.7875 101.25 40.5 101.25H84.375C86.2313 101.25 87.75 99.7312 87.75 97.875C87.75 96.0187 86.2313 94.5 84.375 94.5H43.875C42.0188 94.5 40.5 92.9813 40.5 91.125V50.625C40.5 48.7688 38.9812 47.25 37.125 47.25ZM94.5 33.75H54C50.2875 33.75 47.25 36.7875 47.25 40.5V81C47.25 84.7125 50.2875 87.75 54 87.75H94.5C98.2125 87.75 101.25 84.7125 101.25 81V40.5C101.25 36.7875 98.2125 33.75 94.5 33.75ZM87.75 64.125H60.75C58.8937 64.125 57.375 62.6063 57.375 60.75C57.375 58.8937 58.8937 57.375 60.75 57.375H87.75C89.6063 57.375 91.125 58.8937 91.125 60.75C91.125 62.6063 89.6063 64.125 87.75 64.125ZM74.25 77.625H60.75C58.8937 77.625 57.375 76.1063 57.375 74.25C57.375 72.3937 58.8937 70.875 60.75 70.875H74.25C76.1063 70.875 77.625 72.3937 77.625 74.25C77.625 76.1063 76.1063 77.625 74.25 77.625ZM87.75 50.625H60.75C58.8937 50.625 57.375 49.1062 57.375 47.25C57.375 45.3938 58.8937 43.875 60.75 43.875H87.75C89.6063 43.875 91.125 45.3938 91.125 47.25C91.125 49.1062 89.6063 50.625 87.75 50.625Z" fill="white"/>
</svg>
