<svg width="136" height="136" viewBox="0 0 136 136" fill="none" xmlns="http://www.w3.org/2000/svg">
<circle cx="68" cy="68" r="68" fill="#9984BC"/>
<path d="M86.0625 38.1875C79.4813 38.1875 72.3937 39.5375 67.5 43.25C62.6063 39.5375 55.5187 38.1875 48.9375 38.1875C44.0437 38.1875 38.8462 38.93 34.4925 40.8537C32.0288 41.9675 30.375 44.3637 30.375 47.0975V85.1675C30.375 89.555 34.4925 92.795 38.745 91.715C42.0525 90.8713 45.5625 90.5 48.9375 90.5C54.2025 90.5 59.805 91.3775 64.3275 93.605C66.3525 94.6175 68.6475 94.6175 70.6388 93.605C75.1613 91.3438 80.7637 90.5 86.0287 90.5C89.4037 90.5 92.9137 90.8713 96.2213 91.715C100.474 92.8288 104.591 89.5888 104.591 85.1675V47.0975C104.591 44.3637 102.938 41.9675 100.474 40.8537C96.1538 38.93 90.9562 38.1875 86.0625 38.1875ZM97.875 81.1513C97.875 83.2775 95.9175 84.83 93.825 84.4588C91.2937 83.9863 88.6613 83.7838 86.0625 83.7838C80.325 83.7838 72.0563 85.9775 67.5 88.8463V50C72.0563 47.1313 80.325 44.9375 86.0625 44.9375C89.1675 44.9375 92.2388 45.2413 95.175 45.8825C96.7275 46.22 97.875 47.6038 97.875 49.19V81.1513Z" fill="white"/>
</svg>
