<svg width="136" height="136" viewBox="0 0 136 136" fill="none" xmlns="http://www.w3.org/2000/svg">
<circle cx="68" cy="68" r="68" fill="#9984BC"/>
<path d="M60.75 58.51V78.49C60.75 79.9075 62.37 80.6838 63.4838 79.8063L75.9713 69.8163C76.815 69.1413 76.815 67.8587 75.9713 67.1837L63.4838 57.1937C62.37 56.3162 60.75 57.0925 60.75 58.51ZM91.125 38.125H43.875C40.1625 38.125 37.125 41.1625 37.125 44.875V92.125C37.125 95.8375 40.1625 98.875 43.875 98.875H91.125C94.8375 98.875 97.875 95.8375 97.875 92.125V44.875C97.875 41.1625 94.8375 38.125 91.125 38.125ZM87.75 92.125H47.25C45.3938 92.125 43.875 90.6063 43.875 88.75V48.25C43.875 46.3938 45.3938 44.875 47.25 44.875H87.75C89.6063 44.875 91.125 46.3938 91.125 48.25V88.75C91.125 90.6063 89.6063 92.125 87.75 92.125Z" fill="white"/>
</svg>
