<svg width="136" height="136" viewBox="0 0 136 136" fill="none" xmlns="http://www.w3.org/2000/svg">
<circle cx="68" cy="68" r="68" fill="#9984BC"/>
<path d="M37.125 43.875V91.125C37.125 94.8375 40.1625 97.875 43.875 97.875H91.125C94.8375 97.875 97.875 94.8375 97.875 91.125V43.875C97.875 40.1625 94.8375 37.125 91.125 37.125H43.875C40.1625 37.125 37.125 40.1625 37.125 43.875ZM64.125 91.125H47.25C45.3938 91.125 43.875 89.6063 43.875 87.75V70.875H60.75C62.6063 70.875 64.125 72.3937 64.125 74.25V91.125ZM60.75 64.125H43.875V47.25C43.875 45.3938 45.3938 43.875 47.25 43.875H64.125V60.75C64.125 62.6063 62.6063 64.125 60.75 64.125ZM87.75 91.125H70.875V74.25C70.875 72.3937 72.3937 70.875 74.25 70.875H91.125V87.75C91.125 89.6063 89.6063 91.125 87.75 91.125ZM91.125 64.125H74.25C72.3937 64.125 70.875 62.6063 70.875 60.75V43.875H87.75C89.6063 43.875 91.125 45.3938 91.125 47.25V64.125Z" fill="white"/>
</svg>
