<svg width="137" height="137" viewBox="0 0 137 137" fill="none" xmlns="http://www.w3.org/2000/svg">

<circle cx="68" cy="68" r="68" fill="#9984BC"/>
<path d="M114 70.875H103.875C102.019 70.875 100.5 72.3937 100.5 74.25V84.375C100.5 86.2313 102.019 87.75 103.875 87.75H114C115.856 87.75 117.375 86.2313 117.375 84.375V74.25C117.375 72.3937 115.856 70.875 114 70.875ZM114 37.125V40.5H87V37.125C87 35.2687 85.4813 33.75 83.625 33.75C81.7687 33.75 80.25 35.2687 80.25 37.125V40.5H76.875C73.1287 40.5 70.1587 43.5375 70.1587 47.25L70.125 94.5C70.125 98.2125 73.1287 101.25 76.875 101.25H124.125C127.838 101.25 130.875 98.2125 130.875 94.5V47.25C130.875 43.5375 127.838 40.5 124.125 40.5H120.75V37.125C120.75 35.2687 119.231 33.75 117.375 33.75C115.519 33.75 114 35.2687 114 37.125ZM120.75 94.5H80.25C78.3937 94.5 76.875 92.9813 76.875 91.125V57.375H124.125V91.125C124.125 92.9813 122.606 94.5 120.75 94.5Z" fill="white"/>
</svg>
