<svg width="137" height="137" viewBox="0 0 137 137" fill="none" xmlns="http://www.w3.org/2000/svg">
<circle cx="68" cy="68" r="68" fill="#9984BC"/>
<path d="M88.5 68.3438C92.685 68.3438 96.0938 64.935 96.0938 60.75C96.0938 56.565 92.685 53.1562 88.5 53.1562C84.315 53.1562 80.9062 56.565 80.9062 60.75C80.9062 64.935 84.315 68.3438 88.5 68.3438ZM103.688 81.8438C103.688 76.7812 93.5625 74.25 88.5 74.25C83.4375 74.25 73.3125 76.7812 73.3125 81.8438V84.375H103.688V81.8438ZM112.125 37.125H64.875C61.1625 37.125 58.125 40.1625 58.125 43.875V91.125C58.125 94.8375 61.1625 97.875 64.875 97.875H112.125C115.838 97.875 118.875 94.8375 118.875 91.125V43.875C118.875 40.1625 115.838 37.125 112.125 37.125ZM108.75 91.125H68.25C66.3937 91.125 64.875 89.6063 64.875 87.75V47.25C64.875 45.3937 66.3937 43.875 68.25 43.875H108.75C110.606 43.875 112.125 45.3937 112.125 47.25V87.75C112.125 89.6063 110.606 91.125 108.75 91.125Z" fill="white"/>
</svg>
