<svg width="32" height="32" viewBox="0 0 32 32" fill="none" xmlns="http://www.w3.org/2000/svg">
<rect width="32" height="32" fill="#4A2B7E"/>
<path d="M6.66016 11.2188V11.8281C7.74609 11.2812 8.82812 11.0078 9.90625 11.0078C11.4375 11.0078 12.707 11.5352 13.7148 12.5898C14.7227 13.6445 15.2266 14.9727 15.2266 16.5742C15.2266 18.1523 14.707 19.4883 13.668 20.582C12.6289 21.668 11.3594 22.2109 9.85938 22.2109C8.82031 22.2109 7.75391 21.9414 6.66016 21.4023V27.5195H5.51172V11.2188H6.66016ZM6.66016 12.9297V20.2773C7.63672 20.8164 8.62891 21.0859 9.63672 21.0859C10.9258 21.0859 11.9688 20.6797 12.7656 19.8672C13.5625 19.0547 13.9609 17.9883 13.9609 16.668C13.9609 15.3555 13.5391 14.2734 12.6953 13.4219C11.8516 12.5625 10.7852 12.1328 9.49609 12.1328C8.57422 12.1328 7.62891 12.3984 6.66016 12.9297ZM27.0156 5.62891V22H25.8555V21.1562C24.8711 21.8594 23.8086 22.2109 22.668 22.2109C21.1367 22.2109 19.8438 21.6719 18.7891 20.5938C17.7422 19.5078 17.2188 18.1758 17.2188 16.5977C17.2188 14.9961 17.7344 13.6641 18.7656 12.6016C19.8047 11.5391 21.1055 11.0078 22.668 11.0078C23.6602 11.0078 24.7227 11.2969 25.8555 11.875V5.62891H27.0156ZM25.8555 20.1016V13.1406C24.8242 12.4688 23.7773 12.1328 22.7148 12.1328C21.4727 12.1328 20.4492 12.5469 19.6445 13.375C18.8398 14.1953 18.4375 15.2461 18.4375 16.5273C18.4375 17.832 18.8672 18.918 19.7266 19.7852C20.5859 20.6523 21.6602 21.0859 22.9492 21.0859C23.9492 21.0859 24.918 20.7578 25.8555 20.1016Z" fill="white" fill-opacity="0.85"/>
</svg>
