<svg width="136" height="136" viewBox="0 0 136 136" fill="none" xmlns="http://www.w3.org/2000/svg">
<circle cx="68" cy="68" r="68" fill="white"/>
<path d="M83.9375 67.5336C88.595 67.5336 92.3412 64.0882 92.3412 59.843C92.3412 55.5978 88.595 52.1524 83.9375 52.1524C79.28 52.1524 75.5 55.5978 75.5 59.843C75.5 64.0882 79.28 67.5336 83.9375 67.5336ZM58.625 64.4573C64.2275 64.4573 68.7162 60.3352 68.7162 55.2287C68.7162 50.1221 64.2275 46 58.625 46C53.0225 46 48.5 50.1221 48.5 55.2287C48.5 60.3352 53.0225 64.4573 58.625 64.4573ZM83.9375 73.686C77.7613 73.686 65.375 76.5161 65.375 82.1456V85.9909C65.375 87.6828 66.8937 89.0671 68.75 89.0671H99.125C100.981 89.0671 102.5 87.6828 102.5 85.9909V82.1456C102.5 76.5161 90.1137 73.686 83.9375 73.686ZM58.625 70.6098C50.7613 70.6098 35 74.209 35 81.3766V85.9909C35 87.6828 36.5187 89.0671 38.375 89.0671H58.625V82.1456C58.625 79.5308 59.7387 74.9473 66.6237 71.4711C63.6875 70.9174 60.8525 70.6098 58.625 70.6098Z" fill="#F4D786"/>
</svg>
