<svg width="136" height="136" viewBox="0 0 136 136" fill="none" xmlns="http://www.w3.org/2000/svg">
<circle cx="68" cy="68" r="68" fill="#9984BC"/>
<path d="M64.1867 103.906L80.5463 87.5167C81.6408 86.4221 82.2621 84.9133 82.2621 83.3454V53.7917C82.2621 50.5375 79.5996 47.875 76.3454 47.875H49.75C47.3833 47.875 45.2533 49.295 44.3363 51.4546L34.6921 73.9675C32.1775 79.825 36.4671 86.3333 42.8275 86.3333H59.5421L56.7317 99.8825C56.4358 101.362 56.8796 102.87 57.9446 103.935C59.69 105.651 62.4708 105.651 64.1867 103.906ZM94.125 47.875C90.8708 47.875 88.2083 50.5375 88.2083 53.7917V77.4583C88.2083 80.7125 90.8708 83.375 94.125 83.375C97.3792 83.375 100.042 80.7125 100.042 77.4583V53.7917C100.042 50.5375 97.3792 47.875 94.125 47.875Z" fill="white"/>
</svg>
