<svg width="136" height="136" viewBox="0 0 136 136" fill="none" xmlns="http://www.w3.org/2000/svg">
<circle cx="68" cy="68" r="68" fill="#9984BC"/>
<path d="M85.7097 52.6148L90.5697 57.0446L74.0997 72.0565L62.9959 61.9357C61.6797 60.736 59.5534 60.736 58.2372 61.9357L37.9872 80.4239C36.6709 81.6236 36.6709 83.5616 37.9872 84.7613C39.3034 85.9611 41.4297 85.9611 42.7459 84.7613L60.5997 68.4573L71.7034 78.5781C73.0197 79.7778 75.1459 79.7778 76.4622 78.5781L95.3284 61.4128L100.188 65.8426C101.235 66.7962 103.057 66.1194 103.057 64.7659V51.5381C103.091 50.6768 102.348 50 101.403 50H86.9247C85.4059 50 84.6634 51.6612 85.7097 52.6148Z" fill="white"/>
</svg>
