<svg width="136" height="136" viewBox="0 0 136 136" fill="none" xmlns="http://www.w3.org/2000/svg">
<circle cx="68" cy="68" r="68" fill="#9984BC"/>
<path d="M37.125 69.5C37.125 76.9588 40.1963 83.675 45.09 88.535L39.9937 93.6312C38.9475 94.6775 39.69 96.5 41.2088 96.5H55.6875C56.6325 96.5 57.375 95.7575 57.375 94.8125V80.3338C57.375 78.815 55.5525 78.0725 54.5062 79.1525L49.815 83.8438C46.17 80.1312 43.875 75.1025 43.875 69.5C43.875 61.4338 48.6 54.4475 55.4513 51.2075C56.5988 50.6675 57.375 49.6212 57.375 48.3725V47.7313C57.375 45.4363 54.9788 43.985 52.92 44.9638C43.605 49.2162 37.125 58.5987 37.125 69.5ZM64.125 86.375H70.875V79.625H64.125V86.375ZM93.7913 42.5H79.3125C78.3675 42.5 77.625 43.2425 77.625 44.1875V58.6663C77.625 60.185 79.4475 60.9275 80.4938 59.8475L85.185 55.1562C88.83 58.8687 91.125 63.8975 91.125 69.5C91.125 77.5662 86.4 84.5525 79.5487 87.7925C78.4012 88.3325 77.625 89.3787 77.625 90.6275V91.235C77.625 93.53 80.0212 94.9813 82.08 94.0025C91.395 89.7838 97.875 80.4012 97.875 69.5C97.875 62.0413 94.8037 55.325 89.91 50.465L95.0062 45.3687C96.0525 44.3225 95.31 42.5 93.7913 42.5ZM67.5 72.875C69.3563 72.875 70.875 71.3563 70.875 69.5V56C70.875 54.1438 69.3563 52.625 67.5 52.625C65.6437 52.625 64.125 54.1438 64.125 56V69.5C64.125 71.3563 65.6437 72.875 67.5 72.875Z" fill="white"/>
</svg>
