<svg width="136" height="136" viewBox="0 0 136 136" fill="none" xmlns="http://www.w3.org/2000/svg">
<circle cx="68" cy="68" r="68" fill="#9984BC"/>
<path d="M67.4662 35.75C48.8362 35.75 33.75 50.87 33.75 69.5C33.75 88.13 48.8362 103.25 67.4662 103.25C86.13 103.25 101.25 88.13 101.25 69.5C101.25 50.87 86.13 35.75 67.4662 35.75ZM67.5 96.5C52.5825 96.5 40.5 84.4175 40.5 69.5C40.5 54.5825 52.5825 42.5 67.5 42.5C82.4175 42.5 94.5 54.5825 94.5 69.5C94.5 84.4175 82.4175 96.5 67.5 96.5ZM79.3125 66.125C82.1138 66.125 84.375 63.8638 84.375 61.0625C84.375 58.2612 82.1138 56 79.3125 56C76.5112 56 74.25 58.2612 74.25 61.0625C74.25 63.8638 76.5112 66.125 79.3125 66.125ZM55.6875 66.125C58.4888 66.125 60.75 63.8638 60.75 61.0625C60.75 58.2612 58.4888 56 55.6875 56C52.8862 56 50.625 58.2612 50.625 61.0625C50.625 63.8638 52.8862 66.125 55.6875 66.125ZM67.5 74.5625C60.6488 74.5625 54.675 78.3088 51.4688 83.8438C50.8275 84.9575 51.6712 86.375 52.9538 86.375H82.0462C83.3287 86.375 84.1725 84.9575 83.5312 83.8438C80.325 78.3088 74.3512 74.5625 67.5 74.5625Z" fill="white"/>
</svg>
