<svg width="883" height="625" viewBox="0 0 883 625" fill="none" xmlns="http://www.w3.org/2000/svg">
<path d="M755.896 323.443H762.664C765.254 323.443 767.234 324.023 768.605 325.184C769.988 326.344 770.68 327.926 770.68 329.93C770.68 331.957 769.982 333.562 768.588 334.746C767.205 335.93 765.172 336.521 762.488 336.521H757.795V348H755.896V323.443ZM757.795 325.025V334.939H762.365C764.416 334.939 765.975 334.506 767.041 333.639C768.107 332.771 768.641 331.547 768.641 329.965C768.641 328.453 768.119 327.252 767.076 326.361C766.033 325.471 764.539 325.025 762.594 325.025H757.795ZM779.398 331.512C781.742 331.512 783.693 332.314 785.252 333.92C786.822 335.525 787.607 337.529 787.607 339.932C787.607 342.322 786.822 344.32 785.252 345.926C783.693 347.52 781.742 348.316 779.398 348.316C777.055 348.316 775.092 347.52 773.51 345.926C771.939 344.32 771.154 342.322 771.154 339.932C771.154 337.529 771.939 335.525 773.51 333.92C775.092 332.314 777.055 331.512 779.398 331.512ZM779.398 346.629C781.215 346.629 782.732 345.996 783.951 344.73C785.17 343.453 785.779 341.854 785.779 339.932C785.779 338.021 785.164 336.422 783.934 335.133C782.715 333.844 781.203 333.199 779.398 333.199C777.57 333.199 776.041 333.838 774.811 335.115C773.592 336.393 772.982 337.998 772.982 339.932C772.982 341.854 773.592 343.453 774.811 344.73C776.041 345.996 777.57 346.629 779.398 346.629ZM793.408 323.443V348H791.668V323.443H793.408ZM800.193 323.443V326.396H798.453V323.443H800.193ZM800.193 331.828V348H798.453V331.828H800.193ZM816.365 332.303V334.219C814.818 333.539 813.418 333.199 812.164 333.199C810.359 333.199 808.889 333.826 807.752 335.08C806.627 336.334 806.064 337.963 806.064 339.967C806.064 342.006 806.627 343.629 807.752 344.836C808.889 346.031 810.406 346.629 812.305 346.629C813.688 346.629 815.141 346.318 816.664 345.697V347.49C815.047 348.041 813.547 348.316 812.164 348.316C809.797 348.316 807.881 347.566 806.416 346.066C804.963 344.566 804.236 342.598 804.236 340.16C804.236 337.617 804.969 335.543 806.434 333.938C807.91 332.32 809.791 331.512 812.076 331.512C813.33 331.512 814.76 331.775 816.365 332.303ZM832.959 331.828L820.865 356.279H819.107L824.75 344.871L817.947 331.828H819.758L825.629 343.148L831.201 331.828H832.959ZM861.049 335.766H863.07C862.309 338.156 861.184 340.471 859.695 342.709L864.688 348H862.279L858.57 344.15C856.168 346.928 853.35 348.316 850.115 348.316C848.193 348.316 846.641 347.783 845.457 346.717C844.285 345.639 843.699 344.232 843.699 342.498C843.699 339.275 845.727 336.779 849.781 335.01C847.742 332.889 846.723 330.979 846.723 329.279C846.723 327.779 847.285 326.514 848.41 325.482C849.535 324.439 850.918 323.918 852.559 323.918C854.105 323.918 855.383 324.404 856.391 325.377C857.41 326.338 857.92 327.545 857.92 328.998C857.92 331.6 856.203 333.768 852.77 335.502L858.359 341.303C859.473 339.639 860.369 337.793 861.049 335.766ZM851.557 334.184C854.627 332.906 856.162 331.236 856.162 329.174C856.162 328.178 855.811 327.346 855.107 326.678C854.404 326.01 853.52 325.676 852.453 325.676C851.352 325.676 850.426 326.016 849.676 326.695C848.938 327.363 848.568 328.189 848.568 329.174C848.568 330.697 849.564 332.367 851.557 334.184ZM857.27 342.814L851.047 336.328C849.219 337.113 847.877 337.963 847.021 338.877C846.178 339.791 845.756 340.91 845.756 342.234C845.756 343.594 846.172 344.654 847.004 345.416C847.848 346.178 849.014 346.559 850.502 346.559C852.963 346.559 855.219 345.311 857.27 342.814ZM738.125 364.443H744.893C747.482 364.443 749.463 365.023 750.834 366.184C752.217 367.344 752.908 368.926 752.908 370.93C752.908 372.957 752.211 374.562 750.816 375.746C749.434 376.93 747.4 377.521 744.717 377.521H740.023V389H738.125V364.443ZM740.023 366.025V375.939H744.594C746.645 375.939 748.203 375.506 749.27 374.639C750.336 373.771 750.869 372.547 750.869 370.965C750.869 369.453 750.348 368.252 749.305 367.361C748.262 366.471 746.768 366.025 744.822 366.025H740.023ZM767.094 374.428L766.092 376.045C764.744 374.814 763.66 374.199 762.84 374.199C761.223 374.199 759.494 375.746 757.654 378.84V389H755.932V372.828H757.654V377.082H757.725C759.658 374.035 761.545 372.512 763.385 372.512C764.439 372.512 765.676 373.15 767.094 374.428ZM775.408 372.512C777.752 372.512 779.703 373.314 781.262 374.92C782.832 376.525 783.617 378.529 783.617 380.932C783.617 383.322 782.832 385.32 781.262 386.926C779.703 388.52 777.752 389.316 775.408 389.316C773.064 389.316 771.102 388.52 769.52 386.926C767.949 385.32 767.164 383.322 767.164 380.932C767.164 378.529 767.949 376.525 769.52 374.92C771.102 373.314 773.064 372.512 775.408 372.512ZM775.408 387.629C777.225 387.629 778.742 386.996 779.961 385.73C781.18 384.453 781.789 382.854 781.789 380.932C781.789 379.021 781.174 377.422 779.943 376.133C778.725 374.844 777.213 374.199 775.408 374.199C773.58 374.199 772.051 374.838 770.82 376.115C769.602 377.393 768.992 378.998 768.992 380.932C768.992 382.854 769.602 384.453 770.82 385.73C772.051 386.996 773.58 387.629 775.408 387.629ZM798.805 373.303V375.219C797.258 374.539 795.857 374.199 794.604 374.199C792.799 374.199 791.328 374.826 790.191 376.08C789.066 377.334 788.504 378.963 788.504 380.967C788.504 383.006 789.066 384.629 790.191 385.836C791.328 387.031 792.846 387.629 794.744 387.629C796.127 387.629 797.58 387.318 799.104 386.697V388.49C797.486 389.041 795.986 389.316 794.604 389.316C792.236 389.316 790.32 388.566 788.855 387.066C787.402 385.566 786.676 383.598 786.676 381.16C786.676 378.617 787.408 376.543 788.873 374.938C790.35 373.32 792.23 372.512 794.516 372.512C795.77 372.512 797.199 372.775 798.805 373.303ZM816.189 380.316H803.445C803.41 380.598 803.393 380.879 803.393 381.16C803.393 382.965 804.037 384.494 805.326 385.748C806.615 387.002 808.139 387.629 809.896 387.629C811.947 387.629 813.951 386.826 815.908 385.221V387.172C814.057 388.602 811.982 389.316 809.686 389.316C807.354 389.316 805.426 388.508 803.902 386.891C802.379 385.273 801.617 383.217 801.617 380.721C801.617 378.354 802.32 376.396 803.727 374.85C805.133 373.291 806.902 372.512 809.035 372.512C811.039 372.512 812.732 373.215 814.115 374.621C815.498 376.016 816.189 377.914 816.189 380.316ZM803.674 378.928H814.15C813.541 375.775 811.836 374.199 809.035 374.199C807.711 374.199 806.562 374.615 805.59 375.447C804.629 376.268 803.99 377.428 803.674 378.928ZM833.609 364.443V389H831.869V387.734C830.393 388.789 828.799 389.316 827.088 389.316C824.791 389.316 822.852 388.508 821.27 386.891C819.699 385.262 818.914 383.264 818.914 380.896C818.914 378.494 819.688 376.496 821.234 374.902C822.793 373.309 824.744 372.512 827.088 372.512C828.576 372.512 830.17 372.945 831.869 373.812V364.443H833.609ZM831.869 386.152V375.711C830.322 374.703 828.752 374.199 827.158 374.199C825.295 374.199 823.76 374.82 822.553 376.062C821.346 377.293 820.742 378.869 820.742 380.791C820.742 382.748 821.387 384.377 822.676 385.678C823.965 386.979 825.576 387.629 827.51 387.629C829.01 387.629 830.463 387.137 831.869 386.152ZM849.43 389V386.328H849.359C848.609 387.406 847.836 388.174 847.039 388.631C846.254 389.088 845.252 389.316 844.033 389.316C842.299 389.316 840.863 388.754 839.727 387.629C838.59 386.504 838.021 384.91 838.021 382.848V372.828H839.744V382.812C839.744 384.312 840.154 385.49 840.975 386.346C841.795 387.201 842.861 387.629 844.174 387.629C845.299 387.629 846.254 387.371 847.039 386.855C847.836 386.34 848.633 385.449 849.43 384.184V372.828H851.152V389H849.43ZM866.867 374.428L865.865 376.045C864.518 374.814 863.434 374.199 862.613 374.199C860.996 374.199 859.268 375.746 857.428 378.84V389H855.705V372.828H857.428V377.082H857.498C859.432 374.035 861.318 372.512 863.158 372.512C864.213 372.512 865.449 373.15 866.867 374.428ZM881.439 380.316H868.695C868.66 380.598 868.643 380.879 868.643 381.16C868.643 382.965 869.287 384.494 870.576 385.748C871.865 387.002 873.389 387.629 875.146 387.629C877.197 387.629 879.201 386.826 881.158 385.221V387.172C879.307 388.602 877.232 389.316 874.936 389.316C872.604 389.316 870.676 388.508 869.152 386.891C867.629 385.273 866.867 383.217 866.867 380.721C866.867 378.354 867.57 376.396 868.977 374.85C870.383 373.291 872.152 372.512 874.285 372.512C876.289 372.512 877.982 373.215 879.365 374.621C880.748 376.016 881.439 377.914 881.439 380.316ZM868.924 378.928H879.4C878.791 375.775 877.086 374.199 874.285 374.199C872.961 374.199 871.812 374.615 870.84 375.447C869.879 376.268 869.24 377.428 868.924 378.928ZM766.373 416.852L775.725 405.443H777.641V430H775.725V408.221L766.373 419.699L757.004 408.221V430H755.105V405.443H757.004L766.373 416.852ZM795.605 427.188V428.629C794.117 429.754 793.027 430.316 792.336 430.316C791.938 430.316 791.662 430.188 791.51 429.93C791.357 429.66 791.246 429.121 791.176 428.312C789.477 429.648 787.789 430.316 786.113 430.316C784.895 430.316 783.863 429.918 783.02 429.121C782.176 428.324 781.754 427.357 781.754 426.221C781.754 424.463 782.568 423.08 784.197 422.072C785.826 421.053 788.152 420.467 791.176 420.314V418.258C791.176 416.055 789.98 414.953 787.59 414.953C786.066 414.953 784.42 415.639 782.65 417.01V415.234C784.479 414.086 786.219 413.512 787.871 413.512C789.336 413.512 790.543 413.875 791.492 414.602C792.441 415.316 792.916 416.359 792.916 417.73V427.803C792.916 428.354 793.045 428.629 793.303 428.629C793.631 428.629 794.398 428.148 795.605 427.188ZM791.176 426.801V421.756C788.961 421.674 787.121 422.066 785.656 422.934C784.203 423.789 783.477 424.885 783.477 426.221C783.477 426.971 783.781 427.604 784.391 428.119C785 428.635 785.762 428.893 786.676 428.893C788.152 428.893 789.652 428.195 791.176 426.801ZM799.771 413.828V416.641H799.842C801.189 414.555 802.965 413.512 805.168 413.512C806.996 413.512 808.455 414.098 809.545 415.27C810.635 416.441 811.18 418.064 811.18 420.139V430H809.457V420.789C809.457 417.062 807.992 415.199 805.062 415.199C802.918 415.199 801.154 416.354 799.771 418.662V430H798.049V413.828H799.771ZM826.754 430V427.328H826.684C825.934 428.406 825.16 429.174 824.363 429.631C823.578 430.088 822.576 430.316 821.357 430.316C819.623 430.316 818.188 429.754 817.051 428.629C815.914 427.504 815.346 425.91 815.346 423.848V413.828H817.068V423.812C817.068 425.312 817.479 426.49 818.299 427.346C819.119 428.201 820.186 428.629 821.498 428.629C822.623 428.629 823.578 428.371 824.363 427.855C825.16 427.34 825.957 426.449 826.754 425.184V413.828H828.477V430H826.754ZM845.914 427.188V428.629C844.426 429.754 843.336 430.316 842.645 430.316C842.246 430.316 841.971 430.188 841.818 429.93C841.666 429.66 841.555 429.121 841.484 428.312C839.785 429.648 838.098 430.316 836.422 430.316C835.203 430.316 834.172 429.918 833.328 429.121C832.484 428.324 832.062 427.357 832.062 426.221C832.062 424.463 832.877 423.08 834.506 422.072C836.135 421.053 838.461 420.467 841.484 420.314V418.258C841.484 416.055 840.289 414.953 837.898 414.953C836.375 414.953 834.729 415.639 832.959 417.01V415.234C834.787 414.086 836.527 413.512 838.18 413.512C839.645 413.512 840.852 413.875 841.801 414.602C842.75 415.316 843.225 416.359 843.225 417.73V427.803C843.225 428.354 843.354 428.629 843.611 428.629C843.939 428.629 844.707 428.148 845.914 427.188ZM841.484 426.801V421.756C839.27 421.674 837.43 422.066 835.965 422.934C834.512 423.789 833.785 424.885 833.785 426.221C833.785 426.971 834.09 427.604 834.699 428.119C835.309 428.635 836.07 428.893 836.984 428.893C838.461 428.893 839.961 428.195 841.484 426.801ZM850.379 405.443V430H848.639V405.443H850.379ZM864.037 414.883V416.746C862.396 415.645 860.92 415.094 859.607 415.094C858.635 415.094 857.814 415.357 857.146 415.885C856.479 416.412 856.145 417.062 856.145 417.836C856.145 418.387 856.344 418.896 856.742 419.365C857.152 419.822 858.271 420.402 860.1 421.105C861.939 421.809 863.141 422.541 863.703 423.303C864.266 424.064 864.547 424.914 864.547 425.852C864.547 427.105 864.037 428.166 863.018 429.033C861.998 429.889 860.738 430.316 859.238 430.316C857.609 430.316 855.992 429.824 854.387 428.84V427.152C856.297 428.137 857.99 428.629 859.467 428.629C860.463 428.629 861.277 428.365 861.91 427.838C862.555 427.311 862.877 426.637 862.877 425.816C862.877 425.254 862.666 424.738 862.244 424.27C861.834 423.789 860.709 423.186 858.869 422.459C857.041 421.732 855.852 421.018 855.301 420.314C854.762 419.6 854.492 418.809 854.492 417.941C854.492 416.711 854.996 415.668 856.004 414.812C857.023 413.945 858.26 413.512 859.713 413.512C861.037 413.512 862.479 413.969 864.037 414.883Z" fill="#4A2B7E"/>
<circle cx="809" cy="238" r="68" fill="#9984BC"/>
<path d="M15.9336 550.443H22.7012C25.291 550.443 27.2715 551.023 28.6426 552.184C30.0254 553.344 30.7168 554.926 30.7168 556.93C30.7168 558.957 30.0195 560.562 28.625 561.746C27.2422 562.93 25.209 563.521 22.5254 563.521H17.832V575H15.9336V550.443ZM17.832 552.025V561.939H22.4023C24.4531 561.939 26.0117 561.506 27.0781 560.639C28.1445 559.771 28.6777 558.547 28.6777 556.965C28.6777 555.453 28.1562 554.252 27.1133 553.361C26.0703 552.471 24.5762 552.025 22.6309 552.025H17.832ZM39.4355 558.512C41.7793 558.512 43.7305 559.314 45.2891 560.92C46.8594 562.525 47.6445 564.529 47.6445 566.932C47.6445 569.322 46.8594 571.32 45.2891 572.926C43.7305 574.52 41.7793 575.316 39.4355 575.316C37.0918 575.316 35.1289 574.52 33.5469 572.926C31.9766 571.32 31.1914 569.322 31.1914 566.932C31.1914 564.529 31.9766 562.525 33.5469 560.92C35.1289 559.314 37.0918 558.512 39.4355 558.512ZM39.4355 573.629C41.252 573.629 42.7695 572.996 43.9883 571.73C45.207 570.453 45.8164 568.854 45.8164 566.932C45.8164 565.021 45.2012 563.422 43.9707 562.133C42.752 560.844 41.2402 560.199 39.4355 560.199C37.6074 560.199 36.0781 560.838 34.8477 562.115C33.6289 563.393 33.0195 564.998 33.0195 566.932C33.0195 568.854 33.6289 570.453 34.8477 571.73C36.0781 572.996 37.6074 573.629 39.4355 573.629ZM74.1172 558.828L67.1387 575.316H66.3125L61.3379 562.186L56.3281 575.316H55.5371L48.6289 558.828H50.3164L55.8359 572.012L60.8984 558.828H61.8477L66.7695 572.012L72.3945 558.828H74.1172ZM89.5684 566.316H76.8242C76.7891 566.598 76.7715 566.879 76.7715 567.16C76.7715 568.965 77.416 570.494 78.7051 571.748C79.9941 573.002 81.5176 573.629 83.2754 573.629C85.3262 573.629 87.3301 572.826 89.2871 571.221V573.172C87.4355 574.602 85.3613 575.316 83.0645 575.316C80.7324 575.316 78.8047 574.508 77.2812 572.891C75.7578 571.273 74.9961 569.217 74.9961 566.721C74.9961 564.354 75.6992 562.396 77.1055 560.85C78.5117 559.291 80.2812 558.512 82.4141 558.512C84.418 558.512 86.1113 559.215 87.4941 560.621C88.877 562.016 89.5684 563.914 89.5684 566.316ZM77.0527 564.928H87.5293C86.9199 561.775 85.2148 560.199 82.4141 560.199C81.0898 560.199 79.9414 560.615 78.9688 561.447C78.0078 562.268 77.3691 563.428 77.0527 564.928ZM104.246 560.428L103.244 562.045C101.896 560.814 100.812 560.199 99.9922 560.199C98.375 560.199 96.6465 561.746 94.8066 564.84V575H93.084V558.828H94.8066V563.082H94.877C96.8105 560.035 98.6973 558.512 100.537 558.512C101.592 558.512 102.828 559.15 104.246 560.428ZM107.709 558.828V559.742C109.338 558.922 110.961 558.512 112.578 558.512C114.875 558.512 116.779 559.303 118.291 560.885C119.803 562.467 120.559 564.459 120.559 566.861C120.559 569.229 119.779 571.232 118.221 572.873C116.662 574.502 114.758 575.316 112.508 575.316C110.949 575.316 109.35 574.912 107.709 574.104V583.279H105.986V558.828H107.709ZM107.709 561.395V572.416C109.174 573.225 110.662 573.629 112.174 573.629C114.107 573.629 115.672 573.02 116.867 571.801C118.062 570.582 118.66 568.982 118.66 567.002C118.66 565.033 118.027 563.41 116.762 562.133C115.496 560.844 113.896 560.199 111.963 560.199C110.58 560.199 109.162 560.598 107.709 561.395ZM131.826 558.512C134.17 558.512 136.121 559.314 137.68 560.92C139.25 562.525 140.035 564.529 140.035 566.932C140.035 569.322 139.25 571.32 137.68 572.926C136.121 574.52 134.17 575.316 131.826 575.316C129.482 575.316 127.52 574.52 125.938 572.926C124.367 571.32 123.582 569.322 123.582 566.932C123.582 564.529 124.367 562.525 125.938 560.92C127.52 559.314 129.482 558.512 131.826 558.512ZM131.826 573.629C133.643 573.629 135.16 572.996 136.379 571.73C137.598 570.453 138.207 568.854 138.207 566.932C138.207 565.021 137.592 563.422 136.361 562.133C135.143 560.844 133.631 560.199 131.826 560.199C129.998 560.199 128.469 560.838 127.238 562.115C126.02 563.393 125.41 564.998 125.41 566.932C125.41 568.854 126.02 570.453 127.238 571.73C128.469 572.996 129.998 573.629 131.826 573.629ZM145.836 550.443V553.396H144.096V550.443H145.836ZM145.836 558.828V575H144.096V558.828H145.836ZM152.322 558.828V561.641H152.393C153.74 559.555 155.516 558.512 157.719 558.512C159.547 558.512 161.006 559.098 162.096 560.27C163.186 561.441 163.73 563.064 163.73 565.139V575H162.008V565.789C162.008 562.062 160.543 560.199 157.613 560.199C155.469 560.199 153.705 561.354 152.322 563.662V575H150.6V558.828H152.322ZM171.412 553.467V558.828H175.947V560.234H171.412V569.85C171.412 571.396 171.535 572.416 171.781 572.908C172.039 573.389 172.719 573.629 173.82 573.629C174.664 573.629 175.648 573.365 176.773 572.838V574.49C175.637 575.041 174.523 575.316 173.434 575.316C172.367 575.316 171.477 575.012 170.762 574.402C170.047 573.793 169.689 572.949 169.689 571.871V560.234H165.33V558.828H169.689V554.979L170.867 553.467H171.412ZM3.27734 591.443H10.0449C12.6348 591.443 14.6152 592.023 15.9863 593.184C17.3691 594.344 18.0605 595.926 18.0605 597.93C18.0605 599.957 17.3633 601.562 15.9688 602.746C14.5859 603.93 12.5527 604.521 9.86914 604.521H5.17578V616H3.27734V591.443ZM5.17578 593.025V602.939H9.74609C11.7969 602.939 13.3555 602.506 14.4219 601.639C15.4883 600.771 16.0215 599.547 16.0215 597.965C16.0215 596.453 15.5 595.252 14.457 594.361C13.4141 593.471 11.9199 593.025 9.97461 593.025H5.17578ZM32.2461 601.428L31.2441 603.045C29.8965 601.814 28.8125 601.199 27.9922 601.199C26.375 601.199 24.6465 602.746 22.8066 605.84V616H21.084V599.828H22.8066V604.082H22.877C24.8105 601.035 26.6973 599.512 28.5371 599.512C29.5918 599.512 30.8281 600.15 32.2461 601.428ZM46.8184 607.316H34.0742C34.0391 607.598 34.0215 607.879 34.0215 608.16C34.0215 609.965 34.666 611.494 35.9551 612.748C37.2441 614.002 38.7676 614.629 40.5254 614.629C42.5762 614.629 44.5801 613.826 46.5371 612.221V614.172C44.6855 615.602 42.6113 616.316 40.3145 616.316C37.9824 616.316 36.0547 615.508 34.5312 613.891C33.0078 612.273 32.2461 610.217 32.2461 607.721C32.2461 605.354 32.9492 603.396 34.3555 601.85C35.7617 600.291 37.5312 599.512 39.6641 599.512C41.668 599.512 43.3613 600.215 44.7441 601.621C46.127 603.016 46.8184 604.914 46.8184 607.316ZM34.3027 605.928H44.7793C44.1699 602.775 42.4648 601.199 39.6641 601.199C38.3398 601.199 37.1914 601.615 36.2188 602.447C35.2578 603.268 34.6191 604.428 34.3027 605.928ZM59.1934 600.883V602.746C57.5527 601.645 56.0762 601.094 54.7637 601.094C53.791 601.094 52.9707 601.357 52.3027 601.885C51.6348 602.412 51.3008 603.062 51.3008 603.836C51.3008 604.387 51.5 604.896 51.8984 605.365C52.3086 605.822 53.4277 606.402 55.2559 607.105C57.0957 607.809 58.2969 608.541 58.8594 609.303C59.4219 610.064 59.7031 610.914 59.7031 611.852C59.7031 613.105 59.1934 614.166 58.1738 615.033C57.1543 615.889 55.8945 616.316 54.3945 616.316C52.7656 616.316 51.1484 615.824 49.543 614.84V613.152C51.4531 614.137 53.1465 614.629 54.623 614.629C55.6191 614.629 56.4336 614.365 57.0664 613.838C57.7109 613.311 58.0332 612.637 58.0332 611.816C58.0332 611.254 57.8223 610.738 57.4004 610.27C56.9902 609.789 55.8652 609.186 54.0254 608.459C52.1973 607.732 51.0078 607.018 50.457 606.314C49.918 605.6 49.6484 604.809 49.6484 603.941C49.6484 602.711 50.1523 601.668 51.1602 600.812C52.1797 599.945 53.416 599.512 54.8691 599.512C56.1934 599.512 57.6348 599.969 59.1934 600.883ZM76.8418 607.316H64.0977C64.0625 607.598 64.0449 607.879 64.0449 608.16C64.0449 609.965 64.6895 611.494 65.9785 612.748C67.2676 614.002 68.791 614.629 70.5488 614.629C72.5996 614.629 74.6035 613.826 76.5605 612.221V614.172C74.709 615.602 72.6348 616.316 70.3379 616.316C68.0059 616.316 66.0781 615.508 64.5547 613.891C63.0312 612.273 62.2695 610.217 62.2695 607.721C62.2695 605.354 62.9727 603.396 64.3789 601.85C65.7852 600.291 67.5547 599.512 69.6875 599.512C71.6914 599.512 73.3848 600.215 74.7676 601.621C76.1504 603.016 76.8418 604.914 76.8418 607.316ZM64.3262 605.928H74.8027C74.1934 602.775 72.4883 601.199 69.6875 601.199C68.3633 601.199 67.2148 601.615 66.2422 602.447C65.2812 603.268 64.6426 604.428 64.3262 605.928ZM82.0449 599.828V602.641H82.1152C83.4629 600.555 85.2383 599.512 87.4414 599.512C89.2695 599.512 90.7285 600.098 91.8184 601.27C92.9082 602.441 93.4531 604.064 93.4531 606.139V616H91.7305V606.789C91.7305 603.062 90.2656 601.199 87.3359 601.199C85.1914 601.199 83.4277 602.354 82.0449 604.662V616H80.3223V599.828H82.0449ZM101.135 594.467V599.828H105.67V601.234H101.135V610.85C101.135 612.396 101.258 613.416 101.504 613.908C101.762 614.389 102.441 614.629 103.543 614.629C104.387 614.629 105.371 614.365 106.496 613.838V615.49C105.359 616.041 104.246 616.316 103.156 616.316C102.09 616.316 101.199 616.012 100.484 615.402C99.7695 614.793 99.4121 613.949 99.4121 612.871V601.234H95.0527V599.828H99.4121V595.979L100.59 594.467H101.135ZM121.754 613.188V614.629C120.266 615.754 119.176 616.316 118.484 616.316C118.086 616.316 117.811 616.188 117.658 615.93C117.506 615.66 117.395 615.121 117.324 614.312C115.625 615.648 113.938 616.316 112.262 616.316C111.043 616.316 110.012 615.918 109.168 615.121C108.324 614.324 107.902 613.357 107.902 612.221C107.902 610.463 108.717 609.08 110.346 608.072C111.975 607.053 114.301 606.467 117.324 606.314V604.258C117.324 602.055 116.129 600.953 113.738 600.953C112.215 600.953 110.568 601.639 108.799 603.01V601.234C110.627 600.086 112.367 599.512 114.02 599.512C115.484 599.512 116.691 599.875 117.641 600.602C118.59 601.316 119.064 602.359 119.064 603.73V613.803C119.064 614.354 119.193 614.629 119.451 614.629C119.779 614.629 120.547 614.148 121.754 613.188ZM117.324 612.801V607.756C115.109 607.674 113.27 608.066 111.805 608.934C110.352 609.789 109.625 610.885 109.625 612.221C109.625 612.971 109.93 613.604 110.539 614.119C111.148 614.635 111.91 614.893 112.824 614.893C114.301 614.893 115.801 614.195 117.324 612.801ZM127.361 594.467V599.828H131.896V601.234H127.361V610.85C127.361 612.396 127.484 613.416 127.73 613.908C127.988 614.389 128.668 614.629 129.77 614.629C130.613 614.629 131.598 614.365 132.723 613.838V615.49C131.586 616.041 130.473 616.316 129.383 616.316C128.316 616.316 127.426 616.012 126.711 615.402C125.996 614.793 125.639 613.949 125.639 612.871V601.234H121.279V599.828H125.639V595.979L126.816 594.467H127.361ZM137.082 591.443V594.396H135.342V591.443H137.082ZM137.082 599.828V616H135.342V599.828H137.082ZM149.369 599.512C151.713 599.512 153.664 600.314 155.223 601.92C156.793 603.525 157.578 605.529 157.578 607.932C157.578 610.322 156.793 612.32 155.223 613.926C153.664 615.52 151.713 616.316 149.369 616.316C147.025 616.316 145.062 615.52 143.48 613.926C141.91 612.32 141.125 610.322 141.125 607.932C141.125 605.529 141.91 603.525 143.48 601.92C145.062 600.314 147.025 599.512 149.369 599.512ZM149.369 614.629C151.186 614.629 152.703 613.996 153.922 612.73C155.141 611.453 155.75 609.854 155.75 607.932C155.75 606.021 155.135 604.422 153.904 603.133C152.686 601.844 151.174 601.199 149.369 601.199C147.541 601.199 146.012 601.838 144.781 603.115C143.562 604.393 142.953 605.998 142.953 607.932C142.953 609.854 143.562 611.453 144.781 612.73C146.012 613.996 147.541 614.629 149.369 614.629ZM163.08 599.828V602.641H163.15C164.498 600.555 166.273 599.512 168.477 599.512C170.305 599.512 171.764 600.098 172.854 601.27C173.943 602.441 174.488 604.064 174.488 606.139V616H172.766V606.789C172.766 603.062 171.301 601.199 168.371 601.199C166.227 601.199 164.463 602.354 163.08 604.662V616H161.357V599.828H163.08ZM187.9 600.883V602.746C186.26 601.645 184.783 601.094 183.471 601.094C182.498 601.094 181.678 601.357 181.01 601.885C180.342 602.412 180.008 603.062 180.008 603.836C180.008 604.387 180.207 604.896 180.605 605.365C181.016 605.822 182.135 606.402 183.963 607.105C185.803 607.809 187.004 608.541 187.566 609.303C188.129 610.064 188.41 610.914 188.41 611.852C188.41 613.105 187.9 614.166 186.881 615.033C185.861 615.889 184.602 616.316 183.102 616.316C181.473 616.316 179.855 615.824 178.25 614.84V613.152C180.16 614.137 181.854 614.629 183.33 614.629C184.326 614.629 185.141 614.365 185.773 613.838C186.418 613.311 186.74 612.637 186.74 611.816C186.74 611.254 186.529 610.738 186.107 610.27C185.697 609.789 184.572 609.186 182.732 608.459C180.904 607.732 179.715 607.018 179.164 606.314C178.625 605.6 178.355 604.809 178.355 603.941C178.355 602.711 178.859 601.668 179.867 600.812C180.887 599.945 182.123 599.512 183.576 599.512C184.9 599.512 186.342 599.969 187.9 600.883Z" fill="#4A2B7E"/>
<circle cx="95" cy="462" r="68" fill="#9984BC"/>
<path d="M507.504 156.674V158.766C505.371 157.512 503.537 156.885 502.002 156.885C500.525 156.885 499.289 157.336 498.293 158.238C497.309 159.129 496.816 160.236 496.816 161.561C496.816 162.51 497.109 163.365 497.695 164.127C498.281 164.889 499.506 165.621 501.369 166.324C503.232 167.027 504.592 167.613 505.447 168.082C506.303 168.551 507.029 169.23 507.627 170.121C508.225 171.012 508.523 172.166 508.523 173.584C508.523 175.471 507.832 177.064 506.449 178.365C505.066 179.666 503.379 180.316 501.387 180.316C499.348 180.316 497.25 179.602 495.094 178.172V175.939C497.473 177.686 499.535 178.559 501.281 178.559C502.734 178.559 503.959 178.09 504.955 177.152C505.963 176.203 506.467 175.043 506.467 173.672C506.467 172.629 506.156 171.691 505.535 170.859C504.914 170.016 503.654 169.23 501.756 168.504C499.857 167.777 498.498 167.191 497.678 166.746C496.869 166.301 496.178 165.668 495.604 164.848C495.041 164.016 494.76 162.949 494.76 161.648C494.76 159.844 495.451 158.309 496.834 157.043C498.217 155.766 499.881 155.127 501.826 155.127C503.736 155.127 505.629 155.643 507.504 156.674ZM514.008 163.828V164.742C515.637 163.922 517.26 163.512 518.877 163.512C521.174 163.512 523.078 164.303 524.59 165.885C526.102 167.467 526.857 169.459 526.857 171.861C526.857 174.229 526.078 176.232 524.52 177.873C522.961 179.502 521.057 180.316 518.807 180.316C517.248 180.316 515.648 179.912 514.008 179.104V188.279H512.285V163.828H514.008ZM514.008 166.395V177.416C515.473 178.225 516.961 178.629 518.473 178.629C520.406 178.629 521.971 178.02 523.166 176.801C524.361 175.582 524.959 173.982 524.959 172.002C524.959 170.033 524.326 168.41 523.061 167.133C521.795 165.844 520.195 165.199 518.262 165.199C516.879 165.199 515.461 165.598 514.008 166.395ZM541.799 165.428L540.797 167.045C539.449 165.814 538.365 165.199 537.545 165.199C535.928 165.199 534.199 166.746 532.359 169.84V180H530.637V163.828H532.359V168.082H532.43C534.363 165.035 536.25 163.512 538.09 163.512C539.145 163.512 540.381 164.15 541.799 165.428ZM556.371 171.316H543.627C543.592 171.598 543.574 171.879 543.574 172.16C543.574 173.965 544.219 175.494 545.508 176.748C546.797 178.002 548.32 178.629 550.078 178.629C552.129 178.629 554.133 177.826 556.09 176.221V178.172C554.238 179.602 552.164 180.316 549.867 180.316C547.535 180.316 545.607 179.508 544.084 177.891C542.561 176.273 541.799 174.217 541.799 171.721C541.799 169.354 542.502 167.396 543.908 165.85C545.314 164.291 547.084 163.512 549.217 163.512C551.221 163.512 552.914 164.215 554.297 165.621C555.68 167.016 556.371 168.914 556.371 171.316ZM543.855 169.928H554.332C553.723 166.775 552.018 165.199 549.217 165.199C547.893 165.199 546.744 165.615 545.771 166.447C544.811 167.268 544.172 168.428 543.855 169.928ZM572.771 177.188V178.629C571.283 179.754 570.193 180.316 569.502 180.316C569.104 180.316 568.828 180.188 568.676 179.93C568.523 179.66 568.412 179.121 568.342 178.312C566.643 179.648 564.955 180.316 563.279 180.316C562.061 180.316 561.029 179.918 560.186 179.121C559.342 178.324 558.92 177.357 558.92 176.221C558.92 174.463 559.734 173.08 561.363 172.072C562.992 171.053 565.318 170.467 568.342 170.314V168.258C568.342 166.055 567.146 164.953 564.756 164.953C563.232 164.953 561.586 165.639 559.816 167.01V165.234C561.645 164.086 563.385 163.512 565.037 163.512C566.502 163.512 567.709 163.875 568.658 164.602C569.607 165.316 570.082 166.359 570.082 167.73V177.803C570.082 178.354 570.211 178.629 570.469 178.629C570.797 178.629 571.564 178.148 572.771 177.188ZM568.342 176.801V171.756C566.127 171.674 564.287 172.066 562.822 172.934C561.369 173.789 560.643 174.885 560.643 176.221C560.643 176.971 560.947 177.604 561.557 178.119C562.166 178.635 562.928 178.893 563.842 178.893C565.318 178.893 566.818 178.195 568.342 176.801ZM589.154 155.443V180H587.414V178.734C585.938 179.789 584.344 180.316 582.633 180.316C580.336 180.316 578.396 179.508 576.814 177.891C575.244 176.262 574.459 174.264 574.459 171.896C574.459 169.494 575.232 167.496 576.779 165.902C578.338 164.309 580.289 163.512 582.633 163.512C584.121 163.512 585.715 163.945 587.414 164.812V155.443H589.154ZM587.414 177.152V166.711C585.867 165.703 584.297 165.199 582.703 165.199C580.84 165.199 579.305 165.82 578.098 167.062C576.891 168.293 576.287 169.869 576.287 171.791C576.287 173.748 576.932 175.377 578.221 176.678C579.51 177.979 581.121 178.629 583.055 178.629C584.555 178.629 586.008 178.137 587.414 177.152ZM602.461 164.883V166.746C600.82 165.645 599.344 165.094 598.031 165.094C597.059 165.094 596.238 165.357 595.57 165.885C594.902 166.412 594.568 167.062 594.568 167.836C594.568 168.387 594.768 168.896 595.166 169.365C595.576 169.822 596.695 170.402 598.523 171.105C600.363 171.809 601.564 172.541 602.127 173.303C602.689 174.064 602.971 174.914 602.971 175.852C602.971 177.105 602.461 178.166 601.441 179.033C600.422 179.889 599.162 180.316 597.662 180.316C596.033 180.316 594.416 179.824 592.811 178.84V177.152C594.721 178.137 596.414 178.629 597.891 178.629C598.887 178.629 599.701 178.365 600.334 177.838C600.979 177.311 601.301 176.637 601.301 175.816C601.301 175.254 601.09 174.738 600.668 174.27C600.258 173.789 599.133 173.186 597.293 172.459C595.465 171.732 594.275 171.018 593.725 170.314C593.186 169.6 592.916 168.809 592.916 167.941C592.916 166.711 593.42 165.668 594.428 164.812C595.447 163.945 596.684 163.512 598.137 163.512C599.461 163.512 600.902 163.969 602.461 164.883ZM608.051 155.443V166.641H608.121C609.469 164.555 611.244 163.512 613.447 163.512C615.275 163.512 616.734 164.098 617.824 165.27C618.914 166.441 619.459 168.053 619.459 170.104V180H617.736V170.789C617.736 167.062 616.271 165.199 613.342 165.199C611.244 165.199 609.48 166.354 608.051 168.662V180H606.328V155.443H608.051ZM637.758 171.316H625.014C624.979 171.598 624.961 171.879 624.961 172.16C624.961 173.965 625.605 175.494 626.895 176.748C628.184 178.002 629.707 178.629 631.465 178.629C633.516 178.629 635.52 177.826 637.477 176.221V178.172C635.625 179.602 633.551 180.316 631.254 180.316C628.922 180.316 626.994 179.508 625.471 177.891C623.947 176.273 623.186 174.217 623.186 171.721C623.186 169.354 623.889 167.396 625.295 165.85C626.701 164.291 628.471 163.512 630.604 163.512C632.607 163.512 634.301 164.215 635.684 165.621C637.066 167.016 637.758 168.914 637.758 171.316ZM625.242 169.928H635.719C635.109 166.775 633.404 165.199 630.604 165.199C629.279 165.199 628.131 165.615 627.158 166.447C626.197 167.268 625.559 168.428 625.242 169.928ZM655.02 171.316H642.275C642.24 171.598 642.223 171.879 642.223 172.16C642.223 173.965 642.867 175.494 644.156 176.748C645.445 178.002 646.969 178.629 648.727 178.629C650.777 178.629 652.781 177.826 654.738 176.221V178.172C652.887 179.602 650.812 180.316 648.516 180.316C646.184 180.316 644.256 179.508 642.732 177.891C641.209 176.273 640.447 174.217 640.447 171.721C640.447 169.354 641.15 167.396 642.557 165.85C643.963 164.291 645.732 163.512 647.865 163.512C649.869 163.512 651.562 164.215 652.945 165.621C654.328 167.016 655.02 168.914 655.02 171.316ZM642.504 169.928H652.98C652.371 166.775 650.666 165.199 647.865 165.199C646.541 165.199 645.393 165.615 644.42 166.447C643.459 167.268 642.82 168.428 642.504 169.928ZM661.664 158.467V163.828H666.199V165.234H661.664V174.85C661.664 176.396 661.787 177.416 662.033 177.908C662.291 178.389 662.971 178.629 664.072 178.629C664.916 178.629 665.9 178.365 667.025 177.838V179.49C665.889 180.041 664.775 180.316 663.686 180.316C662.619 180.316 661.729 180.012 661.014 179.402C660.299 178.793 659.941 177.949 659.941 176.871V165.234H655.582V163.828H659.941V159.979L661.119 158.467H661.664ZM678.258 164.883V166.746C676.617 165.645 675.141 165.094 673.828 165.094C672.855 165.094 672.035 165.357 671.367 165.885C670.699 166.412 670.365 167.062 670.365 167.836C670.365 168.387 670.564 168.896 670.963 169.365C671.373 169.822 672.492 170.402 674.32 171.105C676.16 171.809 677.361 172.541 677.924 173.303C678.486 174.064 678.768 174.914 678.768 175.852C678.768 177.105 678.258 178.166 677.238 179.033C676.219 179.889 674.959 180.316 673.459 180.316C671.83 180.316 670.213 179.824 668.607 178.84V177.152C670.518 178.137 672.211 178.629 673.688 178.629C674.684 178.629 675.498 178.365 676.131 177.838C676.775 177.311 677.098 176.637 677.098 175.816C677.098 175.254 676.887 174.738 676.465 174.27C676.055 173.789 674.93 173.186 673.09 172.459C671.262 171.732 670.072 171.018 669.521 170.314C668.982 169.6 668.713 168.809 668.713 167.941C668.713 166.711 669.217 165.668 670.225 164.812C671.244 163.945 672.48 163.512 673.934 163.512C675.258 163.512 676.699 163.969 678.258 164.883Z" fill="#4A2B7E"/>
<circle cx="587" cy="68" r="68" fill="#9984BC"/>
<path d="M517.943 502.443V527H516.361L497.711 505.537V527H495.812V502.443H497.43L516.045 523.906V502.443H517.943ZM536.787 518.316H524.043C524.008 518.598 523.99 518.879 523.99 519.16C523.99 520.965 524.635 522.494 525.924 523.748C527.213 525.002 528.736 525.629 530.494 525.629C532.545 525.629 534.549 524.826 536.506 523.221V525.172C534.654 526.602 532.58 527.316 530.283 527.316C527.951 527.316 526.023 526.508 524.5 524.891C522.977 523.273 522.215 521.217 522.215 518.721C522.215 516.354 522.918 514.396 524.324 512.85C525.73 511.291 527.5 510.512 529.633 510.512C531.637 510.512 533.33 511.215 534.713 512.621C536.096 514.016 536.787 515.914 536.787 518.316ZM524.271 516.928H534.748C534.139 513.775 532.434 512.199 529.633 512.199C528.309 512.199 527.16 512.615 526.188 513.447C525.227 514.268 524.588 515.428 524.271 516.928ZM563.523 510.828L556.545 527.316H555.719L550.744 514.186L545.734 527.316H544.943L538.035 510.828H539.723L545.242 524.012L550.305 510.828H551.254L556.176 524.012L561.801 510.828H563.523ZM574.65 511.883V513.746C573.01 512.645 571.533 512.094 570.221 512.094C569.248 512.094 568.428 512.357 567.76 512.885C567.092 513.412 566.758 514.062 566.758 514.836C566.758 515.387 566.957 515.896 567.355 516.365C567.766 516.822 568.885 517.402 570.713 518.105C572.553 518.809 573.754 519.541 574.316 520.303C574.879 521.064 575.16 521.914 575.16 522.852C575.16 524.105 574.65 525.166 573.631 526.033C572.611 526.889 571.352 527.316 569.852 527.316C568.223 527.316 566.605 526.824 565 525.84V524.152C566.91 525.137 568.604 525.629 570.08 525.629C571.076 525.629 571.891 525.365 572.523 524.838C573.168 524.311 573.49 523.637 573.49 522.816C573.49 522.254 573.279 521.738 572.857 521.27C572.447 520.789 571.322 520.186 569.482 519.459C567.654 518.732 566.465 518.018 565.914 517.314C565.375 516.6 565.105 515.809 565.105 514.941C565.105 513.711 565.609 512.668 566.617 511.812C567.637 510.945 568.873 510.512 570.326 510.512C571.65 510.512 573.092 510.969 574.65 511.883ZM580.539 502.443V527H578.799V502.443H580.539ZM599.084 518.316H586.34C586.305 518.598 586.287 518.879 586.287 519.16C586.287 520.965 586.932 522.494 588.221 523.748C589.51 525.002 591.033 525.629 592.791 525.629C594.842 525.629 596.846 524.826 598.803 523.221V525.172C596.951 526.602 594.877 527.316 592.58 527.316C590.248 527.316 588.32 526.508 586.797 524.891C585.273 523.273 584.512 521.217 584.512 518.721C584.512 516.354 585.215 514.396 586.621 512.85C588.027 511.291 589.797 510.512 591.93 510.512C593.934 510.512 595.627 511.215 597.01 512.621C598.393 514.016 599.084 515.914 599.084 518.316ZM586.568 516.928H597.045C596.436 513.775 594.73 512.199 591.93 512.199C590.605 512.199 589.457 512.615 588.484 513.447C587.523 514.268 586.885 515.428 586.568 516.928ZM605.729 505.467V510.828H610.264V512.234H605.729V521.85C605.729 523.396 605.852 524.416 606.098 524.908C606.355 525.389 607.035 525.629 608.137 525.629C608.98 525.629 609.965 525.365 611.09 524.838V526.49C609.953 527.041 608.84 527.316 607.75 527.316C606.684 527.316 605.793 527.012 605.078 526.402C604.363 525.793 604.006 524.949 604.006 523.871V512.234H599.646V510.828H604.006V506.979L605.184 505.467H605.729ZM616.592 505.467V510.828H621.127V512.234H616.592V521.85C616.592 523.396 616.715 524.416 616.961 524.908C617.219 525.389 617.898 525.629 619 525.629C619.844 525.629 620.828 525.365 621.953 524.838V526.49C620.816 527.041 619.703 527.316 618.613 527.316C617.547 527.316 616.656 527.012 615.941 526.402C615.227 525.793 614.869 524.949 614.869 523.871V512.234H610.51V510.828H614.869V506.979L616.047 505.467H616.592ZM638.072 518.316H625.328C625.293 518.598 625.275 518.879 625.275 519.16C625.275 520.965 625.92 522.494 627.209 523.748C628.498 525.002 630.021 525.629 631.779 525.629C633.83 525.629 635.834 524.826 637.791 523.221V525.172C635.939 526.602 633.865 527.316 631.568 527.316C629.236 527.316 627.309 526.508 625.785 524.891C624.262 523.273 623.5 521.217 623.5 518.721C623.5 516.354 624.203 514.396 625.609 512.85C627.016 511.291 628.785 510.512 630.918 510.512C632.922 510.512 634.615 511.215 635.998 512.621C637.381 514.016 638.072 515.914 638.072 518.316ZM625.557 516.928H636.033C635.424 513.775 633.719 512.199 630.918 512.199C629.594 512.199 628.445 512.615 627.473 513.447C626.512 514.268 625.873 515.428 625.557 516.928ZM652.75 512.428L651.748 514.045C650.4 512.814 649.316 512.199 648.496 512.199C646.879 512.199 645.15 513.746 643.311 516.84V527H641.588V510.828H643.311V515.082H643.381C645.314 512.035 647.201 510.512 649.041 510.512C650.096 510.512 651.332 511.15 652.75 512.428ZM663.877 511.883V513.746C662.236 512.645 660.76 512.094 659.447 512.094C658.475 512.094 657.654 512.357 656.986 512.885C656.318 513.412 655.984 514.062 655.984 514.836C655.984 515.387 656.184 515.896 656.582 516.365C656.992 516.822 658.111 517.402 659.939 518.105C661.779 518.809 662.98 519.541 663.543 520.303C664.105 521.064 664.387 521.914 664.387 522.852C664.387 524.105 663.877 525.166 662.857 526.033C661.838 526.889 660.578 527.316 659.078 527.316C657.449 527.316 655.832 526.824 654.227 525.84V524.152C656.137 525.137 657.83 525.629 659.307 525.629C660.303 525.629 661.117 525.365 661.75 524.838C662.395 524.311 662.717 523.637 662.717 522.816C662.717 522.254 662.506 521.738 662.084 521.27C661.674 520.789 660.549 520.186 658.709 519.459C656.881 518.732 655.691 518.018 655.141 517.314C654.602 516.6 654.332 515.809 654.332 514.941C654.332 513.711 654.836 512.668 655.844 511.812C656.863 510.945 658.1 510.512 659.553 510.512C660.877 510.512 662.318 510.969 663.877 511.883Z" fill="#4A2B7E"/>
<circle cx="580" cy="415" r="68" fill="#9984BC"/>
<circle cx="278" cy="213" r="153" fill="white"/>
<path d="M199.193 198.351V227H193.656V198.351H199.193ZM226.714 207.477C228.942 207.477 230.959 207.907 232.763 208.769V213.055C230.972 212.016 229.277 211.496 227.678 211.496C225.955 211.496 224.547 212.036 223.453 213.116C222.359 214.183 221.812 215.632 221.812 217.464C221.812 219.255 222.359 220.697 223.453 221.791C224.56 222.885 226.03 223.432 227.862 223.432C229.229 223.432 230.979 222.98 233.112 222.078V226.159C231.13 226.966 229.086 227.369 226.98 227.369C223.877 227.369 221.354 226.48 219.413 224.703C217.485 222.926 216.521 220.567 216.521 217.628C216.521 214.579 217.465 212.125 219.351 210.266C221.252 208.406 223.706 207.477 226.714 207.477ZM248.257 207.477C248.927 207.477 249.583 207.627 250.225 207.928C250.882 208.229 251.64 208.734 252.502 209.445L250.697 213.854C249.234 212.761 248.058 212.214 247.17 212.214C246.39 212.214 245.618 212.508 244.852 213.096C244.1 213.67 243.492 214.436 243.027 215.393C242.576 216.35 242.35 217.307 242.35 218.264V227H237.306V207.846H242.35V212.727H242.432C243.348 210.881 244.271 209.548 245.201 208.728C246.131 207.894 247.149 207.477 248.257 207.477ZM262.991 207.477C265.808 207.477 268.036 208.379 269.677 210.184C271.317 211.988 272.138 214.483 272.138 217.669V218.428H258.582C258.787 220.137 259.423 221.456 260.489 222.386C261.569 223.302 263.046 223.76 264.919 223.76C266.122 223.76 267.277 223.555 268.385 223.145C269.506 222.721 270.661 222.085 271.851 221.237V224.99C269.608 226.576 266.888 227.369 263.688 227.369C260.667 227.369 258.199 226.46 256.285 224.642C254.371 222.823 253.414 220.403 253.414 217.382C253.414 214.47 254.296 212.091 256.059 210.245C257.837 208.399 260.147 207.477 262.991 207.477ZM267.4 215.372C267.264 213.978 266.84 212.891 266.129 212.111C265.418 211.318 264.44 210.922 263.196 210.922C261.925 210.922 260.899 211.298 260.12 212.05C259.354 212.802 258.869 213.909 258.664 215.372H267.4ZM283.427 207.477C285.888 207.477 287.768 208.003 289.066 209.056C290.365 210.095 291.015 211.551 291.015 213.424V222.796C291.015 223.521 291.309 223.883 291.896 223.883C292.143 223.883 292.484 223.78 292.922 223.575C293.373 223.356 293.749 223.11 294.05 222.837V225.749C292.286 226.829 290.673 227.369 289.21 227.369C288.308 227.369 287.61 227.219 287.118 226.918C286.64 226.617 286.305 226.084 286.113 225.318C284.186 226.686 282.251 227.369 280.31 227.369C278.929 227.369 277.739 226.904 276.741 225.975C275.757 225.045 275.265 223.931 275.265 222.632C275.265 220.978 275.757 219.672 276.741 218.715C277.726 217.758 279.448 216.924 281.909 216.213L285.99 215.023V214.142C285.99 212.269 284.855 211.332 282.586 211.332C281.424 211.332 280.269 211.599 279.12 212.132C277.972 212.665 276.926 213.451 275.982 214.49V209.958C278.074 208.304 280.556 207.477 283.427 207.477ZM280.351 221.873C280.351 222.57 280.569 223.131 281.007 223.555C281.458 223.979 282.012 224.19 282.668 224.19C283.775 224.19 284.883 223.685 285.99 222.673V217.628C284.582 218.106 283.475 218.558 282.668 218.981C281.875 219.405 281.287 219.836 280.904 220.273C280.535 220.711 280.351 221.244 280.351 221.873ZM302.509 202.76H302.919V207.846H309.482V211.66H302.919V220.499C302.919 221.36 303.179 222.058 303.698 222.591C304.218 223.124 304.929 223.391 305.831 223.391C307.007 223.391 308.36 222.967 309.892 222.119V226.159C308.073 226.966 306.364 227.369 304.765 227.369C302.605 227.369 300.916 226.781 299.699 225.605C298.496 224.43 297.895 222.837 297.895 220.827V211.66H294.9V210.84L302.509 202.76ZM321.755 207.477C324.571 207.477 326.8 208.379 328.441 210.184C330.081 211.988 330.902 214.483 330.902 217.669V218.428H317.346C317.551 220.137 318.187 221.456 319.253 222.386C320.333 223.302 321.81 223.76 323.683 223.76C324.886 223.76 326.041 223.555 327.149 223.145C328.27 222.721 329.425 222.085 330.614 221.237V224.99C328.372 226.576 325.652 227.369 322.452 227.369C319.431 227.369 316.963 226.46 315.049 224.642C313.135 222.823 312.178 220.403 312.178 217.382C312.178 214.47 313.06 212.091 314.823 210.245C316.601 208.399 318.911 207.477 321.755 207.477ZM326.164 215.372C326.028 213.978 325.604 212.891 324.893 212.111C324.182 211.318 323.204 210.922 321.96 210.922C320.689 210.922 319.663 211.298 318.884 212.05C318.118 212.802 317.633 213.909 317.428 215.372H326.164ZM337.946 221.073C338.78 221.073 339.511 221.381 340.14 221.996C340.782 222.611 341.104 223.356 341.104 224.231C341.104 225.079 340.796 225.817 340.181 226.446C339.566 227.062 338.821 227.369 337.946 227.369C337.084 227.369 336.339 227.062 335.71 226.446C335.095 225.817 334.787 225.079 334.787 224.231C334.787 223.356 335.102 222.611 335.731 221.996C336.36 221.381 337.098 221.073 337.946 221.073ZM348.701 221.073C349.535 221.073 350.267 221.381 350.896 221.996C351.538 222.611 351.86 223.356 351.86 224.231C351.86 225.079 351.552 225.817 350.937 226.446C350.322 227.062 349.576 227.369 348.701 227.369C347.84 227.369 347.095 227.062 346.466 226.446C345.851 225.817 345.543 225.079 345.543 224.231C345.543 223.356 345.858 222.611 346.487 221.996C347.116 221.381 347.854 221.073 348.701 221.073ZM359.457 221.073C360.291 221.073 361.023 221.381 361.652 221.996C362.294 222.611 362.616 223.356 362.616 224.231C362.616 225.079 362.308 225.817 361.693 226.446C361.078 227.062 360.332 227.369 359.457 227.369C358.596 227.369 357.851 227.062 357.222 226.446C356.607 225.817 356.299 225.079 356.299 224.231C356.299 223.356 356.614 222.611 357.243 221.996C357.871 221.381 358.61 221.073 359.457 221.073Z" fill="#4A2B7E"/>
<path d="M556.125 43.875V91.125C556.125 94.8375 559.162 97.875 562.875 97.875H610.125C613.838 97.875 616.875 94.8375 616.875 91.125V43.875C616.875 40.1625 613.838 37.125 610.125 37.125H562.875C559.162 37.125 556.125 40.1625 556.125 43.875ZM583.125 91.125H566.25C564.394 91.125 562.875 89.6063 562.875 87.75V70.875H579.75C581.606 70.875 583.125 72.3937 583.125 74.25V91.125ZM579.75 64.125H562.875V47.25C562.875 45.3938 564.394 43.875 566.25 43.875H583.125V60.75C583.125 62.6063 581.606 64.125 579.75 64.125ZM606.75 91.125H589.875V74.25C589.875 72.3937 591.394 70.875 593.25 70.875H610.125V87.75C610.125 89.6063 608.606 91.125 606.75 91.125ZM610.125 64.125H593.25C591.394 64.125 589.875 62.6063 589.875 60.75V43.875H606.75C608.606 43.875 610.125 45.3938 610.125 47.25V64.125Z" fill="white"/>
<path d="M87.75 452.51V472.49C87.75 473.908 89.37 474.684 90.4838 473.806L102.971 463.816C103.815 463.141 103.815 461.859 102.971 461.184L90.4838 451.194C89.37 450.316 87.75 451.093 87.75 452.51ZM118.125 432.125H70.875C67.1625 432.125 64.125 435.162 64.125 438.875V486.125C64.125 489.838 67.1625 492.875 70.875 492.875H118.125C121.838 492.875 124.875 489.838 124.875 486.125V438.875C124.875 435.162 121.838 432.125 118.125 432.125ZM114.75 486.125H74.25C72.3938 486.125 70.875 484.606 70.875 482.75V442.25C70.875 440.394 72.3938 438.875 74.25 438.875H114.75C116.606 438.875 118.125 440.394 118.125 442.25V482.75C118.125 484.606 116.606 486.125 114.75 486.125Z" fill="white"/>
<path d="M549.125 394.25C547.269 394.25 545.75 395.769 545.75 397.625V441.5C545.75 445.213 548.787 448.25 552.5 448.25H596.375C598.231 448.25 599.75 446.731 599.75 444.875C599.75 443.019 598.231 441.5 596.375 441.5H555.875C554.019 441.5 552.5 439.981 552.5 438.125V397.625C552.5 395.769 550.981 394.25 549.125 394.25ZM606.5 380.75H566C562.288 380.75 559.25 383.787 559.25 387.5V428C559.25 431.713 562.288 434.75 566 434.75H606.5C610.213 434.75 613.25 431.713 613.25 428V387.5C613.25 383.787 610.213 380.75 606.5 380.75ZM599.75 411.125H572.75C570.894 411.125 569.375 409.606 569.375 407.75C569.375 405.894 570.894 404.375 572.75 404.375H599.75C601.606 404.375 603.125 405.894 603.125 407.75C603.125 409.606 601.606 411.125 599.75 411.125ZM586.25 424.625H572.75C570.894 424.625 569.375 423.106 569.375 421.25C569.375 419.394 570.894 417.875 572.75 417.875H586.25C588.106 417.875 589.625 419.394 589.625 421.25C589.625 423.106 588.106 424.625 586.25 424.625ZM599.75 397.625H572.75C570.894 397.625 569.375 396.106 569.375 394.25C569.375 392.394 570.894 390.875 572.75 390.875H599.75C601.606 390.875 603.125 392.394 603.125 394.25C603.125 396.106 601.606 397.625 599.75 397.625Z" fill="white"/>
<path d="M827.062 208.188C820.481 208.188 813.394 209.538 808.5 213.25C803.606 209.538 796.519 208.188 789.938 208.188C785.044 208.188 779.846 208.93 775.493 210.854C773.029 211.968 771.375 214.364 771.375 217.097V255.168C771.375 259.555 775.493 262.795 779.745 261.715C783.052 260.871 786.562 260.5 789.938 260.5C795.202 260.5 800.805 261.378 805.328 263.605C807.353 264.618 809.648 264.618 811.639 263.605C816.161 261.344 821.764 260.5 827.029 260.5C830.404 260.5 833.914 260.871 837.221 261.715C841.474 262.829 845.591 259.589 845.591 255.168V217.097C845.591 214.364 843.938 211.968 841.474 210.854C837.154 208.93 831.956 208.188 827.062 208.188ZM838.875 251.151C838.875 253.278 836.917 254.83 834.825 254.459C832.294 253.986 829.661 253.784 827.062 253.784C821.325 253.784 813.056 255.978 808.5 258.846V220C813.056 217.131 821.325 214.938 827.062 214.938C830.167 214.938 833.239 215.241 836.175 215.883C837.728 216.22 838.875 217.604 838.875 219.19V251.151Z" fill="white"/>
<line x1="446.993" y1="237.5" x2="708.023" y2="233.672" stroke="#9984BC"/>
<line x1="141.635" y1="388.658" x2="170.635" y2="357.658" stroke="#9984BC"/>
<line x1="493.772" y1="366.445" x2="419.772" y2="328.445" stroke="#9984BC"/>
<line x1="494.319" y1="123.385" x2="441.14" y2="167.39" stroke="#9984BC"/>
</svg>
