<svg width="761" height="200" viewBox="0 0 761 854" fill="none" xmlns="http://www.w3.org/2000/svg">
<path d="M596.543 289.184V291.258C593.566 289.676 590.648 288.885 587.789 288.885C584.742 288.885 582.193 289.922 580.143 291.996C578.092 294.07 577.066 296.66 577.066 299.766C577.066 302.906 578.098 305.49 580.16 307.518C582.223 309.545 584.854 310.559 588.053 310.559C590.725 310.559 593.637 309.721 596.789 308.045V310.014C593.883 311.549 590.982 312.316 588.088 312.316C584.35 312.316 581.232 311.121 578.736 308.73C576.252 306.328 575.01 303.34 575.01 299.766C575.01 296.168 576.281 293.162 578.824 290.748C581.367 288.334 584.396 287.127 587.912 287.127C590.678 287.127 593.555 287.812 596.543 289.184ZM612.768 309.188V310.629C611.279 311.754 610.189 312.316 609.498 312.316C609.1 312.316 608.824 312.188 608.672 311.93C608.52 311.66 608.408 311.121 608.338 310.312C606.639 311.648 604.951 312.316 603.275 312.316C602.057 312.316 601.025 311.918 600.182 311.121C599.338 310.324 598.916 309.357 598.916 308.221C598.916 306.463 599.73 305.08 601.359 304.072C602.988 303.053 605.314 302.467 608.338 302.314V300.258C608.338 298.055 607.143 296.953 604.752 296.953C603.229 296.953 601.582 297.639 599.812 299.01V297.234C601.641 296.086 603.381 295.512 605.033 295.512C606.498 295.512 607.705 295.875 608.654 296.602C609.604 297.316 610.078 298.359 610.078 299.73V309.803C610.078 310.354 610.207 310.629 610.465 310.629C610.793 310.629 611.561 310.148 612.768 309.188ZM608.338 308.801V303.756C606.123 303.674 604.283 304.066 602.818 304.934C601.365 305.789 600.639 306.885 600.639 308.221C600.639 308.971 600.943 309.604 601.553 310.119C602.162 310.635 602.924 310.893 603.838 310.893C605.314 310.893 606.814 310.195 608.338 308.801ZM617.232 287.443V312H615.492V287.443H617.232ZM635.777 303.316H623.033C622.998 303.598 622.98 303.879 622.98 304.16C622.98 305.965 623.625 307.494 624.914 308.748C626.203 310.002 627.727 310.629 629.484 310.629C631.535 310.629 633.539 309.826 635.496 308.221V310.172C633.645 311.602 631.57 312.316 629.273 312.316C626.941 312.316 625.014 311.508 623.49 309.891C621.967 308.273 621.205 306.217 621.205 303.721C621.205 301.354 621.908 299.396 623.314 297.85C624.721 296.291 626.49 295.512 628.623 295.512C630.627 295.512 632.32 296.215 633.703 297.621C635.086 299.016 635.777 300.914 635.777 303.316ZM623.262 301.928H633.738C633.129 298.775 631.424 297.199 628.623 297.199C627.299 297.199 626.15 297.615 625.178 298.447C624.217 299.268 623.578 300.428 623.262 301.928ZM640.98 295.828V298.641H641.051C642.398 296.555 644.174 295.512 646.377 295.512C648.205 295.512 649.664 296.098 650.754 297.27C651.844 298.441 652.389 300.064 652.389 302.139V312H650.666V302.789C650.666 299.062 649.201 297.199 646.271 297.199C644.127 297.199 642.363 298.354 640.98 300.662V312H639.258V295.828H640.98ZM670.846 287.443V312H669.105V310.734C667.629 311.789 666.035 312.316 664.324 312.316C662.027 312.316 660.088 311.508 658.506 309.891C656.936 308.262 656.15 306.264 656.15 303.896C656.15 301.494 656.924 299.496 658.471 297.902C660.029 296.309 661.98 295.512 664.324 295.512C665.812 295.512 667.406 295.945 669.105 296.812V287.443H670.846ZM669.105 309.152V298.711C667.559 297.703 665.988 297.199 664.395 297.199C662.531 297.199 660.996 297.82 659.789 299.062C658.582 300.293 657.979 301.869 657.979 303.791C657.979 305.748 658.623 307.377 659.912 308.678C661.201 309.979 662.812 310.629 664.746 310.629C666.246 310.629 667.699 310.137 669.105 309.152ZM688.178 309.188V310.629C686.689 311.754 685.6 312.316 684.908 312.316C684.51 312.316 684.234 312.188 684.082 311.93C683.93 311.66 683.818 311.121 683.748 310.312C682.049 311.648 680.361 312.316 678.686 312.316C677.467 312.316 676.436 311.918 675.592 311.121C674.748 310.324 674.326 309.357 674.326 308.221C674.326 306.463 675.141 305.08 676.77 304.072C678.398 303.053 680.725 302.467 683.748 302.314V300.258C683.748 298.055 682.553 296.953 680.162 296.953C678.639 296.953 676.992 297.639 675.223 299.01V297.234C677.051 296.086 678.791 295.512 680.443 295.512C681.908 295.512 683.115 295.875 684.064 296.602C685.014 297.316 685.488 298.359 685.488 299.73V309.803C685.488 310.354 685.617 310.629 685.875 310.629C686.203 310.629 686.971 310.148 688.178 309.188ZM683.748 308.801V303.756C681.533 303.674 679.693 304.066 678.229 304.934C676.775 305.789 676.049 306.885 676.049 308.221C676.049 308.971 676.354 309.604 676.963 310.119C677.572 310.635 678.334 310.893 679.248 310.893C680.725 310.893 682.225 310.195 683.748 308.801ZM701.818 297.428L700.816 299.045C699.469 297.814 698.385 297.199 697.564 297.199C695.947 297.199 694.219 298.746 692.379 301.84V312H690.656V295.828H692.379V300.082H692.449C694.383 297.035 696.27 295.512 698.109 295.512C699.164 295.512 700.4 296.15 701.818 297.428ZM712.945 296.883V298.746C711.305 297.645 709.828 297.094 708.516 297.094C707.543 297.094 706.723 297.357 706.055 297.885C705.387 298.412 705.053 299.062 705.053 299.836C705.053 300.387 705.252 300.896 705.65 301.365C706.061 301.822 707.18 302.402 709.008 303.105C710.848 303.809 712.049 304.541 712.611 305.303C713.174 306.064 713.455 306.914 713.455 307.852C713.455 309.105 712.945 310.166 711.926 311.033C710.906 311.889 709.646 312.316 708.146 312.316C706.518 312.316 704.9 311.824 703.295 310.84V309.152C705.205 310.137 706.898 310.629 708.375 310.629C709.371 310.629 710.186 310.365 710.818 309.838C711.463 309.311 711.785 308.637 711.785 307.816C711.785 307.254 711.574 306.738 711.152 306.27C710.742 305.789 709.617 305.186 707.777 304.459C705.949 303.732 704.76 303.018 704.209 302.314C703.67 301.6 703.4 300.809 703.4 299.941C703.4 298.711 703.904 297.668 704.912 296.812C705.932 295.945 707.168 295.512 708.621 295.512C709.945 295.512 711.387 295.969 712.945 296.883ZM742.881 299.766H744.902C744.141 302.156 743.016 304.471 741.527 306.709L746.52 312H744.111L740.402 308.15C738 310.928 735.182 312.316 731.947 312.316C730.025 312.316 728.473 311.783 727.289 310.717C726.117 309.639 725.531 308.232 725.531 306.498C725.531 303.275 727.559 300.779 731.613 299.01C729.574 296.889 728.555 294.979 728.555 293.279C728.555 291.779 729.117 290.514 730.242 289.482C731.367 288.439 732.75 287.918 734.391 287.918C735.938 287.918 737.215 288.404 738.223 289.377C739.242 290.338 739.752 291.545 739.752 292.998C739.752 295.6 738.035 297.768 734.602 299.502L740.191 305.303C741.305 303.639 742.201 301.793 742.881 299.766ZM733.389 298.184C736.459 296.906 737.994 295.236 737.994 293.174C737.994 292.178 737.643 291.346 736.939 290.678C736.236 290.01 735.352 289.676 734.285 289.676C733.184 289.676 732.258 290.016 731.508 290.695C730.77 291.363 730.4 292.189 730.4 293.174C730.4 294.697 731.396 296.367 733.389 298.184ZM739.102 306.814L732.879 300.328C731.051 301.113 729.709 301.963 728.854 302.877C728.01 303.791 727.588 304.91 727.588 306.234C727.588 307.594 728.004 308.654 728.836 309.416C729.68 310.178 730.846 310.559 732.334 310.559C734.795 310.559 737.051 309.311 739.102 306.814ZM571.617 328.268L582.955 353H580.969L577.084 344.51H565.096L561.211 353H559.225L570.562 328.268H571.617ZM576.363 342.928L571.072 331.361L565.816 342.928H576.363ZM587.086 336.828V337.742C588.715 336.922 590.338 336.512 591.955 336.512C594.252 336.512 596.156 337.303 597.668 338.885C599.18 340.467 599.936 342.459 599.936 344.861C599.936 347.229 599.156 349.232 597.598 350.873C596.039 352.502 594.135 353.316 591.885 353.316C590.326 353.316 588.727 352.912 587.086 352.104V361.279H585.363V336.828H587.086ZM587.086 339.395V350.416C588.551 351.225 590.039 351.629 591.551 351.629C593.484 351.629 595.049 351.02 596.244 349.801C597.439 348.582 598.037 346.982 598.037 345.002C598.037 343.033 597.404 341.41 596.139 340.133C594.873 338.844 593.273 338.199 591.34 338.199C589.957 338.199 588.539 338.598 587.086 339.395ZM605.438 336.828V337.742C607.066 336.922 608.689 336.512 610.307 336.512C612.604 336.512 614.508 337.303 616.02 338.885C617.531 340.467 618.287 342.459 618.287 344.861C618.287 347.229 617.508 349.232 615.949 350.873C614.391 352.502 612.486 353.316 610.236 353.316C608.678 353.316 607.078 352.912 605.438 352.104V361.279H603.715V336.828H605.438ZM605.438 339.395V350.416C606.902 351.225 608.391 351.629 609.902 351.629C611.836 351.629 613.4 351.02 614.596 349.801C615.791 348.582 616.389 346.982 616.389 345.002C616.389 343.033 615.756 341.41 614.49 340.133C613.225 338.844 611.625 338.199 609.691 338.199C608.309 338.199 606.891 338.598 605.438 339.395ZM629.555 336.512C631.898 336.512 633.85 337.314 635.408 338.92C636.979 340.525 637.764 342.529 637.764 344.932C637.764 347.322 636.979 349.32 635.408 350.926C633.85 352.52 631.898 353.316 629.555 353.316C627.211 353.316 625.248 352.52 623.666 350.926C622.096 349.32 621.311 347.322 621.311 344.932C621.311 342.529 622.096 340.525 623.666 338.92C625.248 337.314 627.211 336.512 629.555 336.512ZM629.555 351.629C631.371 351.629 632.889 350.996 634.107 349.73C635.326 348.453 635.936 346.854 635.936 344.932C635.936 343.021 635.32 341.422 634.09 340.133C632.871 338.844 631.359 338.199 629.555 338.199C627.727 338.199 626.197 338.838 624.967 340.115C623.748 341.393 623.139 342.998 623.139 344.932C623.139 346.854 623.748 348.453 624.967 349.73C626.197 350.996 627.727 351.629 629.555 351.629ZM643.564 328.443V331.396H641.824V328.443H643.564ZM643.564 336.828V353H641.824V336.828H643.564ZM650.051 336.828V339.641H650.121C651.469 337.555 653.244 336.512 655.447 336.512C657.275 336.512 658.734 337.098 659.824 338.27C660.914 339.441 661.459 341.064 661.459 343.139V353H659.736V343.789C659.736 340.062 658.271 338.199 655.342 338.199C653.197 338.199 651.434 339.354 650.051 341.662V353H648.328V336.828H650.051ZM669.141 331.467V336.828H673.676V338.234H669.141V347.85C669.141 349.396 669.264 350.416 669.51 350.908C669.768 351.389 670.447 351.629 671.549 351.629C672.393 351.629 673.377 351.365 674.502 350.838V352.49C673.365 353.041 672.252 353.316 671.162 353.316C670.096 353.316 669.205 353.012 668.49 352.402C667.775 351.793 667.418 350.949 667.418 349.871V338.234H663.059V336.828H667.418V332.979L668.596 331.467H669.141ZM678.492 336.828V339.676H678.562C679.875 337.566 681.592 336.512 683.713 336.512C686.186 336.512 687.926 337.807 688.934 340.396C690.457 337.807 692.332 336.512 694.559 336.512C696.234 336.512 697.588 337.109 698.619 338.305C699.65 339.5 700.166 341.088 700.166 343.068V353H698.443V343.824C698.443 342.078 698.074 340.707 697.336 339.711C696.598 338.703 695.561 338.199 694.225 338.199C693.229 338.199 692.361 338.498 691.623 339.096C690.885 339.693 690.123 340.654 689.338 341.979V353H687.598V343.789C687.598 341.996 687.211 340.619 686.438 339.658C685.676 338.686 684.65 338.199 683.361 338.199C681.486 338.199 679.863 339.354 678.492 341.662V353H676.77V336.828H678.492ZM718.395 344.316H705.65C705.615 344.598 705.598 344.879 705.598 345.16C705.598 346.965 706.242 348.494 707.531 349.748C708.82 351.002 710.344 351.629 712.102 351.629C714.152 351.629 716.156 350.826 718.113 349.221V351.172C716.262 352.602 714.188 353.316 711.891 353.316C709.559 353.316 707.631 352.508 706.107 350.891C704.584 349.273 703.822 347.217 703.822 344.721C703.822 342.354 704.525 340.396 705.932 338.85C707.338 337.291 709.107 336.512 711.24 336.512C713.244 336.512 714.938 337.215 716.32 338.621C717.703 340.016 718.395 341.914 718.395 344.316ZM705.879 342.928H716.355C715.746 339.775 714.041 338.199 711.24 338.199C709.916 338.199 708.768 338.615 707.795 339.447C706.834 340.268 706.195 341.428 705.879 342.928ZM723.598 336.828V339.641H723.668C725.016 337.555 726.791 336.512 728.994 336.512C730.822 336.512 732.281 337.098 733.371 338.27C734.461 339.441 735.006 341.064 735.006 343.139V353H733.283V343.789C733.283 340.062 731.818 338.199 728.889 338.199C726.744 338.199 724.98 339.354 723.598 341.662V353H721.875V336.828H723.598ZM742.688 331.467V336.828H747.223V338.234H742.688V347.85C742.688 349.396 742.811 350.416 743.057 350.908C743.314 351.389 743.994 351.629 745.096 351.629C745.939 351.629 746.924 351.365 748.049 350.838V352.49C746.912 353.041 745.799 353.316 744.709 353.316C743.643 353.316 742.752 353.012 742.037 352.402C741.322 351.793 740.965 350.949 740.965 349.871V338.234H736.605V336.828H740.965V332.979L742.143 331.467H742.688ZM759.281 337.883V339.746C757.641 338.645 756.164 338.094 754.852 338.094C753.879 338.094 753.059 338.357 752.391 338.885C751.723 339.412 751.389 340.062 751.389 340.836C751.389 341.387 751.588 341.896 751.986 342.365C752.396 342.822 753.516 343.402 755.344 344.105C757.184 344.809 758.385 345.541 758.947 346.303C759.51 347.064 759.791 347.914 759.791 348.852C759.791 350.105 759.281 351.166 758.262 352.033C757.242 352.889 755.982 353.316 754.482 353.316C752.854 353.316 751.236 352.824 749.631 351.84V350.152C751.541 351.137 753.234 351.629 754.711 351.629C755.707 351.629 756.521 351.365 757.154 350.838C757.799 350.311 758.121 349.637 758.121 348.816C758.121 348.254 757.91 347.738 757.488 347.27C757.078 346.789 755.953 346.186 754.113 345.459C752.285 344.732 751.096 344.018 750.545 343.314C750.006 342.6 749.736 341.809 749.736 340.941C749.736 339.711 750.24 338.668 751.248 337.812C752.268 336.945 753.504 336.512 754.957 336.512C756.281 336.512 757.723 336.969 759.281 337.883Z" fill="#4A2B7E"/>
<circle cx="660" cy="197" r="68" fill="#9984BC"/>
<path d="M51.2695 320.443L40.9863 345.246H40.4414L30.1055 320.443H32.0215L40.7227 341.221L49.3711 320.443H51.2695ZM58.6348 328.512C60.9785 328.512 62.9297 329.314 64.4883 330.92C66.0586 332.525 66.8438 334.529 66.8438 336.932C66.8438 339.322 66.0586 341.32 64.4883 342.926C62.9297 344.52 60.9785 345.316 58.6348 345.316C56.291 345.316 54.3281 344.52 52.7461 342.926C51.1758 341.32 50.3906 339.322 50.3906 336.932C50.3906 334.529 51.1758 332.525 52.7461 330.92C54.3281 329.314 56.291 328.512 58.6348 328.512ZM58.6348 343.629C60.4512 343.629 61.9688 342.996 63.1875 341.73C64.4062 340.453 65.0156 338.854 65.0156 336.932C65.0156 335.021 64.4004 333.422 63.1699 332.133C61.9512 330.844 60.4395 330.199 58.6348 330.199C56.8066 330.199 55.2773 330.838 54.0469 332.115C52.8281 333.393 52.2188 334.998 52.2188 336.932C52.2188 338.854 52.8281 340.453 54.0469 341.73C55.2773 342.996 56.8066 343.629 58.6348 343.629ZM72.6445 320.443V323.396H70.9043V320.443H72.6445ZM72.6445 328.828V345H70.9043V328.828H72.6445ZM88.8164 329.303V331.219C87.2695 330.539 85.8691 330.199 84.6152 330.199C82.8105 330.199 81.3398 330.826 80.2031 332.08C79.0781 333.334 78.5156 334.963 78.5156 336.967C78.5156 339.006 79.0781 340.629 80.2031 341.836C81.3398 343.031 82.8574 343.629 84.7559 343.629C86.1387 343.629 87.5918 343.318 89.1152 342.697V344.49C87.498 345.041 85.998 345.316 84.6152 345.316C82.248 345.316 80.332 344.566 78.8672 343.066C77.4141 341.566 76.6875 339.598 76.6875 337.16C76.6875 334.617 77.4199 332.543 78.8848 330.938C80.3613 329.32 82.2422 328.512 84.5273 328.512C85.7812 328.512 87.2109 328.775 88.8164 329.303ZM106.201 336.316H93.457C93.4219 336.598 93.4043 336.879 93.4043 337.16C93.4043 338.965 94.0488 340.494 95.3379 341.748C96.627 343.002 98.1504 343.629 99.9082 343.629C101.959 343.629 103.963 342.826 105.92 341.221V343.172C104.068 344.602 101.994 345.316 99.6973 345.316C97.3652 345.316 95.4375 344.508 93.9141 342.891C92.3906 341.273 91.6289 339.217 91.6289 336.721C91.6289 334.354 92.332 332.396 93.7383 330.85C95.1445 329.291 96.9141 328.512 99.0469 328.512C101.051 328.512 102.744 329.215 104.127 330.621C105.51 332.016 106.201 333.914 106.201 336.316ZM93.6855 334.928H104.162C103.553 331.775 101.848 330.199 99.0469 330.199C97.7227 330.199 96.5742 330.615 95.6016 331.447C94.6406 332.268 94.002 333.428 93.6855 334.928ZM111.334 328.828V331.676H111.404C112.717 329.566 114.434 328.512 116.555 328.512C119.027 328.512 120.768 329.807 121.775 332.396C123.299 329.807 125.174 328.512 127.4 328.512C129.076 328.512 130.43 329.109 131.461 330.305C132.492 331.5 133.008 333.088 133.008 335.068V345H131.285V335.824C131.285 334.078 130.916 332.707 130.178 331.711C129.439 330.703 128.402 330.199 127.066 330.199C126.07 330.199 125.203 330.498 124.465 331.096C123.727 331.693 122.965 332.654 122.18 333.979V345H120.439V335.789C120.439 333.996 120.053 332.619 119.279 331.658C118.518 330.686 117.492 330.199 116.203 330.199C114.328 330.199 112.705 331.354 111.334 333.662V345H109.611V328.828H111.334ZM150.375 342.188V343.629C148.887 344.754 147.797 345.316 147.105 345.316C146.707 345.316 146.432 345.188 146.279 344.93C146.127 344.66 146.016 344.121 145.945 343.312C144.246 344.648 142.559 345.316 140.883 345.316C139.664 345.316 138.633 344.918 137.789 344.121C136.945 343.324 136.523 342.357 136.523 341.221C136.523 339.463 137.338 338.08 138.967 337.072C140.596 336.053 142.922 335.467 145.945 335.314V333.258C145.945 331.055 144.75 329.953 142.359 329.953C140.836 329.953 139.189 330.639 137.42 332.01V330.234C139.248 329.086 140.988 328.512 142.641 328.512C144.105 328.512 145.312 328.875 146.262 329.602C147.211 330.316 147.686 331.359 147.686 332.73V342.803C147.686 343.354 147.814 343.629 148.072 343.629C148.4 343.629 149.168 343.148 150.375 342.188ZM145.945 341.801V336.756C143.73 336.674 141.891 337.066 140.426 337.934C138.973 338.789 138.246 339.885 138.246 341.221C138.246 341.971 138.551 342.604 139.16 343.119C139.77 343.635 140.531 343.893 141.445 343.893C142.922 343.893 144.422 343.195 145.945 341.801ZM154.84 320.443V323.396H153.1V320.443H154.84ZM154.84 328.828V345H153.1V328.828H154.84ZM161.625 320.443V345H159.885V320.443H161.625Z" fill="#4A2B7E"/>
<circle cx="96" cy="233" r="68" fill="#9984BC"/>
<path d="M462.848 820.443H471.443C475.791 820.443 479.107 821.586 481.393 823.871C483.689 826.156 484.838 829.109 484.838 832.73C484.838 836.281 483.701 839.217 481.428 841.537C479.166 843.846 475.949 845 471.777 845H462.848V820.443ZM464.746 822.025V843.418H471.672C474.848 843.418 477.49 842.445 479.6 840.5C481.721 838.543 482.781 835.953 482.781 832.73C482.781 829.578 481.738 827.006 479.652 825.014C477.566 823.021 474.865 822.025 471.549 822.025H464.746ZM501.801 842.188V843.629C500.312 844.754 499.223 845.316 498.531 845.316C498.133 845.316 497.857 845.188 497.705 844.93C497.553 844.66 497.441 844.121 497.371 843.312C495.672 844.648 493.984 845.316 492.309 845.316C491.09 845.316 490.059 844.918 489.215 844.121C488.371 843.324 487.949 842.357 487.949 841.221C487.949 839.463 488.764 838.08 490.393 837.072C492.021 836.053 494.348 835.467 497.371 835.314V833.258C497.371 831.055 496.176 829.953 493.785 829.953C492.262 829.953 490.615 830.639 488.846 832.01V830.234C490.674 829.086 492.414 828.512 494.066 828.512C495.531 828.512 496.738 828.875 497.688 829.602C498.637 830.316 499.111 831.359 499.111 832.73V842.803C499.111 843.354 499.24 843.629 499.498 843.629C499.826 843.629 500.594 843.148 501.801 842.188ZM497.371 841.801V836.756C495.156 836.674 493.316 837.066 491.852 837.934C490.398 838.789 489.672 839.885 489.672 841.221C489.672 841.971 489.977 842.604 490.586 843.119C491.195 843.635 491.957 843.893 492.871 843.893C494.348 843.893 495.848 843.195 497.371 841.801ZM507.408 823.467V828.828H511.943V830.234H507.408V839.85C507.408 841.396 507.531 842.416 507.777 842.908C508.035 843.389 508.715 843.629 509.816 843.629C510.66 843.629 511.645 843.365 512.77 842.838V844.49C511.633 845.041 510.52 845.316 509.43 845.316C508.363 845.316 507.473 845.012 506.758 844.402C506.043 843.793 505.686 842.949 505.686 841.871V830.234H501.326V828.828H505.686V824.979L506.863 823.467H507.408ZM528.027 842.188V843.629C526.539 844.754 525.449 845.316 524.758 845.316C524.359 845.316 524.084 845.188 523.932 844.93C523.779 844.66 523.668 844.121 523.598 843.312C521.898 844.648 520.211 845.316 518.535 845.316C517.316 845.316 516.285 844.918 515.441 844.121C514.598 843.324 514.176 842.357 514.176 841.221C514.176 839.463 514.99 838.08 516.619 837.072C518.248 836.053 520.574 835.467 523.598 835.314V833.258C523.598 831.055 522.402 829.953 520.012 829.953C518.488 829.953 516.842 830.639 515.072 832.01V830.234C516.9 829.086 518.641 828.512 520.293 828.512C521.758 828.512 522.965 828.875 523.914 829.602C524.863 830.316 525.338 831.359 525.338 832.73V842.803C525.338 843.354 525.467 843.629 525.725 843.629C526.053 843.629 526.82 843.148 528.027 842.188ZM523.598 841.801V836.756C521.383 836.674 519.543 837.066 518.078 837.934C516.625 838.789 515.898 839.885 515.898 841.221C515.898 841.971 516.203 842.604 516.812 843.119C517.422 843.635 518.184 843.893 519.098 843.893C520.574 843.893 522.074 843.195 523.598 841.801ZM530.471 844.104V820.443H532.193V831.148C533.916 829.391 535.861 828.512 538.029 828.512C540.139 828.512 541.867 829.25 543.215 830.727C544.562 832.191 545.236 834.084 545.236 836.404C545.236 839.1 544.41 841.262 542.758 842.891C541.117 844.508 538.932 845.316 536.201 845.316C534.408 845.316 532.498 844.912 530.471 844.104ZM532.193 833.082V842.873C533.529 843.377 534.854 843.629 536.166 843.629C538.252 843.629 539.975 842.961 541.334 841.625C542.705 840.277 543.391 838.572 543.391 836.51C543.391 834.6 542.863 833.029 541.809 831.799C540.754 830.568 539.424 829.953 537.818 829.953C535.896 829.953 534.021 830.996 532.193 833.082ZM561.742 842.188V843.629C560.254 844.754 559.164 845.316 558.473 845.316C558.074 845.316 557.799 845.188 557.646 844.93C557.494 844.66 557.383 844.121 557.312 843.312C555.613 844.648 553.926 845.316 552.25 845.316C551.031 845.316 550 844.918 549.156 844.121C548.312 843.324 547.891 842.357 547.891 841.221C547.891 839.463 548.705 838.08 550.334 837.072C551.963 836.053 554.289 835.467 557.312 835.314V833.258C557.312 831.055 556.117 829.953 553.727 829.953C552.203 829.953 550.557 830.639 548.787 832.01V830.234C550.615 829.086 552.355 828.512 554.008 828.512C555.473 828.512 556.68 828.875 557.629 829.602C558.578 830.316 559.053 831.359 559.053 832.73V842.803C559.053 843.354 559.182 843.629 559.439 843.629C559.768 843.629 560.535 843.148 561.742 842.188ZM557.312 841.801V836.756C555.098 836.674 553.258 837.066 551.793 837.934C550.34 838.789 549.613 839.885 549.613 841.221C549.613 841.971 549.918 842.604 550.527 843.119C551.137 843.635 551.898 843.893 552.812 843.893C554.289 843.893 555.789 843.195 557.312 841.801ZM573.08 829.883V831.746C571.439 830.645 569.963 830.094 568.65 830.094C567.678 830.094 566.857 830.357 566.189 830.885C565.521 831.412 565.188 832.062 565.188 832.836C565.188 833.387 565.387 833.896 565.785 834.365C566.195 834.822 567.314 835.402 569.143 836.105C570.982 836.809 572.184 837.541 572.746 838.303C573.309 839.064 573.59 839.914 573.59 840.852C573.59 842.105 573.08 843.166 572.061 844.033C571.041 844.889 569.781 845.316 568.281 845.316C566.652 845.316 565.035 844.824 563.43 843.84V842.152C565.34 843.137 567.033 843.629 568.51 843.629C569.506 843.629 570.32 843.365 570.953 842.838C571.598 842.311 571.92 841.637 571.92 840.816C571.92 840.254 571.709 839.738 571.287 839.27C570.877 838.789 569.752 838.186 567.912 837.459C566.084 836.732 564.895 836.018 564.344 835.314C563.805 834.6 563.535 833.809 563.535 832.941C563.535 831.711 564.039 830.668 565.047 829.812C566.066 828.945 567.303 828.512 568.756 828.512C570.08 828.512 571.521 828.969 573.08 829.883ZM590.729 836.316H577.984C577.949 836.598 577.932 836.879 577.932 837.16C577.932 838.965 578.576 840.494 579.865 841.748C581.154 843.002 582.678 843.629 584.436 843.629C586.486 843.629 588.49 842.826 590.447 841.221V843.172C588.596 844.602 586.521 845.316 584.225 845.316C581.893 845.316 579.965 844.508 578.441 842.891C576.918 841.273 576.156 839.217 576.156 836.721C576.156 834.354 576.859 832.396 578.266 830.85C579.672 829.291 581.441 828.512 583.574 828.512C585.578 828.512 587.271 829.215 588.654 830.621C590.037 832.016 590.729 833.914 590.729 836.316ZM578.213 834.928H588.689C588.08 831.775 586.375 830.199 583.574 830.199C582.25 830.199 581.102 830.615 580.129 831.447C579.168 832.268 578.529 833.428 578.213 834.928ZM603.104 829.883V831.746C601.463 830.645 599.986 830.094 598.674 830.094C597.701 830.094 596.881 830.357 596.213 830.885C595.545 831.412 595.211 832.062 595.211 832.836C595.211 833.387 595.41 833.896 595.809 834.365C596.219 834.822 597.338 835.402 599.166 836.105C601.006 836.809 602.207 837.541 602.77 838.303C603.332 839.064 603.613 839.914 603.613 840.852C603.613 842.105 603.104 843.166 602.084 844.033C601.064 844.889 599.805 845.316 598.305 845.316C596.676 845.316 595.059 844.824 593.453 843.84V842.152C595.363 843.137 597.057 843.629 598.533 843.629C599.529 843.629 600.344 843.365 600.977 842.838C601.621 842.311 601.943 841.637 601.943 840.816C601.943 840.254 601.732 839.738 601.311 839.27C600.9 838.789 599.775 838.186 597.936 837.459C596.107 836.732 594.918 836.018 594.367 835.314C593.828 834.6 593.559 833.809 593.559 832.941C593.559 831.711 594.062 830.668 595.07 829.812C596.09 828.945 597.326 828.512 598.779 828.512C600.104 828.512 601.545 828.969 603.104 829.883Z" fill="#4A2B7E"/>
<circle cx="526" cy="733" r="68" fill="#9984BC"/>
<path d="M31.1406 594.521L22.8965 615.246H22.3867L12.5254 590.443H14.4766L22.5977 610.816L30.8418 590.443H31.4219L39.6309 610.816L47.7695 590.443H49.7207L39.8418 615.246H39.3848L31.1406 594.521ZM63.168 606.316H50.4238C50.3887 606.598 50.3711 606.879 50.3711 607.16C50.3711 608.965 51.0156 610.494 52.3047 611.748C53.5938 613.002 55.1172 613.629 56.875 613.629C58.9258 613.629 60.9297 612.826 62.8867 611.221V613.172C61.0352 614.602 58.9609 615.316 56.6641 615.316C54.332 615.316 52.4043 614.508 50.8809 612.891C49.3574 611.273 48.5957 609.217 48.5957 606.721C48.5957 604.354 49.2988 602.396 50.7051 600.85C52.1113 599.291 53.8809 598.512 56.0137 598.512C58.0176 598.512 59.7109 599.215 61.0938 600.621C62.4766 602.016 63.168 603.914 63.168 606.316ZM50.6523 604.928H61.1289C60.5195 601.775 58.8145 600.199 56.0137 600.199C54.6895 600.199 53.541 600.615 52.5684 601.447C51.6074 602.268 50.9688 603.428 50.6523 604.928ZM66.6484 614.104V590.443H68.3711V601.148C70.0938 599.391 72.0391 598.512 74.207 598.512C76.3164 598.512 78.0449 599.25 79.3926 600.727C80.7402 602.191 81.4141 604.084 81.4141 606.404C81.4141 609.1 80.5879 611.262 78.9355 612.891C77.2949 614.508 75.1094 615.316 72.3789 615.316C70.5859 615.316 68.6758 614.912 66.6484 614.104ZM68.3711 603.082V612.873C69.707 613.377 71.0312 613.629 72.3438 613.629C74.4297 613.629 76.1523 612.961 77.5117 611.625C78.8828 610.277 79.5684 608.572 79.5684 606.51C79.5684 604.6 79.041 603.029 77.9863 601.799C76.9316 600.568 75.6016 599.953 73.9961 599.953C72.0742 599.953 70.1992 600.996 68.3711 603.082ZM93.8945 599.883V601.746C92.2539 600.645 90.7773 600.094 89.4648 600.094C88.4922 600.094 87.6719 600.357 87.0039 600.885C86.3359 601.412 86.002 602.062 86.002 602.836C86.002 603.387 86.2012 603.896 86.5996 604.365C87.0098 604.822 88.1289 605.402 89.957 606.105C91.7969 606.809 92.998 607.541 93.5605 608.303C94.123 609.064 94.4043 609.914 94.4043 610.852C94.4043 612.105 93.8945 613.166 92.875 614.033C91.8555 614.889 90.5957 615.316 89.0957 615.316C87.4668 615.316 85.8496 614.824 84.2441 613.84V612.152C86.1543 613.137 87.8477 613.629 89.3242 613.629C90.3203 613.629 91.1348 613.365 91.7676 612.838C92.4121 612.311 92.7344 611.637 92.7344 610.816C92.7344 610.254 92.5234 609.738 92.1016 609.27C91.6914 608.789 90.5664 608.186 88.7266 607.459C86.8984 606.732 85.709 606.018 85.1582 605.314C84.6191 604.6 84.3496 603.809 84.3496 602.941C84.3496 601.711 84.8535 600.668 85.8613 599.812C86.8809 598.945 88.1172 598.512 89.5703 598.512C90.8945 598.512 92.3359 598.969 93.8945 599.883ZM99.7832 590.443V593.396H98.043V590.443H99.7832ZM99.7832 598.828V615H98.043V598.828H99.7832ZM107.711 593.467V598.828H112.246V600.234H107.711V609.85C107.711 611.396 107.834 612.416 108.08 612.908C108.338 613.389 109.018 613.629 110.119 613.629C110.963 613.629 111.947 613.365 113.072 612.838V614.49C111.936 615.041 110.822 615.316 109.732 615.316C108.666 615.316 107.775 615.012 107.061 614.402C106.346 613.793 105.988 612.949 105.988 611.871V600.234H101.629V598.828H105.988V594.979L107.166 593.467H107.711ZM129.191 606.316H116.447C116.412 606.598 116.395 606.879 116.395 607.16C116.395 608.965 117.039 610.494 118.328 611.748C119.617 613.002 121.141 613.629 122.898 613.629C124.949 613.629 126.953 612.826 128.91 611.221V613.172C127.059 614.602 124.984 615.316 122.688 615.316C120.355 615.316 118.428 614.508 116.904 612.891C115.381 611.273 114.619 609.217 114.619 606.721C114.619 604.354 115.322 602.396 116.729 600.85C118.135 599.291 119.904 598.512 122.037 598.512C124.041 598.512 125.734 599.215 127.117 600.621C128.5 602.016 129.191 603.914 129.191 606.316ZM116.676 604.928H127.152C126.543 601.775 124.838 600.199 122.037 600.199C120.713 600.199 119.564 600.615 118.592 601.447C117.631 602.268 116.992 603.428 116.676 604.928ZM35.7109 633.184V635.258C32.7344 633.676 29.8164 632.885 26.957 632.885C23.9102 632.885 21.3613 633.922 19.3105 635.996C17.2598 638.07 16.2344 640.66 16.2344 643.766C16.2344 646.906 17.2656 649.49 19.3281 651.518C21.3906 653.545 24.0215 654.559 27.2207 654.559C29.8926 654.559 32.8047 653.721 35.957 652.045V654.014C33.0508 655.549 30.1504 656.316 27.2559 656.316C23.5176 656.316 20.4004 655.121 17.9043 652.73C15.4199 650.328 14.1777 647.34 14.1777 643.766C14.1777 640.168 15.4492 637.162 17.9922 634.748C20.5352 632.334 23.5645 631.127 27.0801 631.127C29.8457 631.127 32.7227 631.812 35.7109 633.184ZM46.5391 639.512C48.8828 639.512 50.834 640.314 52.3926 641.92C53.9629 643.525 54.748 645.529 54.748 647.932C54.748 650.322 53.9629 652.32 52.3926 653.926C50.834 655.52 48.8828 656.316 46.5391 656.316C44.1953 656.316 42.2324 655.52 40.6504 653.926C39.0801 652.32 38.2949 650.322 38.2949 647.932C38.2949 645.529 39.0801 643.525 40.6504 641.92C42.2324 640.314 44.1953 639.512 46.5391 639.512ZM46.5391 654.629C48.3555 654.629 49.873 653.996 51.0918 652.73C52.3105 651.453 52.9199 649.854 52.9199 647.932C52.9199 646.021 52.3047 644.422 51.0742 643.133C49.8555 641.844 48.3438 641.199 46.5391 641.199C44.7109 641.199 43.1816 641.838 41.9512 643.115C40.7324 644.393 40.123 645.998 40.123 647.932C40.123 649.854 40.7324 651.453 41.9512 652.73C43.1816 653.996 44.7109 654.629 46.5391 654.629ZM60.25 639.828V642.641H60.3203C61.668 640.555 63.4434 639.512 65.6465 639.512C67.4746 639.512 68.9336 640.098 70.0234 641.27C71.1133 642.441 71.6582 644.064 71.6582 646.139V656H69.9355V646.789C69.9355 643.062 68.4707 641.199 65.541 641.199C63.3965 641.199 61.6328 642.354 60.25 644.662V656H58.5273V639.828H60.25ZM79.3398 634.467V639.828H83.875V641.234H79.3398V650.85C79.3398 652.396 79.4629 653.416 79.709 653.908C79.9668 654.389 80.6465 654.629 81.748 654.629C82.5918 654.629 83.5762 654.365 84.7012 653.838V655.49C83.5645 656.041 82.4512 656.316 81.3613 656.316C80.2949 656.316 79.4043 656.012 78.6895 655.402C77.9746 654.793 77.6172 653.949 77.6172 652.871V641.234H73.2578V639.828H77.6172V635.979L78.7949 634.467H79.3398ZM100.82 647.316H88.0762C88.041 647.598 88.0234 647.879 88.0234 648.16C88.0234 649.965 88.668 651.494 89.957 652.748C91.2461 654.002 92.7695 654.629 94.5273 654.629C96.5781 654.629 98.582 653.826 100.539 652.221V654.172C98.6875 655.602 96.6133 656.316 94.3164 656.316C91.9844 656.316 90.0566 655.508 88.5332 653.891C87.0098 652.273 86.248 650.217 86.248 647.721C86.248 645.354 86.9512 643.396 88.3574 641.85C89.7637 640.291 91.5332 639.512 93.666 639.512C95.6699 639.512 97.3633 640.215 98.7461 641.621C100.129 643.016 100.82 644.914 100.82 647.316ZM88.3047 645.928H98.7812C98.1719 642.775 96.4668 641.199 93.666 641.199C92.3418 641.199 91.1934 641.615 90.2207 642.447C89.2598 643.268 88.6211 644.428 88.3047 645.928ZM106.023 639.828V642.641H106.094C107.441 640.555 109.217 639.512 111.42 639.512C113.248 639.512 114.707 640.098 115.797 641.27C116.887 642.441 117.432 644.064 117.432 646.139V656H115.709V646.789C115.709 643.062 114.244 641.199 111.314 641.199C109.17 641.199 107.406 642.354 106.023 644.662V656H104.301V639.828H106.023ZM125.113 634.467V639.828H129.648V641.234H125.113V650.85C125.113 652.396 125.236 653.416 125.482 653.908C125.74 654.389 126.42 654.629 127.521 654.629C128.365 654.629 129.35 654.365 130.475 653.838V655.49C129.338 656.041 128.225 656.316 127.135 656.316C126.068 656.316 125.178 656.012 124.463 655.402C123.748 654.793 123.391 653.949 123.391 652.871V641.234H119.031V639.828H123.391V635.979L124.568 634.467H125.113Z" fill="#4A2B7E"/>
<circle cx="68" cy="506" r="68" fill="#9984BC"/>
<path d="M223.277 806.443V808.025H211.781V817.852H222.979V819.451H211.781V829.418H223.559V831H209.883V806.443H223.277ZM228.533 814.828V817.676H228.604C229.916 815.566 231.633 814.512 233.754 814.512C236.227 814.512 237.967 815.807 238.975 818.396C240.498 815.807 242.373 814.512 244.6 814.512C246.275 814.512 247.629 815.109 248.66 816.305C249.691 817.5 250.207 819.088 250.207 821.068V831H248.484V821.824C248.484 820.078 248.115 818.707 247.377 817.711C246.639 816.703 245.602 816.199 244.266 816.199C243.27 816.199 242.402 816.498 241.664 817.096C240.926 817.693 240.164 818.654 239.379 819.979V831H237.639V821.789C237.639 819.996 237.252 818.619 236.479 817.658C235.717 816.686 234.691 816.199 233.402 816.199C231.527 816.199 229.904 817.354 228.533 819.662V831H226.811V814.828H228.533ZM267.574 828.188V829.629C266.086 830.754 264.996 831.316 264.305 831.316C263.906 831.316 263.631 831.188 263.479 830.93C263.326 830.66 263.215 830.121 263.145 829.312C261.445 830.648 259.758 831.316 258.082 831.316C256.863 831.316 255.832 830.918 254.988 830.121C254.145 829.324 253.723 828.357 253.723 827.221C253.723 825.463 254.537 824.08 256.166 823.072C257.795 822.053 260.121 821.467 263.145 821.314V819.258C263.145 817.055 261.949 815.953 259.559 815.953C258.035 815.953 256.389 816.639 254.619 818.01V816.234C256.447 815.086 258.188 814.512 259.84 814.512C261.305 814.512 262.512 814.875 263.461 815.602C264.41 816.316 264.885 817.359 264.885 818.73V828.803C264.885 829.354 265.014 829.629 265.271 829.629C265.6 829.629 266.367 829.148 267.574 828.188ZM263.145 827.801V822.756C260.93 822.674 259.09 823.066 257.625 823.934C256.172 824.789 255.445 825.885 255.445 827.221C255.445 827.971 255.75 828.604 256.359 829.119C256.969 829.635 257.73 829.893 258.645 829.893C260.121 829.893 261.621 829.195 263.145 827.801ZM272.039 806.443V809.396H270.299V806.443H272.039ZM272.039 814.828V831H270.299V814.828H272.039ZM278.824 806.443V831H277.084V806.443H278.824Z" fill="#4A2B7E"/>
<circle cx="245" cy="719" r="68" fill="#9984BC"/>
<path d="M357.09 152.443V154.025H345.594V163.852H356.791V165.451H345.594V175.418H357.371V177H343.695V152.443H357.09ZM362.346 160.828V163.676H362.416C363.729 161.566 365.445 160.512 367.566 160.512C370.039 160.512 371.779 161.807 372.787 164.396C374.311 161.807 376.186 160.512 378.412 160.512C380.088 160.512 381.441 161.109 382.473 162.305C383.504 163.5 384.02 165.088 384.02 167.068V177H382.297V167.824C382.297 166.078 381.928 164.707 381.189 163.711C380.451 162.703 379.414 162.199 378.078 162.199C377.082 162.199 376.215 162.498 375.477 163.096C374.738 163.693 373.977 164.654 373.191 165.979V177H371.451V167.789C371.451 165.996 371.064 164.619 370.291 163.658C369.529 162.686 368.504 162.199 367.215 162.199C365.34 162.199 363.717 163.354 362.346 165.662V177H360.623V160.828H362.346ZM401.387 174.188V175.629C399.898 176.754 398.809 177.316 398.117 177.316C397.719 177.316 397.443 177.188 397.291 176.93C397.139 176.66 397.027 176.121 396.957 175.312C395.258 176.648 393.57 177.316 391.895 177.316C390.676 177.316 389.645 176.918 388.801 176.121C387.957 175.324 387.535 174.357 387.535 173.221C387.535 171.463 388.35 170.08 389.979 169.072C391.607 168.053 393.934 167.467 396.957 167.314V165.258C396.957 163.055 395.762 161.953 393.371 161.953C391.848 161.953 390.201 162.639 388.432 164.01V162.234C390.26 161.086 392 160.512 393.652 160.512C395.117 160.512 396.324 160.875 397.273 161.602C398.223 162.316 398.697 163.359 398.697 164.73V174.803C398.697 175.354 398.826 175.629 399.084 175.629C399.412 175.629 400.18 175.148 401.387 174.188ZM396.957 173.801V168.756C394.742 168.674 392.902 169.066 391.438 169.934C389.984 170.789 389.258 171.885 389.258 173.221C389.258 173.971 389.562 174.604 390.172 175.119C390.781 175.635 391.543 175.893 392.457 175.893C393.934 175.893 395.434 175.195 396.957 173.801ZM405.852 152.443V155.396H404.111V152.443H405.852ZM405.852 160.828V177H404.111V160.828H405.852ZM412.637 152.443V177H410.896V152.443H412.637ZM329.404 195.184V197.258C326.428 195.676 323.51 194.885 320.65 194.885C317.604 194.885 315.055 195.922 313.004 197.996C310.953 200.07 309.928 202.66 309.928 205.766C309.928 208.906 310.959 211.49 313.021 213.518C315.084 215.545 317.715 216.559 320.914 216.559C323.586 216.559 326.498 215.721 329.65 214.045V216.014C326.744 217.549 323.844 218.316 320.949 218.316C317.211 218.316 314.094 217.121 311.598 214.73C309.113 212.328 307.871 209.34 307.871 205.766C307.871 202.168 309.143 199.162 311.686 196.748C314.229 194.334 317.258 193.127 320.773 193.127C323.539 193.127 326.416 193.812 329.404 195.184ZM345.629 215.188V216.629C344.141 217.754 343.051 218.316 342.359 218.316C341.961 218.316 341.686 218.188 341.533 217.93C341.381 217.66 341.27 217.121 341.199 216.312C339.5 217.648 337.812 218.316 336.137 218.316C334.918 218.316 333.887 217.918 333.043 217.121C332.199 216.324 331.777 215.357 331.777 214.221C331.777 212.463 332.592 211.08 334.221 210.072C335.85 209.053 338.176 208.467 341.199 208.314V206.258C341.199 204.055 340.004 202.953 337.613 202.953C336.09 202.953 334.443 203.639 332.674 205.01V203.234C334.502 202.086 336.242 201.512 337.895 201.512C339.359 201.512 340.566 201.875 341.516 202.602C342.465 203.316 342.939 204.359 342.939 205.73V215.803C342.939 216.354 343.068 216.629 343.326 216.629C343.654 216.629 344.422 216.148 345.629 215.188ZM341.199 214.801V209.756C338.984 209.674 337.145 210.066 335.68 210.934C334.227 211.789 333.5 212.885 333.5 214.221C333.5 214.971 333.805 215.604 334.414 216.119C335.023 216.635 335.785 216.893 336.699 216.893C338.176 216.893 339.676 216.195 341.199 214.801ZM349.725 201.828V204.676H349.795C351.107 202.566 352.824 201.512 354.945 201.512C357.418 201.512 359.158 202.807 360.166 205.396C361.689 202.807 363.564 201.512 365.791 201.512C367.467 201.512 368.82 202.109 369.852 203.305C370.883 204.5 371.398 206.088 371.398 208.068V218H369.676V208.824C369.676 207.078 369.307 205.707 368.568 204.711C367.83 203.703 366.793 203.199 365.457 203.199C364.461 203.199 363.594 203.498 362.855 204.096C362.117 204.693 361.355 205.654 360.57 206.979V218H358.83V208.789C358.83 206.996 358.443 205.619 357.67 204.658C356.908 203.686 355.883 203.199 354.594 203.199C352.719 203.199 351.096 204.354 349.725 206.662V218H348.002V201.828H349.725ZM377.604 201.828V202.742C379.232 201.922 380.855 201.512 382.473 201.512C384.77 201.512 386.674 202.303 388.186 203.885C389.697 205.467 390.453 207.459 390.453 209.861C390.453 212.229 389.674 214.232 388.115 215.873C386.557 217.502 384.652 218.316 382.402 218.316C380.844 218.316 379.244 217.912 377.604 217.104V226.279H375.881V201.828H377.604ZM377.604 204.395V215.416C379.068 216.225 380.557 216.629 382.068 216.629C384.002 216.629 385.566 216.02 386.762 214.801C387.957 213.582 388.555 211.982 388.555 210.002C388.555 208.033 387.922 206.41 386.656 205.133C385.391 203.844 383.791 203.199 381.857 203.199C380.475 203.199 379.057 203.598 377.604 204.395ZM407.117 215.188V216.629C405.629 217.754 404.539 218.316 403.848 218.316C403.449 218.316 403.174 218.188 403.021 217.93C402.869 217.66 402.758 217.121 402.688 216.312C400.988 217.648 399.301 218.316 397.625 218.316C396.406 218.316 395.375 217.918 394.531 217.121C393.688 216.324 393.266 215.357 393.266 214.221C393.266 212.463 394.08 211.08 395.709 210.072C397.338 209.053 399.664 208.467 402.688 208.314V206.258C402.688 204.055 401.492 202.953 399.102 202.953C397.578 202.953 395.932 203.639 394.162 205.01V203.234C395.99 202.086 397.73 201.512 399.383 201.512C400.848 201.512 402.055 201.875 403.004 202.602C403.953 203.316 404.428 204.359 404.428 205.73V215.803C404.428 216.354 404.557 216.629 404.814 216.629C405.143 216.629 405.91 216.148 407.117 215.188ZM402.688 214.801V209.756C400.473 209.674 398.633 210.066 397.168 210.934C395.715 211.789 394.988 212.885 394.988 214.221C394.988 214.971 395.293 215.604 395.902 216.119C396.512 216.635 397.273 216.893 398.188 216.893C399.664 216.893 401.164 216.195 402.688 214.801ZM411.582 193.443V196.396H409.842V193.443H411.582ZM411.582 201.828V218H409.842V201.828H411.582ZM429.125 201.828V203.234H425.451C426.939 204.594 427.684 206.023 427.684 207.523C427.684 208.871 427.391 209.938 426.805 210.723C426.23 211.508 425.539 212.082 424.73 212.445C423.934 212.797 422.867 213.148 421.531 213.5C420.195 213.84 419.357 214.162 419.018 214.467C418.678 214.771 418.508 215.123 418.508 215.521C418.508 215.99 418.725 216.365 419.158 216.646C419.604 216.928 420.969 217.133 423.254 217.262C425.551 217.391 427.098 217.83 427.895 218.58C428.691 219.33 429.09 220.326 429.09 221.568C429.09 223.033 428.451 224.182 427.174 225.014C425.896 225.857 424.121 226.279 421.848 226.279C419.586 226.279 417.84 225.881 416.609 225.084C415.379 224.299 414.764 223.256 414.764 221.955C414.764 219.846 416.334 218.539 419.475 218.035V217.965C417.729 217.555 416.855 216.787 416.855 215.662C416.855 214.525 417.934 213.646 420.09 213.025V212.955C418.672 212.533 417.594 211.836 416.855 210.863C416.129 209.879 415.766 208.789 415.766 207.594C415.766 205.895 416.357 204.512 417.541 203.445C418.725 202.367 420.424 201.828 422.639 201.828H429.125ZM421.707 211.883C422.891 211.883 423.904 211.461 424.748 210.617C425.604 209.762 426.031 208.742 426.031 207.559C426.031 206.375 425.604 205.367 424.748 204.535C423.904 203.691 422.879 203.27 421.672 203.27C420.477 203.27 419.469 203.68 418.648 204.5C417.828 205.32 417.418 206.316 417.418 207.488C417.418 208.707 417.834 209.744 418.666 210.6C419.498 211.455 420.512 211.883 421.707 211.883ZM421.953 224.838C423.629 224.838 424.959 224.551 425.943 223.977C426.939 223.402 427.438 222.646 427.438 221.709C427.438 219.811 425.721 218.861 422.287 218.861C418.373 218.861 416.416 219.857 416.416 221.85C416.416 223.842 418.262 224.838 421.953 224.838ZM433.432 201.828V204.641H433.502C434.85 202.555 436.625 201.512 438.828 201.512C440.656 201.512 442.115 202.098 443.205 203.27C444.295 204.441 444.84 206.064 444.84 208.139V218H443.117V208.789C443.117 205.062 441.652 203.199 438.723 203.199C436.578 203.199 434.814 204.354 433.432 206.662V218H431.709V201.828H433.432ZM458.252 202.883V204.746C456.611 203.645 455.135 203.094 453.822 203.094C452.85 203.094 452.029 203.357 451.361 203.885C450.693 204.412 450.359 205.062 450.359 205.836C450.359 206.387 450.559 206.896 450.957 207.365C451.367 207.822 452.486 208.402 454.314 209.105C456.154 209.809 457.355 210.541 457.918 211.303C458.48 212.064 458.762 212.914 458.762 213.852C458.762 215.105 458.252 216.166 457.232 217.033C456.213 217.889 454.953 218.316 453.453 218.316C451.824 218.316 450.207 217.824 448.602 216.84V215.152C450.512 216.137 452.205 216.629 453.682 216.629C454.678 216.629 455.492 216.365 456.125 215.838C456.77 215.311 457.092 214.637 457.092 213.816C457.092 213.254 456.881 212.738 456.459 212.27C456.049 211.789 454.924 211.186 453.084 210.459C451.256 209.732 450.066 209.018 449.516 208.314C448.977 207.6 448.707 206.809 448.707 205.941C448.707 204.711 449.211 203.668 450.219 202.812C451.238 201.945 452.475 201.512 453.928 201.512C455.252 201.512 456.693 201.969 458.252 202.883Z" fill="#4A2B7E"/>
<circle cx="383" cy="68" r="68" fill="#9984BC"/>
<path d="M598.396 597.674V599.766C596.264 598.512 594.43 597.885 592.895 597.885C591.418 597.885 590.182 598.336 589.186 599.238C588.201 600.129 587.709 601.236 587.709 602.561C587.709 603.51 588.002 604.365 588.588 605.127C589.174 605.889 590.398 606.621 592.262 607.324C594.125 608.027 595.484 608.613 596.34 609.082C597.195 609.551 597.922 610.23 598.52 611.121C599.117 612.012 599.416 613.166 599.416 614.584C599.416 616.471 598.725 618.064 597.342 619.365C595.959 620.666 594.271 621.316 592.279 621.316C590.24 621.316 588.143 620.602 585.986 619.172V616.939C588.365 618.686 590.428 619.559 592.174 619.559C593.627 619.559 594.852 619.09 595.848 618.152C596.855 617.203 597.359 616.043 597.359 614.672C597.359 613.629 597.049 612.691 596.428 611.859C595.807 611.016 594.547 610.23 592.648 609.504C590.75 608.777 589.391 608.191 588.57 607.746C587.762 607.301 587.07 606.668 586.496 605.848C585.934 605.016 585.652 603.949 585.652 602.648C585.652 600.844 586.344 599.309 587.727 598.043C589.109 596.766 590.773 596.127 592.719 596.127C594.629 596.127 596.521 596.643 598.396 597.674ZM610.666 604.512C613.01 604.512 614.961 605.314 616.52 606.92C618.09 608.525 618.875 610.529 618.875 612.932C618.875 615.322 618.09 617.32 616.52 618.926C614.961 620.52 613.01 621.316 610.666 621.316C608.322 621.316 606.359 620.52 604.777 618.926C603.207 617.32 602.422 615.322 602.422 612.932C602.422 610.529 603.207 608.525 604.777 606.92C606.359 605.314 608.322 604.512 610.666 604.512ZM610.666 619.629C612.482 619.629 614 618.996 615.219 617.73C616.438 616.453 617.047 614.854 617.047 612.932C617.047 611.021 616.432 609.422 615.201 608.133C613.982 606.844 612.471 606.199 610.666 606.199C608.838 606.199 607.309 606.838 606.078 608.115C604.859 609.393 604.25 610.998 604.25 612.932C604.25 614.854 604.859 616.453 606.078 617.73C607.309 618.996 608.838 619.629 610.666 619.629ZM634.062 605.303V607.219C632.516 606.539 631.115 606.199 629.861 606.199C628.057 606.199 626.586 606.826 625.449 608.08C624.324 609.334 623.762 610.963 623.762 612.967C623.762 615.006 624.324 616.629 625.449 617.836C626.586 619.031 628.104 619.629 630.002 619.629C631.385 619.629 632.838 619.318 634.361 618.697V620.49C632.744 621.041 631.244 621.316 629.861 621.316C627.494 621.316 625.578 620.566 624.113 619.066C622.66 617.566 621.934 615.598 621.934 613.16C621.934 610.617 622.666 608.543 624.131 606.938C625.607 605.32 627.488 604.512 629.773 604.512C631.027 604.512 632.457 604.775 634.062 605.303ZM639.688 596.443V599.396H637.947V596.443H639.688ZM639.688 604.828V621H637.947V604.828H639.688ZM657.371 618.188V619.629C655.883 620.754 654.793 621.316 654.102 621.316C653.703 621.316 653.428 621.188 653.275 620.93C653.123 620.66 653.012 620.121 652.941 619.312C651.242 620.648 649.555 621.316 647.879 621.316C646.66 621.316 645.629 620.918 644.785 620.121C643.941 619.324 643.52 618.357 643.52 617.221C643.52 615.463 644.334 614.08 645.963 613.072C647.592 612.053 649.918 611.467 652.941 611.314V609.258C652.941 607.055 651.746 605.953 649.355 605.953C647.832 605.953 646.186 606.639 644.416 608.01V606.234C646.244 605.086 647.984 604.512 649.637 604.512C651.102 604.512 652.309 604.875 653.258 605.602C654.207 606.316 654.682 607.359 654.682 608.73V618.803C654.682 619.354 654.811 619.629 655.068 619.629C655.396 619.629 656.164 619.148 657.371 618.188ZM652.941 617.801V612.756C650.727 612.674 648.887 613.066 647.422 613.934C645.969 614.789 645.242 615.885 645.242 617.221C645.242 617.971 645.547 618.604 646.156 619.119C646.766 619.635 647.527 619.893 648.441 619.893C649.918 619.893 651.418 619.195 652.941 617.801ZM661.836 596.443V621H660.096V596.443H661.836ZM688.432 607.852L697.783 596.443H699.699V621H697.783V599.221L688.432 610.699L679.062 599.221V621H677.164V596.443H679.062L688.432 607.852ZM718.525 612.316H705.781C705.746 612.598 705.729 612.879 705.729 613.16C705.729 614.965 706.373 616.494 707.662 617.748C708.951 619.002 710.475 619.629 712.232 619.629C714.283 619.629 716.287 618.826 718.244 617.221V619.172C716.393 620.602 714.318 621.316 712.021 621.316C709.689 621.316 707.762 620.508 706.238 618.891C704.715 617.273 703.953 615.217 703.953 612.721C703.953 610.354 704.656 608.396 706.062 606.85C707.469 605.291 709.238 604.512 711.371 604.512C713.375 604.512 715.068 605.215 716.451 606.621C717.834 608.016 718.525 609.914 718.525 612.316ZM706.01 610.928H716.486C715.877 607.775 714.172 606.199 711.371 606.199C710.047 606.199 708.898 606.615 707.926 607.447C706.965 608.268 706.326 609.428 706.01 610.928ZM735.945 596.443V621H734.205V619.734C732.729 620.789 731.135 621.316 729.424 621.316C727.127 621.316 725.188 620.508 723.605 618.891C722.035 617.262 721.25 615.264 721.25 612.896C721.25 610.494 722.023 608.496 723.57 606.902C725.129 605.309 727.08 604.512 729.424 604.512C730.912 604.512 732.506 604.945 734.205 605.812V596.443H735.945ZM734.205 618.152V607.711C732.658 606.703 731.088 606.199 729.494 606.199C727.631 606.199 726.096 606.82 724.889 608.062C723.682 609.293 723.078 610.869 723.078 612.791C723.078 614.748 723.723 616.377 725.012 617.678C726.301 618.979 727.912 619.629 729.846 619.629C731.346 619.629 732.799 619.137 734.205 618.152ZM742.379 596.443V599.396H740.639V596.443H742.379ZM742.379 604.828V621H740.639V604.828H742.379ZM760.062 618.188V619.629C758.574 620.754 757.484 621.316 756.793 621.316C756.395 621.316 756.119 621.188 755.967 620.93C755.814 620.66 755.703 620.121 755.633 619.312C753.934 620.648 752.246 621.316 750.57 621.316C749.352 621.316 748.32 620.918 747.477 620.121C746.633 619.324 746.211 618.357 746.211 617.221C746.211 615.463 747.025 614.08 748.654 613.072C750.283 612.053 752.609 611.467 755.633 611.314V609.258C755.633 607.055 754.438 605.953 752.047 605.953C750.523 605.953 748.877 606.639 747.107 608.01V606.234C748.936 605.086 750.676 604.512 752.328 604.512C753.793 604.512 755 604.875 755.949 605.602C756.898 606.316 757.373 607.359 757.373 608.73V618.803C757.373 619.354 757.502 619.629 757.76 619.629C758.088 619.629 758.855 619.148 760.062 618.188ZM755.633 617.801V612.756C753.418 612.674 751.578 613.066 750.113 613.934C748.66 614.789 747.934 615.885 747.934 617.221C747.934 617.971 748.238 618.604 748.848 619.119C749.457 619.635 750.219 619.893 751.133 619.893C752.609 619.893 754.109 619.195 755.633 617.801Z" fill="#4A2B7E"/>
<circle cx="673" cy="506" r="68" fill="#9984BC"/>
<circle cx="378" cy="434" r="153" fill="white" fill-opacity="0.85"/>
<path d="M286.232 412.351V441H280.695V412.351H286.232ZM315.66 421.477C317.136 421.477 318.381 421.825 319.392 422.522C320.418 423.206 321.183 424.129 321.689 425.291C322.769 423.965 323.843 423.001 324.909 422.399C325.989 421.784 327.172 421.477 328.457 421.477C330.48 421.477 332.114 422.14 333.358 423.466C334.602 424.778 335.224 426.535 335.224 428.736V441H330.179V429.577C330.179 428.251 329.892 427.205 329.318 426.439C328.758 425.674 327.937 425.291 326.857 425.291C325.312 425.291 323.829 426.282 322.407 428.265V441H317.383V429.495C317.383 428.183 317.082 427.157 316.48 426.419C315.879 425.667 315.072 425.291 314.06 425.291C313.24 425.291 312.488 425.53 311.804 426.009C311.121 426.474 310.389 427.226 309.61 428.265V441H304.565V421.846H309.61V424.532C310.526 423.493 311.456 422.728 312.399 422.235C313.343 421.729 314.429 421.477 315.66 421.477ZM347.436 421.477C349.897 421.477 351.777 422.003 353.076 423.056C354.375 424.095 355.024 425.551 355.024 427.424V436.796C355.024 437.521 355.318 437.883 355.906 437.883C356.152 437.883 356.494 437.78 356.931 437.575C357.383 437.356 357.759 437.11 358.059 436.837V439.749C356.296 440.829 354.682 441.369 353.22 441.369C352.317 441.369 351.62 441.219 351.128 440.918C350.649 440.617 350.314 440.084 350.123 439.318C348.195 440.686 346.261 441.369 344.319 441.369C342.938 441.369 341.749 440.904 340.751 439.975C339.766 439.045 339.274 437.931 339.274 436.632C339.274 434.978 339.766 433.672 340.751 432.715C341.735 431.758 343.458 430.924 345.919 430.213L350 429.023V428.142C350 426.269 348.865 425.332 346.596 425.332C345.433 425.332 344.278 425.599 343.13 426.132C341.981 426.665 340.935 427.451 339.992 428.49V423.958C342.084 422.304 344.565 421.477 347.436 421.477ZM344.36 435.873C344.36 436.57 344.579 437.131 345.016 437.555C345.468 437.979 346.021 438.19 346.678 438.19C347.785 438.19 348.892 437.685 350 436.673V431.628C348.592 432.106 347.484 432.558 346.678 432.981C345.885 433.405 345.297 433.836 344.914 434.273C344.545 434.711 344.36 435.244 344.36 435.873ZM372.363 421.477C374.414 421.477 376.048 422.153 377.265 423.507C378.495 424.847 379.11 426.617 379.11 428.818V441H374.086V429.331C374.086 428.087 373.785 427.103 373.184 426.378C372.596 425.653 371.789 425.291 370.764 425.291C369.984 425.291 369.253 425.523 368.569 425.988C367.886 426.439 367.134 427.198 366.313 428.265V441H361.268V421.846H366.313V424.532C367.243 423.438 368.193 422.659 369.164 422.194C370.148 421.716 371.215 421.477 372.363 421.477ZM391.302 421.477C393.763 421.477 395.643 422.003 396.941 423.056C398.24 424.095 398.89 425.551 398.89 427.424V436.796C398.89 437.521 399.184 437.883 399.771 437.883C400.018 437.883 400.359 437.78 400.797 437.575C401.248 437.356 401.624 437.11 401.925 436.837V439.749C400.161 440.829 398.548 441.369 397.085 441.369C396.183 441.369 395.485 441.219 394.993 440.918C394.515 440.617 394.18 440.084 393.988 439.318C392.061 440.686 390.126 441.369 388.185 441.369C386.804 441.369 385.614 440.904 384.616 439.975C383.632 439.045 383.14 437.931 383.14 436.632C383.14 434.978 383.632 433.672 384.616 432.715C385.601 431.758 387.323 430.924 389.784 430.213L393.865 429.023V428.142C393.865 426.269 392.73 425.332 390.461 425.332C389.299 425.332 388.144 425.599 386.995 426.132C385.847 426.665 384.801 427.451 383.857 428.49V423.958C385.949 422.304 388.431 421.477 391.302 421.477ZM388.226 435.873C388.226 436.57 388.444 437.131 388.882 437.555C389.333 437.979 389.887 438.19 390.543 438.19C391.65 438.19 392.758 437.685 393.865 436.673V431.628C392.457 432.106 391.35 432.558 390.543 432.981C389.75 433.405 389.162 433.836 388.779 434.273C388.41 434.711 388.226 435.244 388.226 435.873ZM422.812 421.846V425.414H419.53C420.064 426.07 420.433 426.679 420.638 427.239C420.857 427.786 420.966 428.381 420.966 429.023C420.966 430.555 420.392 431.956 419.243 433.228C418.232 434.335 416.495 435.053 414.034 435.381C412.708 435.545 411.826 435.736 411.389 435.955C410.965 436.16 410.753 436.481 410.753 436.919C410.753 437.315 411.013 437.623 411.532 437.842C412.066 438.047 412.913 438.245 414.075 438.437C416.96 438.901 419.079 439.612 420.433 440.569C421.8 441.526 422.483 442.791 422.483 444.363C422.483 446.387 421.656 447.938 420.002 449.019C418.348 450.112 415.969 450.659 412.865 450.659C409.926 450.659 407.588 450.146 405.852 449.121C404.115 448.096 403.247 446.722 403.247 444.999C403.247 442.565 404.922 440.884 408.272 439.954C406.822 439.325 406.098 438.498 406.098 437.473C406.098 436.133 407.191 435.21 409.379 434.704V434.622C407.889 434.212 406.699 433.48 405.811 432.428C404.936 431.375 404.498 430.145 404.498 428.736C404.498 426.672 405.277 425.011 406.836 423.753C408.395 422.481 410.432 421.846 412.947 421.846H422.812ZM409.153 428.777C409.153 429.775 409.502 430.609 410.199 431.279C410.91 431.936 411.772 432.264 412.783 432.264C413.822 432.264 414.677 431.922 415.347 431.238C416.017 430.541 416.352 429.666 416.352 428.613C416.352 427.67 416.003 426.884 415.306 426.255C414.608 425.612 413.768 425.291 412.783 425.291C411.772 425.291 410.91 425.64 410.199 426.337C409.502 427.021 409.153 427.834 409.153 428.777ZM407.943 444.773C407.943 446.482 409.652 447.337 413.07 447.337C414.547 447.337 415.702 447.098 416.536 446.619C417.384 446.154 417.808 445.539 417.808 444.773C417.808 443.926 417.329 443.283 416.372 442.846C415.429 442.422 414.089 442.21 412.353 442.21C411.054 442.21 409.994 442.449 409.174 442.928C408.354 443.42 407.943 444.035 407.943 444.773ZM434.716 421.477C437.532 421.477 439.761 422.379 441.402 424.184C443.042 425.988 443.862 428.483 443.862 431.669V432.428H430.307C430.512 434.137 431.148 435.456 432.214 436.386C433.294 437.302 434.771 437.76 436.644 437.76C437.847 437.76 439.002 437.555 440.11 437.145C441.231 436.721 442.386 436.085 443.575 435.237V438.99C441.333 440.576 438.612 441.369 435.413 441.369C432.392 441.369 429.924 440.46 428.01 438.642C426.096 436.823 425.139 434.403 425.139 431.382C425.139 428.47 426.021 426.091 427.784 424.245C429.562 422.399 431.872 421.477 434.716 421.477ZM439.125 429.372C438.988 427.978 438.565 426.891 437.854 426.111C437.143 425.318 436.165 424.922 434.921 424.922C433.65 424.922 432.624 425.298 431.845 426.05C431.079 426.802 430.594 427.909 430.389 429.372H439.125ZM450.906 435.073C451.74 435.073 452.472 435.381 453.101 435.996C453.743 436.611 454.065 437.356 454.065 438.231C454.065 439.079 453.757 439.817 453.142 440.446C452.527 441.062 451.781 441.369 450.906 441.369C450.045 441.369 449.3 441.062 448.671 440.446C448.056 439.817 447.748 439.079 447.748 438.231C447.748 437.356 448.063 436.611 448.692 435.996C449.321 435.381 450.059 435.073 450.906 435.073ZM461.662 435.073C462.496 435.073 463.228 435.381 463.857 435.996C464.499 436.611 464.821 437.356 464.821 438.231C464.821 439.079 464.513 439.817 463.898 440.446C463.283 441.062 462.537 441.369 461.662 441.369C460.801 441.369 460.056 441.062 459.427 440.446C458.812 439.817 458.504 439.079 458.504 438.231C458.504 437.356 458.819 436.611 459.448 435.996C460.076 435.381 460.815 435.073 461.662 435.073ZM472.418 435.073C473.252 435.073 473.984 435.381 474.613 435.996C475.255 436.611 475.577 437.356 475.577 438.231C475.577 439.079 475.269 439.817 474.654 440.446C474.038 441.062 473.293 441.369 472.418 441.369C471.557 441.369 470.812 441.062 470.183 440.446C469.568 439.817 469.26 439.079 469.26 438.231C469.26 437.356 469.575 436.611 470.204 435.996C470.832 435.381 471.571 435.073 472.418 435.073Z" fill="#4A2B7E"/>
<line x1="173.277" y1="268.584" x2="251.277" y2="320.584" stroke="#9984BC"/>
<line x1="379.5" y1="234.985" x2="380.5" y2="268.985" stroke="#9984BC"/>
<line x1="575.334" y1="258.372" x2="505.334" y2="321.372" stroke="#9984BC"/>
<line x1="147.89" y1="492.512" x2="218.89" y2="476.512" stroke="#9984BC"/>
<line x1="272.533" y1="638.822" x2="291.533" y2="588.822" stroke="#9984BC"/>
<line x1="454.446" y1="590.774" x2="487.446" y2="655.774" stroke="#9984BC"/>
<line x1="539.098" y1="465.51" x2="594.098" y2="476.51" stroke="#9984BC"/>
<path d="M673 199.875H662.875C661.019 199.875 659.5 201.394 659.5 203.25V213.375C659.5 215.231 661.019 216.75 662.875 216.75H673C674.856 216.75 676.375 215.231 676.375 213.375V203.25C676.375 201.394 674.856 199.875 673 199.875ZM673 166.125V169.5H646V166.125C646 164.269 644.481 162.75 642.625 162.75C640.769 162.75 639.25 164.269 639.25 166.125V169.5H635.875C632.129 169.5 629.159 172.538 629.159 176.25L629.125 223.5C629.125 227.213 632.129 230.25 635.875 230.25H683.125C686.838 230.25 689.875 227.213 689.875 223.5V176.25C689.875 172.538 686.838 169.5 683.125 169.5H679.75V166.125C679.75 164.269 678.231 162.75 676.375 162.75C674.519 162.75 673 164.269 673 166.125ZM679.75 223.5H639.25C637.394 223.5 635.875 221.981 635.875 220.125V186.375H683.125V220.125C683.125 221.981 681.606 223.5 679.75 223.5Z" fill="white"/>
<path d="M119.901 243.503L111.329 242.524C109.27 242.288 107.245 242.996 105.794 244.448L99.5838 250.657C90.0325 245.797 82.2025 238.001 77.3425 228.416L83.5863 222.173C85.0375 220.721 85.7463 218.696 85.51 216.638L84.5313 208.133C84.1263 204.724 81.2575 202.159 77.815 202.159H71.9763C68.1625 202.159 64.99 205.331 65.2263 209.145C67.015 237.968 90.0663 260.985 118.855 262.774C122.669 263.01 125.841 259.837 125.841 256.024V250.185C125.875 246.776 123.31 243.908 119.901 243.503Z" fill="white"/>
<path d="M271.5 691.5H217.5C213.787 691.5 210.784 694.537 210.784 698.25L210.75 738.75C210.75 742.463 213.787 745.5 217.5 745.5H271.5C275.213 745.5 278.25 742.463 278.25 738.75V698.25C278.25 694.537 275.213 691.5 271.5 691.5ZM270.15 705.844L246.289 720.761C245.209 721.436 243.791 721.436 242.711 720.761L218.85 705.844C218.006 705.304 217.5 704.393 217.5 703.414C217.5 701.153 219.964 699.802 221.888 700.984L244.5 715.125L267.113 700.984C269.036 699.802 271.5 701.153 271.5 703.414C271.5 704.393 270.994 705.304 270.15 705.844Z" fill="white"/>
<path d="M362.475 95.85L421.369 70.605C424.103 69.4238 424.103 65.5763 421.369 64.395L362.475 39.15C360.248 38.1713 357.784 39.825 357.784 42.2213L357.75 57.78C357.75 59.4675 358.999 60.9188 360.686 61.1213L408.375 67.5L360.686 73.845C358.999 74.0813 357.75 75.5325 357.75 77.22L357.784 92.7788C357.784 95.175 360.248 96.8288 362.475 95.85Z" fill="white"/>
<path d="M516.375 748H538.312C542.97 748 546.75 744.22 546.75 739.562C546.75 734.905 542.97 731.125 538.312 731.125H538.144C537.334 725.421 532.44 721 526.5 721C521.775 721 517.725 723.801 515.835 727.818H515.295C510.199 728.358 506.25 732.644 506.25 737.875C506.25 743.478 510.773 748 516.375 748ZM556.875 704.125H496.125C492.412 704.125 489.375 707.162 489.375 710.875V758.125C489.375 761.838 492.412 764.875 496.125 764.875H556.875C560.588 764.875 563.625 761.838 563.625 758.125V710.875C563.625 707.162 560.588 704.125 556.875 704.125ZM553.5 758.159H499.5C497.644 758.159 496.125 756.64 496.125 754.784V714.216C496.125 712.36 497.644 710.841 499.5 710.841H553.5C555.356 710.841 556.875 712.36 556.875 714.216V754.784C556.875 756.64 555.356 758.159 553.5 758.159Z" fill="white"/>
<path d="M672.5 506.344C676.685 506.344 680.094 502.935 680.094 498.75C680.094 494.565 676.685 491.156 672.5 491.156C668.315 491.156 664.906 494.565 664.906 498.75C664.906 502.935 668.315 506.344 672.5 506.344ZM687.688 519.844C687.688 514.781 677.562 512.25 672.5 512.25C667.438 512.25 657.312 514.781 657.312 519.844V522.375H687.688V519.844ZM696.125 475.125H648.875C645.162 475.125 642.125 478.162 642.125 481.875V529.125C642.125 532.838 645.162 535.875 648.875 535.875H696.125C699.838 535.875 702.875 532.838 702.875 529.125V481.875C702.875 478.162 699.838 475.125 696.125 475.125ZM692.75 529.125H652.25C650.394 529.125 648.875 527.606 648.875 525.75V485.25C648.875 483.394 650.394 481.875 652.25 481.875H692.75C694.606 481.875 696.125 483.394 696.125 485.25V525.75C696.125 527.606 694.606 529.125 692.75 529.125Z" fill="white"/>
<path d="M91.5 478.5H37.5C33.7875 478.5 30.7837 481.537 30.7837 485.25L30.75 525.75C30.75 529.463 33.7875 532.5 37.5 532.5H91.5C95.2125 532.5 98.25 529.463 98.25 525.75V485.25C98.25 481.537 95.2125 478.5 91.5 478.5ZM37.5 495.375H72.9375V507.188H37.5V495.375ZM37.5 513.938H72.9375V525.75H40.875C39.0188 525.75 37.5 524.231 37.5 522.375V513.938ZM88.125 525.75H79.6875V495.375H91.5V522.375C91.5 524.231 89.9813 525.75 88.125 525.75Z" fill="white"/>
</svg>
