<svg width="793" height="581" viewBox="0 0 793 581" fill="none" xmlns="http://www.w3.org/2000/svg">
<path d="M673.742 271.443V296H671.844V271.443H673.742ZM680.475 279.828V282.641H680.545C681.893 280.555 683.668 279.512 685.871 279.512C687.699 279.512 689.158 280.098 690.248 281.27C691.338 282.441 691.883 284.064 691.883 286.139V296H690.16V286.789C690.16 283.062 688.695 281.199 685.766 281.199C683.621 281.199 681.857 282.354 680.475 284.662V296H678.752V279.828H680.475ZM699.564 274.467V279.828H704.1V281.234H699.564V290.85C699.564 292.396 699.688 293.416 699.934 293.908C700.191 294.389 700.871 294.629 701.973 294.629C702.816 294.629 703.801 294.365 704.926 293.838V295.49C703.789 296.041 702.676 296.316 701.586 296.316C700.52 296.316 699.629 296.012 698.914 295.402C698.199 294.793 697.842 293.949 697.842 292.871V281.234H693.482V279.828H697.842V275.979L699.02 274.467H699.564ZM721.045 287.316H708.301C708.266 287.598 708.248 287.879 708.248 288.16C708.248 289.965 708.893 291.494 710.182 292.748C711.471 294.002 712.994 294.629 714.752 294.629C716.803 294.629 718.807 293.826 720.764 292.221V294.172C718.912 295.602 716.838 296.316 714.541 296.316C712.209 296.316 710.281 295.508 708.758 293.891C707.234 292.273 706.473 290.217 706.473 287.721C706.473 285.354 707.176 283.396 708.582 281.85C709.988 280.291 711.758 279.512 713.891 279.512C715.895 279.512 717.588 280.215 718.971 281.621C720.354 283.016 721.045 284.914 721.045 287.316ZM708.529 285.928H719.006C718.396 282.775 716.691 281.199 713.891 281.199C712.566 281.199 711.418 281.615 710.445 282.447C709.484 283.268 708.846 284.428 708.529 285.928ZM735.723 281.428L734.721 283.045C733.373 281.814 732.289 281.199 731.469 281.199C729.852 281.199 728.123 282.746 726.283 285.84V296H724.561V279.828H726.283V284.082H726.354C728.287 281.035 730.174 279.512 732.014 279.512C733.068 279.512 734.305 280.15 735.723 281.428ZM739.15 279.828V282.641H739.221C740.568 280.555 742.344 279.512 744.547 279.512C746.375 279.512 747.834 280.098 748.924 281.27C750.014 282.441 750.559 284.064 750.559 286.139V296H748.836V286.789C748.836 283.062 747.371 281.199 744.441 281.199C742.297 281.199 740.533 282.354 739.15 284.662V296H737.428V279.828H739.15ZM768.857 287.316H756.113C756.078 287.598 756.061 287.879 756.061 288.16C756.061 289.965 756.705 291.494 757.994 292.748C759.283 294.002 760.807 294.629 762.564 294.629C764.615 294.629 766.619 293.826 768.576 292.221V294.172C766.725 295.602 764.65 296.316 762.354 296.316C760.021 296.316 758.094 295.508 756.57 293.891C755.047 292.273 754.285 290.217 754.285 287.721C754.285 285.354 754.988 283.396 756.395 281.85C757.801 280.291 759.57 279.512 761.703 279.512C763.707 279.512 765.4 280.215 766.783 281.621C768.166 283.016 768.857 284.914 768.857 287.316ZM756.342 285.928H766.818C766.209 282.775 764.504 281.199 761.703 281.199C760.379 281.199 759.23 281.615 758.258 282.447C757.297 283.268 756.658 284.428 756.342 285.928ZM775.502 274.467V279.828H780.037V281.234H775.502V290.85C775.502 292.396 775.625 293.416 775.871 293.908C776.129 294.389 776.809 294.629 777.91 294.629C778.754 294.629 779.738 294.365 780.863 293.838V295.49C779.727 296.041 778.613 296.316 777.523 296.316C776.457 296.316 775.566 296.012 774.852 295.402C774.137 294.793 773.779 293.949 773.779 292.871V281.234H769.42V279.828H773.779V275.979L774.957 274.467H775.502ZM663.881 312.443H670.174C672.811 312.443 674.826 313.018 676.221 314.166C677.615 315.303 678.312 316.844 678.312 318.789C678.312 321.625 676.754 323.617 673.637 324.766C674.445 325.152 675.535 326.4 676.906 328.51L682.461 337H680.229L675.939 330.268C674.51 328.018 673.396 326.617 672.6 326.066C671.803 325.504 670.637 325.223 669.102 325.223H665.779V337H663.881V312.443ZM665.779 314.025V323.641H669.857C671.932 323.641 673.514 323.225 674.604 322.393C675.705 321.549 676.256 320.359 676.256 318.824C676.256 317.312 675.699 316.135 674.586 315.291C673.473 314.447 671.873 314.025 669.787 314.025H665.779ZM697.684 328.316H684.939C684.904 328.598 684.887 328.879 684.887 329.16C684.887 330.965 685.531 332.494 686.82 333.748C688.109 335.002 689.633 335.629 691.391 335.629C693.441 335.629 695.445 334.826 697.402 333.221V335.172C695.551 336.602 693.477 337.316 691.18 337.316C688.848 337.316 686.92 336.508 685.396 334.891C683.873 333.273 683.111 331.217 683.111 328.721C683.111 326.354 683.814 324.396 685.221 322.85C686.627 321.291 688.396 320.512 690.529 320.512C692.533 320.512 694.227 321.215 695.609 322.621C696.992 324.016 697.684 325.914 697.684 328.316ZM685.168 326.928H695.645C695.035 323.775 693.33 322.199 690.529 322.199C689.205 322.199 688.057 322.615 687.084 323.447C686.123 324.268 685.484 325.428 685.168 326.928ZM710.059 321.883V323.746C708.418 322.645 706.941 322.094 705.629 322.094C704.656 322.094 703.836 322.357 703.168 322.885C702.5 323.412 702.166 324.062 702.166 324.836C702.166 325.387 702.365 325.896 702.764 326.365C703.174 326.822 704.293 327.402 706.121 328.105C707.961 328.809 709.162 329.541 709.725 330.303C710.287 331.064 710.568 331.914 710.568 332.852C710.568 334.105 710.059 335.166 709.039 336.033C708.02 336.889 706.76 337.316 705.26 337.316C703.631 337.316 702.014 336.824 700.408 335.84V334.152C702.318 335.137 704.012 335.629 705.488 335.629C706.484 335.629 707.299 335.365 707.932 334.838C708.576 334.311 708.898 333.637 708.898 332.816C708.898 332.254 708.688 331.738 708.266 331.27C707.855 330.789 706.73 330.186 704.891 329.459C703.062 328.732 701.873 328.018 701.322 327.314C700.783 326.6 700.514 325.809 700.514 324.941C700.514 323.711 701.018 322.668 702.025 321.812C703.045 320.945 704.281 320.512 705.734 320.512C707.059 320.512 708.5 320.969 710.059 321.883ZM727.707 328.316H714.963C714.928 328.598 714.91 328.879 714.91 329.16C714.91 330.965 715.555 332.494 716.844 333.748C718.133 335.002 719.656 335.629 721.414 335.629C723.465 335.629 725.469 334.826 727.426 333.221V335.172C725.574 336.602 723.5 337.316 721.203 337.316C718.871 337.316 716.943 336.508 715.42 334.891C713.896 333.273 713.135 331.217 713.135 328.721C713.135 326.354 713.838 324.396 715.244 322.85C716.65 321.291 718.42 320.512 720.553 320.512C722.557 320.512 724.25 321.215 725.633 322.621C727.016 324.016 727.707 325.914 727.707 328.316ZM715.191 326.928H725.668C725.059 323.775 723.354 322.199 720.553 322.199C719.229 322.199 718.08 322.615 717.107 323.447C716.146 324.268 715.508 325.428 715.191 326.928ZM744.107 334.188V335.629C742.619 336.754 741.529 337.316 740.838 337.316C740.439 337.316 740.164 337.188 740.012 336.93C739.859 336.66 739.748 336.121 739.678 335.312C737.979 336.648 736.291 337.316 734.615 337.316C733.396 337.316 732.365 336.918 731.521 336.121C730.678 335.324 730.256 334.357 730.256 333.221C730.256 331.463 731.07 330.08 732.699 329.072C734.328 328.053 736.654 327.467 739.678 327.314V325.258C739.678 323.055 738.482 321.953 736.092 321.953C734.568 321.953 732.922 322.639 731.152 324.01V322.234C732.98 321.086 734.721 320.512 736.373 320.512C737.838 320.512 739.045 320.875 739.994 321.602C740.943 322.316 741.418 323.359 741.418 324.73V334.803C741.418 335.354 741.547 335.629 741.805 335.629C742.133 335.629 742.9 335.148 744.107 334.188ZM739.678 333.801V328.756C737.463 328.674 735.623 329.066 734.158 329.934C732.705 330.789 731.979 331.885 731.979 333.221C731.979 333.971 732.283 334.604 732.893 335.119C733.502 335.635 734.264 335.893 735.178 335.893C736.654 335.893 738.154 335.195 739.678 333.801ZM757.748 322.428L756.746 324.045C755.398 322.814 754.314 322.199 753.494 322.199C751.877 322.199 750.148 323.746 748.309 326.84V337H746.586V320.828H748.309V325.082H748.379C750.312 322.035 752.199 320.512 754.039 320.512C755.094 320.512 756.33 321.15 757.748 322.428ZM769.947 321.303V323.219C768.4 322.539 767 322.199 765.746 322.199C763.941 322.199 762.471 322.826 761.334 324.08C760.209 325.334 759.646 326.963 759.646 328.967C759.646 331.006 760.209 332.629 761.334 333.836C762.471 335.031 763.988 335.629 765.887 335.629C767.27 335.629 768.723 335.318 770.246 334.697V336.49C768.629 337.041 767.129 337.316 765.746 337.316C763.379 337.316 761.463 336.566 759.998 335.066C758.545 333.566 757.818 331.598 757.818 329.16C757.818 326.617 758.551 324.543 760.016 322.938C761.492 321.32 763.373 320.512 765.658 320.512C766.912 320.512 768.342 320.775 769.947 321.303ZM775.273 312.443V323.641H775.344C776.691 321.555 778.467 320.512 780.67 320.512C782.498 320.512 783.957 321.098 785.047 322.27C786.137 323.441 786.682 325.053 786.682 327.104V337H784.959V327.789C784.959 324.062 783.494 322.199 780.564 322.199C778.467 322.199 776.703 323.354 775.273 325.662V337H773.551V312.443H775.273Z" fill="#4A2B7E"/>
<circle cx="725" cy="184" r="68" fill="#9984BC"/>
<path d="M542.277 547.443V549.025H530.781V558.852H541.979V560.451H530.781V570.418H542.559V572H528.883V547.443H542.277ZM559.82 547.443V572H558.08V570.734C556.604 571.789 555.01 572.316 553.299 572.316C551.002 572.316 549.062 571.508 547.48 569.891C545.91 568.262 545.125 566.264 545.125 563.896C545.125 561.494 545.898 559.496 547.445 557.902C549.004 556.309 550.955 555.512 553.299 555.512C554.787 555.512 556.381 555.945 558.08 556.812V547.443H559.82ZM558.08 569.152V558.711C556.533 557.703 554.963 557.199 553.369 557.199C551.506 557.199 549.971 557.82 548.764 559.062C547.557 560.293 546.953 561.869 546.953 563.791C546.953 565.748 547.598 567.377 548.887 568.678C550.176 569.979 551.787 570.629 553.721 570.629C555.221 570.629 556.674 570.137 558.08 569.152ZM566.254 547.443V550.396H564.514V547.443H566.254ZM566.254 555.828V572H564.514V555.828H566.254ZM574.182 550.467V555.828H578.717V557.234H574.182V566.85C574.182 568.396 574.305 569.416 574.551 569.908C574.809 570.389 575.488 570.629 576.59 570.629C577.434 570.629 578.418 570.365 579.543 569.838V571.49C578.406 572.041 577.293 572.316 576.203 572.316C575.137 572.316 574.246 572.012 573.531 571.402C572.816 570.793 572.459 569.949 572.459 568.871V557.234H568.1V555.828H572.459V551.979L573.637 550.467H574.182ZM583.902 547.443V550.396H582.162V547.443H583.902ZM583.902 555.828V572H582.162V555.828H583.902ZM590.389 555.828V558.641H590.459C591.807 556.555 593.582 555.512 595.785 555.512C597.613 555.512 599.072 556.098 600.162 557.27C601.252 558.441 601.797 560.064 601.797 562.139V572H600.074V562.789C600.074 559.062 598.609 557.199 595.68 557.199C593.535 557.199 591.771 558.354 590.389 560.662V572H588.666V555.828H590.389ZM619.094 555.828V557.234H615.42C616.908 558.594 617.652 560.023 617.652 561.523C617.652 562.871 617.359 563.938 616.773 564.723C616.199 565.508 615.508 566.082 614.699 566.445C613.902 566.797 612.836 567.148 611.5 567.5C610.164 567.84 609.326 568.162 608.986 568.467C608.646 568.771 608.477 569.123 608.477 569.521C608.477 569.99 608.693 570.365 609.127 570.646C609.572 570.928 610.938 571.133 613.223 571.262C615.52 571.391 617.066 571.83 617.863 572.58C618.66 573.33 619.059 574.326 619.059 575.568C619.059 577.033 618.42 578.182 617.143 579.014C615.865 579.857 614.09 580.279 611.816 580.279C609.555 580.279 607.809 579.881 606.578 579.084C605.348 578.299 604.732 577.256 604.732 575.955C604.732 573.846 606.303 572.539 609.443 572.035V571.965C607.697 571.555 606.824 570.787 606.824 569.662C606.824 568.525 607.902 567.646 610.059 567.025V566.955C608.641 566.533 607.562 565.836 606.824 564.863C606.098 563.879 605.734 562.789 605.734 561.594C605.734 559.895 606.326 558.512 607.51 557.445C608.693 556.367 610.393 555.828 612.607 555.828H619.094ZM611.676 565.883C612.859 565.883 613.873 565.461 614.717 564.617C615.572 563.762 616 562.742 616 561.559C616 560.375 615.572 559.367 614.717 558.535C613.873 557.691 612.848 557.27 611.641 557.27C610.445 557.27 609.438 557.68 608.617 558.5C607.797 559.32 607.387 560.316 607.387 561.488C607.387 562.707 607.803 563.744 608.635 564.6C609.467 565.455 610.48 565.883 611.676 565.883ZM611.922 578.838C613.598 578.838 614.928 578.551 615.912 577.977C616.908 577.402 617.406 576.646 617.406 575.709C617.406 573.811 615.689 572.861 612.256 572.861C608.342 572.861 606.385 573.857 606.385 575.85C606.385 577.842 608.23 578.838 611.922 578.838Z" fill="#4A2B7E"/>
<circle cx="573" cy="460" r="68" fill="#9984BC"/>
<path d="M50.3574 338.521L42.1133 359.246H41.6035L31.7422 334.443H33.6934L41.8145 354.816L50.0586 334.443H50.6387L58.8477 354.816L66.9863 334.443H68.9375L59.0586 359.246H58.6016L50.3574 338.521ZM76.127 342.512C78.4707 342.512 80.4219 343.314 81.9805 344.92C83.5508 346.525 84.3359 348.529 84.3359 350.932C84.3359 353.322 83.5508 355.32 81.9805 356.926C80.4219 358.52 78.4707 359.316 76.127 359.316C73.7832 359.316 71.8203 358.52 70.2383 356.926C68.668 355.32 67.8828 353.322 67.8828 350.932C67.8828 348.529 68.668 346.525 70.2383 344.92C71.8203 343.314 73.7832 342.512 76.127 342.512ZM76.127 357.629C77.9434 357.629 79.4609 356.996 80.6797 355.73C81.8984 354.453 82.5078 352.854 82.5078 350.932C82.5078 349.021 81.8926 347.422 80.6621 346.133C79.4434 344.844 77.9316 344.199 76.127 344.199C74.2988 344.199 72.7695 344.838 71.5391 346.115C70.3203 347.393 69.7109 348.998 69.7109 350.932C69.7109 352.854 70.3203 354.453 71.5391 355.73C72.7695 356.996 74.2988 357.629 76.127 357.629ZM99.3125 344.428L98.3105 346.045C96.9629 344.814 95.8789 344.199 95.0586 344.199C93.4414 344.199 91.7129 345.746 89.873 348.84V359H88.1504V342.828H89.873V347.082H89.9434C91.877 344.035 93.7637 342.512 95.6035 342.512C96.6582 342.512 97.8945 343.15 99.3125 344.428ZM114.043 334.443V359H112.303V357.734C110.826 358.789 109.232 359.316 107.521 359.316C105.225 359.316 103.285 358.508 101.703 356.891C100.133 355.262 99.3477 353.264 99.3477 350.896C99.3477 348.494 100.121 346.496 101.668 344.902C103.227 343.309 105.178 342.512 107.521 342.512C109.01 342.512 110.604 342.945 112.303 343.812V334.443H114.043ZM112.303 356.152V345.711C110.756 344.703 109.186 344.199 107.592 344.199C105.729 344.199 104.193 344.82 102.986 346.062C101.779 347.293 101.176 348.869 101.176 350.791C101.176 352.748 101.82 354.377 103.109 355.678C104.398 356.979 106.01 357.629 107.943 357.629C109.443 357.629 110.896 357.137 112.303 356.152ZM3.08984 375.443H9.85742C12.4473 375.443 14.4277 376.023 15.7988 377.184C17.1816 378.344 17.873 379.926 17.873 381.93C17.873 383.957 17.1758 385.562 15.7812 386.746C14.3984 387.93 12.3652 388.521 9.68164 388.521H4.98828V400H3.08984V375.443ZM4.98828 377.025V386.939H9.55859C11.6094 386.939 13.168 386.506 14.2344 385.639C15.3008 384.771 15.834 383.547 15.834 381.965C15.834 380.453 15.3125 379.252 14.2695 378.361C13.2266 377.471 11.7324 377.025 9.78711 377.025H4.98828ZM32.0586 385.428L31.0566 387.045C29.709 385.814 28.625 385.199 27.8047 385.199C26.1875 385.199 24.459 386.746 22.6191 389.84V400H20.8965V383.828H22.6191V388.082H22.6895C24.623 385.035 26.5098 383.512 28.3496 383.512C29.4043 383.512 30.6406 384.15 32.0586 385.428ZM40.373 383.512C42.7168 383.512 44.668 384.314 46.2266 385.92C47.7969 387.525 48.582 389.529 48.582 391.932C48.582 394.322 47.7969 396.32 46.2266 397.926C44.668 399.52 42.7168 400.316 40.373 400.316C38.0293 400.316 36.0664 399.52 34.4844 397.926C32.9141 396.32 32.1289 394.322 32.1289 391.932C32.1289 389.529 32.9141 387.525 34.4844 385.92C36.0664 384.314 38.0293 383.512 40.373 383.512ZM40.373 398.629C42.1895 398.629 43.707 397.996 44.9258 396.73C46.1445 395.453 46.7539 393.854 46.7539 391.932C46.7539 390.021 46.1387 388.422 44.9082 387.133C43.6895 385.844 42.1777 385.199 40.373 385.199C38.5449 385.199 37.0156 385.838 35.7852 387.115C34.5664 388.393 33.957 389.998 33.957 391.932C33.957 393.854 34.5664 395.453 35.7852 396.73C37.0156 397.996 38.5449 398.629 40.373 398.629ZM63.7695 384.303V386.219C62.2227 385.539 60.8223 385.199 59.5684 385.199C57.7637 385.199 56.293 385.826 55.1562 387.08C54.0312 388.334 53.4688 389.963 53.4688 391.967C53.4688 394.006 54.0312 395.629 55.1562 396.836C56.293 398.031 57.8105 398.629 59.709 398.629C61.0918 398.629 62.5449 398.318 64.0684 397.697V399.49C62.4512 400.041 60.9512 400.316 59.5684 400.316C57.2012 400.316 55.2852 399.566 53.8203 398.066C52.3672 396.566 51.6406 394.598 51.6406 392.16C51.6406 389.617 52.373 387.543 53.8379 385.938C55.3145 384.32 57.1953 383.512 59.4805 383.512C60.7344 383.512 62.1641 383.775 63.7695 384.303ZM81.1543 391.316H68.4102C68.375 391.598 68.3574 391.879 68.3574 392.16C68.3574 393.965 69.002 395.494 70.291 396.748C71.5801 398.002 73.1035 398.629 74.8613 398.629C76.9121 398.629 78.916 397.826 80.873 396.221V398.172C79.0215 399.602 76.9473 400.316 74.6504 400.316C72.3184 400.316 70.3906 399.508 68.8672 397.891C67.3438 396.273 66.582 394.217 66.582 391.721C66.582 389.354 67.2852 387.396 68.6914 385.85C70.0977 384.291 71.8672 383.512 74 383.512C76.0039 383.512 77.6973 384.215 79.0801 385.621C80.4629 387.016 81.1543 388.914 81.1543 391.316ZM68.6387 389.928H79.1152C78.5059 386.775 76.8008 385.199 74 385.199C72.6758 385.199 71.5273 385.615 70.5547 386.447C69.5938 387.268 68.9551 388.428 68.6387 389.928ZM93.5293 384.883V386.746C91.8887 385.645 90.4121 385.094 89.0996 385.094C88.127 385.094 87.3066 385.357 86.6387 385.885C85.9707 386.412 85.6367 387.062 85.6367 387.836C85.6367 388.387 85.8359 388.896 86.2344 389.365C86.6445 389.822 87.7637 390.402 89.5918 391.105C91.4316 391.809 92.6328 392.541 93.1953 393.303C93.7578 394.064 94.0391 394.914 94.0391 395.852C94.0391 397.105 93.5293 398.166 92.5098 399.033C91.4902 399.889 90.2305 400.316 88.7305 400.316C87.1016 400.316 85.4844 399.824 83.8789 398.84V397.152C85.7891 398.137 87.4824 398.629 88.959 398.629C89.9551 398.629 90.7695 398.365 91.4023 397.838C92.0469 397.311 92.3691 396.637 92.3691 395.816C92.3691 395.254 92.1582 394.738 91.7363 394.27C91.3262 393.789 90.2012 393.186 88.3613 392.459C86.5332 391.732 85.3438 391.018 84.793 390.314C84.2539 389.6 83.9844 388.809 83.9844 387.941C83.9844 386.711 84.4883 385.668 85.4961 384.812C86.5156 383.945 87.752 383.512 89.2051 383.512C90.5293 383.512 91.9707 383.969 93.5293 384.883ZM106.291 384.883V386.746C104.65 385.645 103.174 385.094 101.861 385.094C100.889 385.094 100.068 385.357 99.4004 385.885C98.7324 386.412 98.3984 387.062 98.3984 387.836C98.3984 388.387 98.5977 388.896 98.9961 389.365C99.4062 389.822 100.525 390.402 102.354 391.105C104.193 391.809 105.395 392.541 105.957 393.303C106.52 394.064 106.801 394.914 106.801 395.852C106.801 397.105 106.291 398.166 105.271 399.033C104.252 399.889 102.992 400.316 101.492 400.316C99.8633 400.316 98.2461 399.824 96.6406 398.84V397.152C98.5508 398.137 100.244 398.629 101.721 398.629C102.717 398.629 103.531 398.365 104.164 397.838C104.809 397.311 105.131 396.637 105.131 395.816C105.131 395.254 104.92 394.738 104.498 394.27C104.088 393.789 102.963 393.186 101.123 392.459C99.2949 391.732 98.1055 391.018 97.5547 390.314C97.0156 389.6 96.7461 388.809 96.7461 387.941C96.7461 386.711 97.25 385.668 98.2578 384.812C99.2773 383.945 100.514 383.512 101.967 383.512C103.291 383.512 104.732 383.969 106.291 384.883ZM112.18 375.443V378.396H110.439V375.443H112.18ZM112.18 383.828V400H110.439V383.828H112.18ZM118.666 383.828V386.641H118.736C120.084 384.555 121.859 383.512 124.062 383.512C125.891 383.512 127.35 384.098 128.439 385.27C129.529 386.441 130.074 388.064 130.074 390.139V400H128.352V390.789C128.352 387.062 126.887 385.199 123.957 385.199C121.812 385.199 120.049 386.354 118.666 388.662V400H116.943V383.828H118.666ZM147.371 383.828V385.234H143.697C145.186 386.594 145.93 388.023 145.93 389.523C145.93 390.871 145.637 391.938 145.051 392.723C144.477 393.508 143.785 394.082 142.977 394.445C142.18 394.797 141.113 395.148 139.777 395.5C138.441 395.84 137.604 396.162 137.264 396.467C136.924 396.771 136.754 397.123 136.754 397.521C136.754 397.99 136.971 398.365 137.404 398.646C137.85 398.928 139.215 399.133 141.5 399.262C143.797 399.391 145.344 399.83 146.141 400.58C146.938 401.33 147.336 402.326 147.336 403.568C147.336 405.033 146.697 406.182 145.42 407.014C144.143 407.857 142.367 408.279 140.094 408.279C137.832 408.279 136.086 407.881 134.855 407.084C133.625 406.299 133.01 405.256 133.01 403.955C133.01 401.846 134.58 400.539 137.721 400.035V399.965C135.975 399.555 135.102 398.787 135.102 397.662C135.102 396.525 136.18 395.646 138.336 395.025V394.955C136.918 394.533 135.84 393.836 135.102 392.863C134.375 391.879 134.012 390.789 134.012 389.594C134.012 387.895 134.604 386.512 135.787 385.445C136.971 384.367 138.67 383.828 140.885 383.828H147.371ZM139.953 393.883C141.137 393.883 142.15 393.461 142.994 392.617C143.85 391.762 144.277 390.742 144.277 389.559C144.277 388.375 143.85 387.367 142.994 386.535C142.15 385.691 141.125 385.27 139.918 385.27C138.723 385.27 137.715 385.68 136.895 386.5C136.074 387.32 135.664 388.316 135.664 389.488C135.664 390.707 136.08 391.744 136.912 392.6C137.744 393.455 138.758 393.883 139.953 393.883ZM140.199 406.838C141.875 406.838 143.205 406.551 144.189 405.977C145.186 405.402 145.684 404.646 145.684 403.709C145.684 401.811 143.967 400.861 140.533 400.861C136.619 400.861 134.662 401.857 134.662 403.85C134.662 405.842 136.508 406.838 140.199 406.838Z" fill="#4A2B7E"/>
<circle cx="74" cy="244" r="68" fill="#9984BC"/>
<path d="M202.812 547.443H209.58C212.17 547.443 214.15 548.023 215.521 549.184C216.904 550.344 217.596 551.926 217.596 553.93C217.596 555.957 216.898 557.562 215.504 558.746C214.121 559.93 212.088 560.521 209.404 560.521H204.711V572H202.812V547.443ZM204.711 549.025V558.939H209.281C211.332 558.939 212.891 558.506 213.957 557.639C215.023 556.771 215.557 555.547 215.557 553.965C215.557 552.453 215.035 551.252 213.992 550.361C212.949 549.471 211.455 549.025 209.51 549.025H204.711ZM231.781 557.428L230.779 559.045C229.432 557.814 228.348 557.199 227.527 557.199C225.91 557.199 224.182 558.746 222.342 561.84V572H220.619V555.828H222.342V560.082H222.412C224.346 557.035 226.232 555.512 228.072 555.512C229.127 555.512 230.363 556.15 231.781 557.428ZM240.096 555.512C242.439 555.512 244.391 556.314 245.949 557.92C247.52 559.525 248.305 561.529 248.305 563.932C248.305 566.322 247.52 568.32 245.949 569.926C244.391 571.52 242.439 572.316 240.096 572.316C237.752 572.316 235.789 571.52 234.207 569.926C232.637 568.32 231.852 566.322 231.852 563.932C231.852 561.529 232.637 559.525 234.207 557.92C235.789 556.314 237.752 555.512 240.096 555.512ZM240.096 570.629C241.912 570.629 243.43 569.996 244.648 568.73C245.867 567.453 246.477 565.854 246.477 563.932C246.477 562.021 245.861 560.422 244.631 559.133C243.412 557.844 241.9 557.199 240.096 557.199C238.268 557.199 236.738 557.838 235.508 559.115C234.289 560.393 233.68 561.998 233.68 563.932C233.68 565.854 234.289 567.453 235.508 568.73C236.738 569.996 238.268 570.629 240.096 570.629ZM259.607 555.512C261.951 555.512 263.902 556.314 265.461 557.92C267.031 559.525 267.816 561.529 267.816 563.932C267.816 566.322 267.031 568.32 265.461 569.926C263.902 571.52 261.951 572.316 259.607 572.316C257.264 572.316 255.301 571.52 253.719 569.926C252.148 568.32 251.363 566.322 251.363 563.932C251.363 561.529 252.148 559.525 253.719 557.92C255.301 556.314 257.264 555.512 259.607 555.512ZM259.607 570.629C261.424 570.629 262.941 569.996 264.16 568.73C265.379 567.453 265.988 565.854 265.988 563.932C265.988 562.021 265.373 560.422 264.143 559.133C262.924 557.844 261.412 557.199 259.607 557.199C257.779 557.199 256.25 557.838 255.02 559.115C253.801 560.393 253.191 561.998 253.191 563.932C253.191 565.854 253.801 567.453 255.02 568.73C256.25 569.996 257.779 570.629 259.607 570.629ZM281.316 547.812V549.43C280.156 549.02 279.184 548.814 278.398 548.814C275.785 548.814 274.479 550.484 274.479 553.824V555.828H277.607V557.234H274.479V572H272.756V557.234H269.768V555.828H272.756V553.174C272.756 551.311 273.295 549.84 274.373 548.762C275.463 547.672 276.793 547.127 278.363 547.127C279.219 547.127 280.203 547.355 281.316 547.812ZM291.441 557.428L290.439 559.045C289.092 557.814 288.008 557.199 287.188 557.199C285.57 557.199 283.842 558.746 282.002 561.84V572H280.279V555.828H282.002V560.082H282.072C284.006 557.035 285.893 555.512 287.732 555.512C288.787 555.512 290.023 556.15 291.441 557.428ZM306.014 563.316H293.27C293.234 563.598 293.217 563.879 293.217 564.16C293.217 565.965 293.861 567.494 295.15 568.748C296.439 570.002 297.963 570.629 299.721 570.629C301.771 570.629 303.775 569.826 305.732 568.221V570.172C303.881 571.602 301.807 572.316 299.51 572.316C297.178 572.316 295.25 571.508 293.727 569.891C292.203 568.273 291.441 566.217 291.441 563.721C291.441 561.354 292.145 559.396 293.551 557.85C294.957 556.291 296.727 555.512 298.859 555.512C300.863 555.512 302.557 556.215 303.939 557.621C305.322 559.016 306.014 560.914 306.014 563.316ZM293.498 561.928H303.975C303.365 558.775 301.66 557.199 298.859 557.199C297.535 557.199 296.387 557.615 295.414 558.447C294.453 559.268 293.814 560.428 293.498 561.928ZM322.414 569.188V570.629C320.926 571.754 319.836 572.316 319.145 572.316C318.746 572.316 318.471 572.188 318.318 571.93C318.166 571.66 318.055 571.121 317.984 570.312C316.285 571.648 314.598 572.316 312.922 572.316C311.703 572.316 310.672 571.918 309.828 571.121C308.984 570.324 308.562 569.357 308.562 568.221C308.562 566.463 309.377 565.08 311.006 564.072C312.635 563.053 314.961 562.467 317.984 562.314V560.258C317.984 558.055 316.789 556.953 314.398 556.953C312.875 556.953 311.229 557.639 309.459 559.01V557.234C311.287 556.086 313.027 555.512 314.68 555.512C316.145 555.512 317.352 555.875 318.301 556.602C319.25 557.316 319.725 558.359 319.725 559.73V569.803C319.725 570.354 319.854 570.629 320.111 570.629C320.439 570.629 321.207 570.148 322.414 569.188ZM317.984 568.801V563.756C315.77 563.674 313.93 564.066 312.465 564.934C311.012 565.789 310.285 566.885 310.285 568.221C310.285 568.971 310.59 569.604 311.199 570.119C311.809 570.635 312.57 570.893 313.484 570.893C314.961 570.893 316.461 570.195 317.984 568.801ZM338.797 547.443V572H337.057V570.734C335.58 571.789 333.986 572.316 332.275 572.316C329.979 572.316 328.039 571.508 326.457 569.891C324.887 568.262 324.102 566.264 324.102 563.896C324.102 561.494 324.875 559.496 326.422 557.902C327.98 556.309 329.932 555.512 332.275 555.512C333.764 555.512 335.357 555.945 337.057 556.812V547.443H338.797ZM337.057 569.152V558.711C335.51 557.703 333.939 557.199 332.346 557.199C330.482 557.199 328.947 557.82 327.74 559.062C326.533 560.293 325.93 561.869 325.93 563.791C325.93 565.748 326.574 567.377 327.863 568.678C329.152 569.979 330.764 570.629 332.697 570.629C334.197 570.629 335.65 570.137 337.057 569.152ZM345.23 547.443V550.396H343.49V547.443H345.23ZM345.23 555.828V572H343.49V555.828H345.23ZM351.717 555.828V558.641H351.787C353.135 556.555 354.91 555.512 357.113 555.512C358.941 555.512 360.4 556.098 361.49 557.27C362.58 558.441 363.125 560.064 363.125 562.139V572H361.402V562.789C361.402 559.062 359.938 557.199 357.008 557.199C354.863 557.199 353.1 558.354 351.717 560.662V572H349.994V555.828H351.717ZM380.422 555.828V557.234H376.748C378.236 558.594 378.98 560.023 378.98 561.523C378.98 562.871 378.688 563.938 378.102 564.723C377.527 565.508 376.836 566.082 376.027 566.445C375.23 566.797 374.164 567.148 372.828 567.5C371.492 567.84 370.654 568.162 370.314 568.467C369.975 568.771 369.805 569.123 369.805 569.521C369.805 569.99 370.021 570.365 370.455 570.646C370.9 570.928 372.266 571.133 374.551 571.262C376.848 571.391 378.395 571.83 379.191 572.58C379.988 573.33 380.387 574.326 380.387 575.568C380.387 577.033 379.748 578.182 378.471 579.014C377.193 579.857 375.418 580.279 373.145 580.279C370.883 580.279 369.137 579.881 367.906 579.084C366.676 578.299 366.061 577.256 366.061 575.955C366.061 573.846 367.631 572.539 370.771 572.035V571.965C369.025 571.555 368.152 570.787 368.152 569.662C368.152 568.525 369.23 567.646 371.387 567.025V566.955C369.969 566.533 368.891 565.836 368.152 564.863C367.426 563.879 367.062 562.789 367.062 561.594C367.062 559.895 367.654 558.512 368.838 557.445C370.021 556.367 371.721 555.828 373.936 555.828H380.422ZM373.004 565.883C374.188 565.883 375.201 565.461 376.045 564.617C376.9 563.762 377.328 562.742 377.328 561.559C377.328 560.375 376.9 559.367 376.045 558.535C375.201 557.691 374.176 557.27 372.969 557.27C371.773 557.27 370.766 557.68 369.945 558.5C369.125 559.32 368.715 560.316 368.715 561.488C368.715 562.707 369.131 563.744 369.963 564.6C370.795 565.455 371.809 565.883 373.004 565.883ZM373.25 578.838C374.926 578.838 376.256 578.551 377.24 577.977C378.236 577.402 378.734 576.646 378.734 575.709C378.734 573.811 377.018 572.861 373.584 572.861C369.67 572.861 367.713 573.857 367.713 575.85C367.713 577.842 369.559 578.838 373.25 578.838Z" fill="#4A2B7E"/>
<circle cx="291" cy="460" r="68" fill="#9984BC"/>
<circle cx="411" cy="153" r="153" fill="white" fill-opacity="0.85"/>
<path d="M300.167 134.351V163H294.63V134.351H300.167ZM325.391 143.477C327.852 143.477 329.732 144.003 331.031 145.056C332.33 146.095 332.979 147.551 332.979 149.424V158.796C332.979 159.521 333.273 159.883 333.861 159.883C334.107 159.883 334.449 159.78 334.886 159.575C335.337 159.356 335.713 159.11 336.014 158.837V161.749C334.251 162.829 332.637 163.369 331.174 163.369C330.272 163.369 329.575 163.219 329.083 162.918C328.604 162.617 328.269 162.084 328.078 161.318C326.15 162.686 324.215 163.369 322.274 163.369C320.893 163.369 319.704 162.904 318.706 161.975C317.721 161.045 317.229 159.931 317.229 158.632C317.229 156.978 317.721 155.672 318.706 154.715C319.69 153.758 321.413 152.924 323.874 152.213L327.955 151.023V150.142C327.955 148.269 326.82 147.332 324.55 147.332C323.388 147.332 322.233 147.599 321.085 148.132C319.936 148.665 318.89 149.451 317.947 150.49V145.958C320.039 144.304 322.52 143.477 325.391 143.477ZM322.315 157.873C322.315 158.57 322.534 159.131 322.971 159.555C323.422 159.979 323.976 160.19 324.632 160.19C325.74 160.19 326.847 159.685 327.955 158.673V153.628C326.546 154.106 325.439 154.558 324.632 154.981C323.839 155.405 323.252 155.836 322.869 156.273C322.5 156.711 322.315 157.244 322.315 157.873ZM345.437 143.477C346.49 143.477 347.481 143.6 348.411 143.846C349.34 144.078 350.325 144.454 351.364 144.974V149.014C350.407 148.398 349.381 147.906 348.288 147.537C347.194 147.154 346.216 146.963 345.355 146.963C344.631 146.963 344.063 147.1 343.653 147.373C343.243 147.646 343.038 148.036 343.038 148.542C343.038 148.829 343.209 149.116 343.55 149.403C343.892 149.69 344.829 150.217 346.36 150.982C348.547 152.09 350.079 153.115 350.954 154.059C351.842 154.988 352.287 156.109 352.287 157.422C352.287 159.268 351.644 160.724 350.359 161.79C349.074 162.843 347.338 163.369 345.15 163.369C343.783 163.369 342.505 163.219 341.315 162.918C340.139 162.617 339.162 162.255 338.382 161.831V157.627C340.843 158.994 342.915 159.678 344.596 159.678C345.458 159.678 346.155 159.527 346.688 159.227C347.221 158.912 347.488 158.502 347.488 157.996C347.488 157.695 347.392 157.422 347.201 157.176C347.009 156.93 346.722 156.677 346.339 156.417C345.957 156.157 344.76 155.535 342.751 154.551C341.206 153.812 340.064 153.013 339.326 152.151C338.588 151.276 338.218 150.244 338.218 149.055C338.218 147.359 338.881 146.006 340.208 144.994C341.534 143.982 343.277 143.477 345.437 143.477ZM362.838 143.477C363.89 143.477 364.882 143.6 365.811 143.846C366.741 144.078 367.725 144.454 368.764 144.974V149.014C367.807 148.398 366.782 147.906 365.688 147.537C364.594 147.154 363.617 146.963 362.756 146.963C362.031 146.963 361.464 147.1 361.053 147.373C360.643 147.646 360.438 148.036 360.438 148.542C360.438 148.829 360.609 149.116 360.951 149.403C361.293 149.69 362.229 150.217 363.76 150.982C365.948 152.09 367.479 153.115 368.354 154.059C369.243 154.988 369.687 156.109 369.687 157.422C369.687 159.268 369.045 160.724 367.759 161.79C366.474 162.843 364.738 163.369 362.551 163.369C361.183 163.369 359.905 163.219 358.716 162.918C357.54 162.617 356.562 162.255 355.783 161.831V157.627C358.244 158.994 360.315 159.678 361.997 159.678C362.858 159.678 363.555 159.527 364.089 159.227C364.622 158.912 364.888 158.502 364.888 157.996C364.888 157.695 364.793 157.422 364.601 157.176C364.41 156.93 364.123 156.677 363.74 156.417C363.357 156.157 362.161 155.535 360.151 154.551C358.606 153.812 357.465 153.013 356.726 152.151C355.988 151.276 355.619 150.244 355.619 149.055C355.619 147.359 356.282 146.006 357.608 144.994C358.934 143.982 360.677 143.477 362.838 143.477ZM376.711 134.986C377.49 134.986 378.16 135.267 378.721 135.827C379.281 136.388 379.561 137.058 379.561 137.837C379.561 138.589 379.281 139.259 378.721 139.847C378.174 140.421 377.504 140.708 376.711 140.708C375.945 140.708 375.275 140.421 374.701 139.847C374.14 139.259 373.86 138.589 373.86 137.837C373.86 137.044 374.147 136.374 374.721 135.827C375.296 135.267 375.959 134.986 376.711 134.986ZM379.233 143.846V163H374.188V143.846H379.233ZM391.076 143.477C392.129 143.477 393.12 143.6 394.05 143.846C394.979 144.078 395.964 144.454 397.003 144.974V149.014C396.046 148.398 395.02 147.906 393.927 147.537C392.833 147.154 391.855 146.963 390.994 146.963C390.269 146.963 389.702 147.1 389.292 147.373C388.882 147.646 388.677 148.036 388.677 148.542C388.677 148.829 388.848 149.116 389.189 149.403C389.531 149.69 390.468 150.217 391.999 150.982C394.186 152.09 395.718 153.115 396.593 154.059C397.481 154.988 397.926 156.109 397.926 157.422C397.926 159.268 397.283 160.724 395.998 161.79C394.713 162.843 392.976 163.369 390.789 163.369C389.422 163.369 388.143 163.219 386.954 162.918C385.778 162.617 384.801 162.255 384.021 161.831V157.627C386.482 158.994 388.554 159.678 390.235 159.678C391.097 159.678 391.794 159.527 392.327 159.227C392.86 158.912 393.127 158.502 393.127 157.996C393.127 157.695 393.031 157.422 392.84 157.176C392.648 156.93 392.361 156.677 391.978 156.417C391.596 156.157 390.399 155.535 388.39 154.551C386.845 153.812 385.703 153.013 384.965 152.151C384.226 151.276 383.857 150.244 383.857 149.055C383.857 147.359 384.52 146.006 385.847 144.994C387.173 143.982 388.916 143.477 391.076 143.477ZM407.513 138.76H407.923V143.846H414.485V147.66H407.923V156.499C407.923 157.36 408.183 158.058 408.702 158.591C409.222 159.124 409.933 159.391 410.835 159.391C412.011 159.391 413.364 158.967 414.895 158.119V162.159C413.077 162.966 411.368 163.369 409.769 163.369C407.608 163.369 405.92 162.781 404.703 161.605C403.5 160.43 402.898 158.837 402.898 156.827V147.66H399.904V146.84L407.513 138.76ZM433.024 143.846L437.474 154.899L442.006 143.846H445.287L449.778 154.899L454.229 143.846H459.479L450.947 163.369H448.815L443.647 151.659L438.479 163.369H436.387L427.774 143.846H433.024ZM465.108 134.986C465.887 134.986 466.557 135.267 467.117 135.827C467.678 136.388 467.958 137.058 467.958 137.837C467.958 138.589 467.678 139.259 467.117 139.847C466.57 140.421 465.901 140.708 465.108 140.708C464.342 140.708 463.672 140.421 463.098 139.847C462.537 139.259 462.257 138.589 462.257 137.837C462.257 137.044 462.544 136.374 463.118 135.827C463.693 135.267 464.356 134.986 465.108 134.986ZM467.63 143.846V163H462.585V143.846H467.63ZM478.509 138.76H478.919V143.846H485.482V147.66H478.919V156.499C478.919 157.36 479.179 158.058 479.699 158.591C480.218 159.124 480.929 159.391 481.831 159.391C483.007 159.391 484.361 158.967 485.892 158.119V162.159C484.074 162.966 482.365 163.369 480.765 163.369C478.605 163.369 476.916 162.781 475.699 161.605C474.496 160.43 473.895 158.837 473.895 156.827V147.66H470.901V146.84L478.509 138.76ZM494.228 134.351V146.532H494.351C495.978 144.495 497.94 143.477 500.237 143.477C502.274 143.477 503.914 144.146 505.159 145.486C506.403 146.826 507.025 148.576 507.025 150.736V163H502V151.7C502 150.415 501.693 149.396 501.077 148.645C500.476 147.879 499.649 147.496 498.596 147.496C497.83 147.496 497.106 147.715 496.422 148.152C495.752 148.59 495.021 149.314 494.228 150.326V163H489.183V134.351H494.228ZM514.971 157.073C515.805 157.073 516.537 157.381 517.165 157.996C517.808 158.611 518.129 159.356 518.129 160.231C518.129 161.079 517.822 161.817 517.206 162.446C516.591 163.062 515.846 163.369 514.971 163.369C514.11 163.369 513.365 163.062 512.736 162.446C512.121 161.817 511.813 161.079 511.813 160.231C511.813 159.356 512.127 158.611 512.756 157.996C513.385 157.381 514.123 157.073 514.971 157.073ZM525.727 157.073C526.561 157.073 527.293 157.381 527.921 157.996C528.564 158.611 528.885 159.356 528.885 160.231C528.885 161.079 528.578 161.817 527.962 162.446C527.347 163.062 526.602 163.369 525.727 163.369C524.866 163.369 524.121 163.062 523.492 162.446C522.876 161.817 522.569 161.079 522.569 160.231C522.569 159.356 522.883 158.611 523.512 157.996C524.141 157.381 524.879 157.073 525.727 157.073ZM536.483 157.073C537.317 157.073 538.048 157.381 538.677 157.996C539.32 158.611 539.641 159.356 539.641 160.231C539.641 161.079 539.334 161.817 538.718 162.446C538.103 163.062 537.358 163.369 536.483 163.369C535.622 163.369 534.877 163.062 534.248 162.446C533.632 161.817 533.325 161.079 533.325 160.231C533.325 159.356 533.639 158.611 534.268 157.996C534.897 157.381 535.635 157.073 536.483 157.073Z" fill="#4A2B7E"/>
<line x1="153.882" y1="213.514" x2="235.882" y2="193.514" stroke="#9984BC"/>
<line x1="353.457" y1="312.203" x2="321.457" y2="384.203" stroke="#9984BC"/>
<line x1="541.561" y1="384.239" x2="498.561" y2="305.239" stroke="#9984BC"/>
<line x1="586.054" y1="172.503" x2="641.054" y2="178.503" stroke="#9984BC"/>
</svg>
